<svg xmlns="http://www.w3.org/2000/svg" viewBox="0 0 70.12 70.12"><defs><style>.d{fill:#feeee9;}</style></defs><g id="a"></g><g id="b"><g id="c"><g><g><path class="d" d="M24.08,25.41c1.96-1.09,3.93-1.74,5.92-1.94h.2c.17,0,.28-.02,.35-.05,.56,0,.93-.02,1.09-.05l3.13-.15c.93-.03,2.12-.05,3.58-.05,1.36,0,2.24,.03,2.63,.1,2.78,.27,5.37,.89,7.75,1.89,.4,.13,.94-.31,1.64-1.34,.7-1.03,1.04-1.84,1.04-2.44,0-1.09-.61-2.3-1.84-3.63-1.19-1.23-2.32-2.02-3.38-2.39l.05,.35v.35c0,.3-.07,.56-.2,.8-.37,.56-1.09,.8-2.19,.7-1.99-.13-4.21-.2-6.66-.2h-1.99c-3.65,.03-7.09,.15-10.34,.35-1.09,.03-1.76-.28-1.99-.94-.83,.43-1.62,1.13-2.39,2.09-.66,.93-.93,1.54-.8,1.84,1.26,3.45,2.72,5.02,4.37,4.72Z"></path><path class="d" d="M51.42,26.95l.1,.7c-.07,.37-.15,.63-.25,.8-.3,.47-.88,.7-1.74,.7-.27,0-.48-.02-.65-.05-3.08-.3-6.64-.45-10.69-.45-1.89,0-3.33,.02-4.32,.05-5.8,.1-10.57,.37-14.32,.8l-.5,.05c-.83,0-1.39-.33-1.69-.99-.93,.43-1.81,1.14-2.63,2.14-.73,.93-1.03,1.57-.9,1.94,.6,1.46,1.42,2.67,2.49,3.63,1.06,1.03,2.02,1.46,2.88,1.29,1.56-.67,3.57-1.64,6.93-2.33-1.57,2.9-4.02,6.57-7.53,9.68,0,0-.94,3.84,.87,5.47,1.23,1.11,1.16-.12,3.92-.24,2.76-.12,8.76-.22,12.44-.22,4.2,0,9.25,.23,11.97,.37,3.6,.18,3.16,1.06,4.39,.32,2.39-1.44,.96-5.69,.96-5.69-3.67-3.26-6.25-7.13-7.88-10.09,2.07,.23,3.73,.56,4.98,.99l1.64,.6,.84,.35,.94,.35c.4,.13,.93-.35,1.59-1.44,.13-.2,.36-.65,.7-1.34l.3-.94c.13-1.09-.38-2.4-1.54-3.93-1.16-1.36-2.27-2.19-3.33-2.49Zm-15.45,17.29c-3.63,0-6.8,.08-9.41,.18,4.24-4.24,6.24-7.93,7.12-10.02,.71-.02,1.43-.04,2.21-.04,.71,0,1.35,0,1.96,.01,.87,2.08,2.87,5.78,7.11,10.03-2.51-.09-5.53-.16-8.98-.16Z"></path></g><path class="d" d="M35.06,0C15.7,0,0,15.7,0,35.06s15.7,35.06,35.06,35.06,35.06-15.7,35.06-35.06S54.42,0,35.06,0Zm19.35,54.4c-3.73,6.85-11,11.5-19.35,11.5s-15.61-4.65-19.35-11.5c-6.85-3.73-11.5-11-11.5-19.35s4.65-15.61,11.5-19.35c3.73-6.85,11-11.5,19.35-11.5s15.61,4.65,19.35,11.5c6.85,3.73,11.5,11,11.5,19.35s-4.65,15.61-11.5,19.35Z"></path></g></g></g></svg>