<?xml version="1.0" encoding="UTF-8"?><svg xmlns="http://www.w3.org/2000/svg" viewBox="0 0 561.57 126.49"><defs><style>.f{fill:#fff3ed;}.g{fill:#c1413d;}</style></defs><g id="a"/><g id="b"><g id="c"><g id="d"><g id="e"><circle class="f" cx="498.96" cy="63.25" r="60.22"/><g><circle class="f" cx="498.96" cy="63.25" r="62.61"/><circle class="g" cx="498.96" cy="63.25" r="57.88"/><circle class="f" cx="498.96" cy="63.25" r="33.8"/></g><g><circle class="f" cx="353.98" cy="63.25" r="62.61"/><circle class="g" cx="353.98" cy="63.25" r="57.88"/><circle class="f" cx="353.98" cy="63.25" r="33.8"/></g><g><circle class="f" cx="209.06" cy="63.25" r="62.61"/><circle class="g" cx="209.06" cy="63.25" r="57.88"/><circle class="f" cx="209.06" cy="63.25" r="33.8"/></g><g><circle class="f" cx="63.25" cy="63.25" r="63.25"/><circle class="g" cx="63.25" cy="63.25" r="58.47"/><circle class="f" cx="63.25" cy="63.25" r="34.14"/></g><g><path class="g" d="M354.35,122.23c-32.57,0-59.08-26.5-59.08-59.08s26.5-59.08,59.08-59.08,59.08,26.5,59.08,59.08-26.5,59.08-59.08,59.08Zm0-115.58c-31.16,0-56.51,25.35-56.51,56.51s25.35,56.51,56.51,56.51,56.51-25.35,56.51-56.51-25.35-56.51-56.51-56.51Z"/><g><path class="f" d="M328.39,98.58s.07-.06,.12-.02l.65,.43s.08,.08,.07,.15l-.2,4.57,.03,.02,2.16-3.27s.07-.06,.12-.02l.62,.41s.06,.07,.03,.12l-3.05,4.6s-.07,.06-.12,.02l-.65-.43s-.08-.08-.07-.15l.18-4.57-.03-.02-2.16,3.26s-.07,.06-.12,.02l-.62-.41s-.06-.07-.02-.12l3.05-4.6Z"/><path class="f" d="M330.94,105.34c.04-.31,.23-.8,.56-1.47,.33-.66,.61-1.1,.84-1.33,.67-.67,1.54-.76,2.44-.31,.91,.46,1.36,1.21,1.22,2.15-.04,.31-.23,.8-.56,1.47-.33,.67-.61,1.11-.84,1.33-.67,.67-1.54,.76-2.45,.3-.91-.46-1.35-1.21-1.21-2.14Zm2.91,1.17c.15-.16,.38-.53,.68-1.12,.3-.59,.46-.99,.49-1.21,.06-.52-.15-.91-.63-1.15-.48-.24-.91-.18-1.29,.18-.15,.16-.38,.53-.68,1.12-.3,.59-.46,.99-.49,1.21-.06,.52,.15,.91,.63,1.15,.49,.24,.92,.18,1.3-.18Z"/><path class="f" d="M339.22,104.43c.02-.06,.05-.07,.11-.06l.73,.22c.07,.02,.11,.06,.12,.12l.52,3.81h.03l2.51-2.89s.09-.06,.16-.04l.72,.22c.06,.02,.07,.05,.06,.1l-1.59,5.28c-.02,.06-.05,.07-.11,.06l-.71-.21c-.06-.02-.07-.05-.06-.1l1-3.33h-.03l-1.95,2.2c-.05,.06-.11,.08-.19,.06l-.47-.14c-.07-.02-.11-.07-.12-.15l-.4-2.91h-.03l-1,3.32c-.02,.06-.05,.07-.11,.06l-.71-.21c-.06-.02-.07-.05-.06-.1l1.59-5.28Z"/><path class="f" d="M344.94,111.63c-.35-.2-.64-.44-.83-.69-.03-.05-.04-.09,0-.13l.62-.51s.08-.04,.12,.01c.45,.48,.93,.77,1.46,.86,.67,.11,1.13-.14,1.21-.63,.07-.43-.16-.72-.91-.95l-.3-.09c-1.13-.35-1.61-.97-1.45-1.89,.17-1.02,1.04-1.56,2.22-1.37,.73,.12,1.31,.42,1.76,.87,.04,.04,.03,.08,0,.12l-.51,.54s-.08,.04-.12,0c-.41-.37-.83-.59-1.3-.67-.57-.1-.95,.15-1.03,.6-.07,.4,.24,.72,.92,.94l.3,.09c1.11,.35,1.59,.98,1.43,1.91-.17,1.03-1.07,1.61-2.45,1.38-.41-.07-.8-.2-1.15-.41Z"/><path class="f" d="M349.56,109.59c.04-.74,.12-1.26,.24-1.55,.35-.88,1.11-1.31,2.14-1.26,1.02,.06,1.73,.62,1.95,1.31,.02,.05,0,.09-.04,.12l-.73,.27c-.05,.01-.08,0-.11-.05-.24-.48-.62-.74-1.13-.76-.55-.03-.92,.2-1.13,.68-.08,.2-.14,.64-.17,1.3-.04,.66-.03,1.1,.03,1.31,.15,.5,.5,.77,1.05,.8,.52,.03,.97-.22,1.14-.65,.07-.18,.12-.42,.13-.73,0-.03-.01-.05-.05-.05l-.95-.05c-.06,0-.08-.03-.08-.09l.04-.67c0-.06,.03-.08,.09-.08l1.92,.1c.06,0,.08,.03,.08,.09l-.03,.49c-.03,.56-.1,.97-.2,1.24-.33,.86-1.12,1.34-2.12,1.28-1.03-.06-1.74-.57-1.99-1.48-.09-.31-.11-.83-.07-1.57Z"/><path class="f" d="M358.38,106.85c.01-.06,.04-.09,.1-.09l.78-.08c.06,0,.1,.02,.12,.07l2.51,5.29c.02,.06,0,.08-.05,.09l-.83,.08c-.06,0-.1-.02-.12-.07l-.49-1.06-2.17,.22-.27,1.14c-.01,.06-.04,.09-.1,.09l-.82,.08c-.06,0-.08-.02-.07-.08l1.42-5.69Zm.06,3.55l1.56-.16-.99-2.12h-.03l-.55,2.28Z"/><path class="f" d="M361.84,106.44c-.01-.06,0-.09,.07-.1l2.02-.45c.99-.22,1.71,.05,2.16,.82,.15,.27,.32,.77,.48,1.51,.16,.74,.23,1.27,.2,1.57-.09,.88-.63,1.43-1.62,1.65l-2.02,.45c-.06,.01-.09,0-.1-.06l-1.19-5.39Zm1.99,4.34s.03,.05,.06,.04l.84-.19c.62-.14,.96-.46,1.02-.96,.03-.19-.03-.6-.17-1.23-.14-.63-.26-1.02-.37-1.19-.26-.43-.7-.58-1.33-.44l-.84,.19s-.05,.03-.04,.06l.82,3.72Z"/><path class="f" d="M366.8,105.29c-.02-.06,0-.09,.05-.11l1.96-.68c.96-.33,1.7-.14,2.24,.56,.18,.25,.4,.73,.65,1.45,.25,.72,.37,1.23,.38,1.54,.01,.89-.46,1.49-1.41,1.82l-1.96,.68c-.06,.02-.09,0-.11-.05l-1.81-5.21Zm2.48,4.08s.03,.04,.06,.03l.81-.28c.6-.21,.9-.57,.9-1.07,0-.2-.1-.59-.31-1.2-.21-.61-.38-.98-.5-1.13-.31-.4-.77-.5-1.37-.29l-.81,.28s-.04,.03-.03,.06l1.25,3.6Z"/><path class="f" d="M371.57,103.56c-.03-.05-.01-.09,.04-.11l3.28-1.56c.05-.03,.09-.01,.11,.04l.31,.65c.03,.05,.01,.09-.04,.11l-2.4,1.14s-.04,.04-.02,.07l.6,1.25s.04,.04,.07,.02l2.02-.96c.05-.03,.09-.01,.11,.04l.31,.65c.02,.05,.01,.09-.04,.11l-2.02,.96s-.04,.04-.02,.07l.62,1.3s.04,.04,.07,.02l2.4-1.14c.05-.03,.09-.01,.11,.04l.31,.65c.03,.05,.01,.09-.04,.11l-3.28,1.56c-.05,.03-.09,.01-.11-.04l-2.37-4.98Z"/><path class="f" d="M375.73,101.52s-.02-.08,.03-.12l1.76-1.09c.86-.53,1.62-.52,2.31,.05,.23,.2,.56,.62,.96,1.27,.4,.65,.64,1.12,.71,1.42,.21,.87-.12,1.56-.98,2.09l-1.76,1.09c-.05,.03-.09,.02-.12-.03l-2.91-4.69Zm3.31,3.44s.04,.03,.07,.02l.73-.45c.54-.34,.75-.75,.64-1.24-.04-.19-.23-.56-.57-1.11-.34-.55-.58-.88-.74-1-.39-.32-.86-.31-1.4,.02l-.73,.45s-.03,.04-.02,.07l2.01,3.24Z"/></g><g><path class="f" d="M313.14,34.9c.25,.51,.5,1.03,.73,1.57l7.76,4.96-.77,1.2-6.26-4c.54,1.96,.79,4.07,.62,6.12-.41-.01-1.09,.04-1.48,.13,.34-2.97-.32-6.15-1.53-8.53l-3.22,5.03-1.13-.72,6.52-10.21,1.13,.72-2.38,3.72Zm1.87,1.06c1.75-.76,4.25-1.72,5.73-2l.26,1.48c-1.43,.21-3.98,1.07-5.81,1.81l-.18-1.29Z"/><path class="f" d="M323.38,21.7c0,.19,.01,.38,.01,.57,1.9,.29,4.48-.13,6.57-1.07-.08,.4-.05,1.06,.01,1.46-2.05,.8-4.54,1.05-6.64,.73-.24,2.2-1.1,4.46-2.29,6.42-.38-.17-.98-.31-1.43-.37,1.52-2.26,2.59-5.07,2.46-7.45l1.31-.29Zm5.65,2.18c0,.97-.04,2.1-.1,3.17l1.86-1.46,2.96,3.78-1.08,.85-.37-.47-5.12,4.01,.38,.49-1.04,.81-2.98-3.8,4.07-3.19c.05-.72,.1-1.52,.12-2.21l-5.03,3.94-.72-.91,5.85-4.59,.13-.2,1.05-.23Zm-3.18,1.97c-.6-.1-1.68-.1-2.51-.05l.33-1.1c.81-.09,1.86-.13,2.5-.05l-.32,1.2Zm4.57,1.49l-5.12,4.01,1.18,1.5,5.12-4.01-1.18-1.5Z"/><path class="f" d="M336.1,24.21l.35,1.05-1.14,.38-2.99-8.88,3.71-1.25,2.64,7.83-2.57,.87Zm-2.23-6.62l1.83,5.42,1.43-.48-1.83-5.42-1.43,.48Zm9.1,1.47c1.27,1.36,2.96,2.53,4.45,2.98-.23,.33-.48,.94-.59,1.34-1.21-.5-2.56-1.47-3.73-2.61l1.43,4.25-1.26,.43-1.44-4.28c-.34,1.74-1,3.37-1.96,4.56-.29-.23-.81-.55-1.17-.68,1.19-1.3,1.99-3.34,2.22-5.29l-2.68,.9-.4-1.19,3.07-1.04-.67-1.98-2.59,.87-.4-1.19,2.59-.87-.68-2.01,1.26-.43,.68,2.01,2.84-.96,.4,1.19-2.84,.96,.67,1.98,3.33-1.12,.4,1.19-2.92,.99Z"/><path class="f" d="M351.55,16.98c.33,.4,1.55,2.16,1.8,2.61l-.85,.99c-.19-.47-.6-1.27-.97-1.98l-.09,5.22-1.17-.02,.08-4.73c-.43,1.18-.97,2.32-1.51,3.07-.11-.4-.41-.98-.62-1.35,.74-.94,1.5-2.61,1.95-4.03l-1.7-.03,.02-1.23,1.91,.03,.08-4.66,1.18,.02-.08,4.66,1.47,.02-.02,1.23-1.47-.02v.2Zm-2.26-1.93c-.04-.84-.32-2.14-.66-3.14l.88-.18c.37,.97,.64,2.26,.73,3.11l-.95,.21Zm4.3-3.09c-.36,1.07-.79,2.36-1.14,3.15l-.8-.25c.31-.83,.69-2.2,.89-3.16l1.06,.26Zm7.84,3.58l-.02,.98-7.95-.13,.02-.98,3.25,.05v-.81l-2.49-.04,.02-.93,2.5,.04v-.72l-2.83-.05,.02-.96,2.84,.05,.02-1.08,1.24,.02-.02,1.07,3.08,.05-.02,.96-3.08-.05v.72l2.78,.05-.02,.93-2.79-.05v.81l3.44,.06Zm-1,7.17c0,.58-.14,.9-.54,1.05-.41,.18-1.05,.18-1.91,.17-.05-.31-.21-.78-.35-1.08,.57,.04,1.17,.05,1.33,.05,.18,0,.24-.05,.24-.21l.02-.95-3.79-.06-.04,2.21-1.22-.02,.11-6.75,6.24,.1-.09,5.49Zm-1.2-1.86v-.89l-3.78-.06v.89l3.78,.06Zm-3.75-2.74v.89l3.78,.06v-.89l-3.78-.06Z"/><path class="f" d="M362.48,23.09c.88-.82,2.17-2.25,3.21-3.54l.72,1.09c-.94,1.2-2.09,2.55-3.08,3.59l-.85-1.14Zm3.66-4.64c-.33-.51-1.06-1.4-1.64-1.97l.99-.69c.57,.54,1.35,1.37,1.7,1.89l-1.05,.78Zm3.1,3.28c-.72,.85-1.7,1.85-2.7,2.4l-.68-.97c.94-.44,1.92-1.38,2.58-2.18l.81,.75Zm-1.01-6.47c-.33-.53-1.07-1.43-1.65-2.05l1.02-.64c.58,.56,1.35,1.41,1.69,1.96l-1.07,.73Zm6.03,4.68c.33,1.15,1.03,2.28,1.93,3.09-.34,.12-.86,.42-1.15,.66-1.07-1.07-1.82-2.66-2.08-4.23l-1.45-.53c-1.25,1.11-2.72,1.88-4.52,2.08-.05-.32-.26-.89-.4-1.22,1.36-.12,2.52-.63,3.51-1.38l-2.23-.82,.42-1.14,2.86,1.05c.4-.43,.77-.9,1.09-1.38l-2.78-1.02,.42-1.14,7.79,2.85-.42,1.14-3.72-1.36c-.33,.48-.7,.95-1.08,1.38l4.69,1.72-.42,1.14-2.46-.9Zm-3.71,.22l1.14,.42-1.83,4.98c-.21,.57-.44,.86-.89,.9-.45,.04-1.04-.16-1.91-.47,.08-.33,.1-.85,.06-1.23,.58,.23,1.15,.44,1.3,.48,.19,.07,.24,.04,.29-.1l1.82-4.97Zm1.77,2.46c.1,1.02,.07,2.29-.06,3.1h-1.12c.16-.79,.21-2.08,.15-3.1h1.04Zm1.78,.12c.35,1.26,.57,2.83,.56,3.82l-1.18,.14c.05-.99-.16-2.62-.47-3.87l1.09-.1Z"/><path class="f" d="M386,24.8s-.31,.35-.43,.49c-4.04,4.5-5.56,6-6.38,6.19-.49,.13-.8,.06-1.17-.16-.33-.2-.78-.57-1.23-.98,.23-.3,.48-.85,.56-1.28,.4,.38,.77,.71,.97,.87,.16,.14,.3,.17,.54,.12,.54-.1,1.92-1.39,5.26-5.13l-1.33-1.1c-2.38,2.62-4.95,4.93-7.68,5.52,.02-.4-.07-1-.21-1.39,2.45-.48,4.75-2.57,6.89-4.96l-1.4-1.15,.82-.99,1.43,1.18c.54-.63,1.08-1.29,1.6-1.91l1.03,.85c-.51,.62-1.07,1.27-1.61,1.9l2.34,1.93Zm5.09,3.1l-6.98,8.45-1.05-.87,.58-.7-1.82-1.5-.65,.79-1-.83,7.05-8.53,3.87,3.2Zm-6.64,5.91l4.79-5.8-1.82-1.5-4.79,5.79,1.82,1.51Z"/><path class="f" d="M390.72,36.01l.61,1.01-1.37,.83c-1.18,.71-2.85,1.36-4.95,.08,.13-.28,.29-.8,.33-1.13,1.8,1.11,3.11,.58,4.05,.02l1.33-.8Zm1.72,2.88l.61,1.02-4.98,3.01-.61-1.02,4.98-3.01Zm9.67,2.45l-9.66,5.83c-.63,.38-1.03,.43-1.42,.14-.42-.29-.85-.91-1.44-1.92,.25-.22,.63-.66,.83-.98,.42,.75,.84,1.44,.97,1.63,.13,.22,.26,.26,.46,.13l9.66-5.83,.6,.99Zm-4.14-7.16c-.23,.6-.6,1.29-.89,1.71l1.48,2.45-.97,.59-.64-1.05c-.92,.16-1.76,.13-2.57-.04,.05,1.1,.07,2.14,.05,2.91l-1.22-.11c.05-.84,.05-1.97,.01-3.18-1.23-.5-2.36-1.36-3.49-2.46,.18-.24,.45-.79,.55-1.11,.93,1.01,1.87,1.81,2.87,2.32-.04-.89-.12-1.78-.19-2.58l1.11,.19c.1,.88,.18,1.86,.24,2.83,.63,.17,1.28,.2,1.95,.11l-2.7-4.47,.97-.58,1.81,3.01c.24-.39,.51-.87,.69-1.29l.91,.77Zm-4.89,9.62l-.61-1.02,6.22-3.75,.62,1.02-6.22,3.75Z"/></g><path class="g" d="M354.35,97.95c-19.19,0-34.79-15.61-34.79-34.79s15.61-34.79,34.79-34.79,34.79,15.61,34.79,34.79-15.61,34.79-34.79,34.79Zm0-67.4c-17.98,0-32.6,14.63-32.6,32.6s14.62,32.6,32.6,32.6,32.6-14.63,32.6-32.6-14.63-32.6-32.6-32.6Z"/><g><path class="g" d="M327.16,53.24h4.89l2.99,8.13c.38,1.09,.69,2.28,1.04,3.45h.13c.38-1.17,.69-2.36,1.04-3.45l2.89-8.13h4.91v18.85h-4.13v-6.46c0-1.87,.36-4.69,.58-6.54h-.1l-1.57,4.51-2.53,6.89h-2.48l-2.56-6.89-1.52-4.51h-.1c.23,1.85,.58,4.66,.58,6.54v6.46h-4.05v-18.85Z"/><path class="g" d="M348.79,69.73l2.56-3.12c1.34,1.14,3.09,1.93,4.58,1.93,1.67,0,2.46-.63,2.46-1.65,0-1.09-1.04-1.44-2.66-2.13l-2.41-1.01c-1.97-.79-3.82-2.43-3.82-5.17,0-3.17,2.84-5.7,6.84-5.7,2.18,0,4.48,.84,6.13,2.48l-2.26,2.84c-1.24-.94-2.41-1.44-3.88-1.44-1.39,0-2.26,.56-2.26,1.57s1.19,1.44,2.86,2.1l2.36,.94c2.33,.94,3.72,2.51,3.72,5.17,0,3.14-2.63,5.9-7.19,5.9-2.46,0-5.09-.91-7.04-2.71Z"/><path class="g" d="M365.91,62.77c0-6.28,4.23-9.88,9.27-9.88,2.76,0,4.74,1.17,6.03,2.46l-2.41,2.89c-.91-.84-1.9-1.47-3.47-1.47-2.79,0-4.79,2.18-4.79,5.85s1.67,5.93,5.17,5.93c.69,0,1.39-.18,1.8-.48v-3.04h-2.99v-3.7h7.02v8.82c-1.32,1.27-3.65,2.3-6.28,2.3-5.24,0-9.35-3.29-9.35-9.68Z"/></g><polygon class="g" points="385.24 75.93 322.95 50.82 323.72 48.77 386.01 73.88 385.24 75.93"/></g><g><path class="g" d="M524.98,63.24h0c0-6.45-5.26-11.7-11.71-11.7-3.01,0-5.88,1.11-8.77,3.41h-.02c-1.21,.97-2.42,2.11-3.8,3.59l-.19,.2,.2,.18,.03,.03,2.88,3.37,.2,.23,.21-.22,.13-.14c.18-.2,.36-.39,.55-.58,1.63-1.71,3.05-2.93,4.34-3.72,1.47-.9,2.82-1.32,4.24-1.33,3.69,0,6.69,3.01,6.69,6.69,0,3.68-3,6.68-6.7,6.69-1.99,0-3.79-.73-5.82-2.33-1.48-1.16-2.92-2.75-4.14-4.15l-.16-.18-.15-.18-2.94-3.43c-.5-.57-.92-1.05-1.34-1.5-1.94-2.09-3.57-3.49-5.3-4.56-2.23-1.37-4.58-2.07-7.01-2.07-3.07,0-5.98,1.19-8.18,3.33-2.19,2.14-3.45,5.01-3.53,8.07h0c0,.1,0,.2,0,.3v.05c.03,6.42,5.28,11.65,11.71,11.66,3.01,0,5.88-1.12,8.77-3.42h0c1.18-.94,2.4-2.08,3.73-3.51l.17-.18-.16-.18-2.93-3.42-.2-.23-.21,.23c-.2,.22-.4,.44-.61,.65-1.62,1.71-3.04,2.93-4.34,3.72h0c-1.48,.9-2.82,1.32-4.23,1.33-3.68,0-6.67-3-6.69-6.67v-.02c0-.11,0-.23,0-.34,.18-3.55,3.12-6.34,6.68-6.35,1.99,0,3.78,.73,5.8,2.33,1.55,1.22,3.06,2.9,4.45,4.52l3.08,3.6c.42,.48,.81,.92,1.19,1.32,1.94,2.09,3.58,3.5,5.31,4.56,2.13,1.31,4.38,2.01,6.68,2.06h0c.11,0,.21,0,.32,0h.02c6.45,0,11.7-5.25,11.71-11.71h0Z"/><path class="g" d="M498.96,122.32c-32.57,0-59.08-26.5-59.08-59.08s26.5-59.08,59.08-59.08,59.08,26.5,59.08,59.08-26.5,59.08-59.08,59.08Zm0-115.58c-31.16,0-56.51,25.35-56.51,56.51s25.35,56.51,56.51,56.51,56.51-25.35,56.51-56.51-25.35-56.51-56.51-56.51Z"/><g><path class="f" d="M453.67,77.54l3.45-1c.06-.02,.09,0,.1,.06l.23,.8c.02,.06,0,.09-.06,.1l-3.46,1c-.62,.18-1.16,.13-1.64-.15-.47-.28-.79-.72-.97-1.33-.17-.6-.14-1.14,.11-1.63,.25-.49,.69-.82,1.3-1l3.46-1c.06-.02,.09,0,.1,.06l.23,.8c.02,.06,0,.09-.06,.1l-3.45,1c-.74,.21-1.05,.77-.86,1.42,.19,.66,.75,.96,1.49,.75Z"/><path class="f" d="M457.72,78.43c.05-.02,.09,0,.11,.05l.31,.72c.02,.05,.02,.11-.02,.17l-2.68,3.71v.03l3.62-1.53c.05-.02,.09,0,.11,.05l.29,.68c.02,.05,.01,.09-.04,.11l-5.08,2.16c-.05,.02-.09,0-.11-.05l-.3-.71c-.02-.05-.02-.11,.02-.17l2.67-3.71v-.03l-3.61,1.53c-.05,.02-.09,0-.11-.05l-.29-.68c-.02-.05-.01-.09,.04-.11l5.08-2.16Z"/><path class="f" d="M459.91,83.32c.05-.03,.09-.02,.12,.03l.41,.73c.03,.05,.02,.09-.03,.12l-4.06,2.3s-.04,.04-.02,.07l1.31,2.32c.03,.05,.02,.09-.03,.12l-.63,.35c-.05,.03-.08,.02-.11-.03l-1.78-3.16c-.03-.05-.02-.09,.03-.12l4.81-2.72Z"/><path class="f" d="M462.19,87.19s.08-.03,.12,.02l.46,.69s.03,.09-.02,.12l-4.59,3.07s-.08,.03-.12-.02l-.46-.69s-.03-.08,.02-.12l4.59-3.07Z"/><path class="f" d="M463.31,88.94s.08-.03,.12,.01l.48,.59c.05,.06,.06,.11,.03,.16l-1.71,3.45,.02,.03,3.71-1c.06-.02,.11,0,.16,.06l.47,.58s.03,.08-.01,.12l-4.28,3.49s-.08,.03-.12-.01l-.47-.58s-.03-.08,.01-.12l2.7-2.2-.02-.03-2.85,.74c-.08,.02-.14,0-.19-.06l-.31-.38c-.05-.06-.05-.12-.02-.19l1.3-2.64-.02-.03-2.7,2.2s-.08,.03-.12-.01l-.47-.58s-.03-.08,.01-.12l4.28-3.49Z"/><path class="f" d="M467.36,93.69s.08-.04,.12,0l.59,.59s.04,.08,0,.12l-3.93,3.87s-.08,.04-.12,0l-.59-.59s-.04-.08,0-.12l3.93-3.87Z"/><path class="f" d="M466.14,100.27s-.05-.07,0-.12l3.07-3.51s.02-.05,0-.07l-1.14-1s-.05-.07,0-.12l.47-.54s.07-.05,.12,0l3.12,2.72s.05,.07,.01,.12l-.47,.54s-.07,.05-.12,0l-1.14-1s-.05-.02-.07,0l-3.07,3.51s-.07,.05-.12,0l-.63-.55Z"/><path class="f" d="M472.26,98.11s.07-.05,.12-.02l2.97,2.09s.05,.07,.02,.12l-.41,.59s-.07,.05-.12,.02l-2.17-1.53s-.05-.02-.07,.01l-.8,1.13s-.01,.05,.01,.07l1.83,1.29s.06,.07,.02,.12l-.41,.59s-.07,.05-.12,.02l-1.83-1.29s-.05-.02-.07,.01l-.83,1.18s-.01,.05,.01,.07l2.17,1.53s.05,.07,.02,.12l-.41,.59s-.07,.05-.12,.02l-2.97-2.09s-.05-.07-.02-.12l3.18-4.51Z"/><path class="f" d="M476.07,100.74c.03-.05,.06-.06,.11-.03l1.82,1c.89,.49,1.25,1.16,1.09,2.04-.06,.3-.27,.79-.63,1.45-.37,.67-.67,1.1-.89,1.32-.65,.6-1.41,.66-2.3,.17l-1.81-1c-.05-.03-.06-.06-.03-.11l2.66-4.84Zm-1.36,4.57s0,.05,.02,.07l.75,.41c.56,.31,1.03,.29,1.4-.05,.15-.13,.37-.47,.68-1.04,.31-.56,.48-.94,.51-1.13,.09-.5-.15-.9-.71-1.21l-.75-.41s-.05,0-.07,.02l-1.83,3.34Z"/><path class="f" d="M483.52,110.28c-.06-.02-.09-.06-.09-.12l-.3-2.46-.94-.34s-.05,0-.07,.03l-.73,2.04c-.02,.05-.05,.07-.11,.05l-.79-.28c-.06-.02-.07-.05-.05-.11l1.86-5.2c.02-.05,.05-.07,.11-.05l2.11,.75c.51,.18,.86,.48,1.08,.89,.22,.42,.25,.86,.09,1.33-.25,.69-.85,1.1-1.56,1.1l.37,2.59c.01,.07-.04,.1-.09,.08l-.89-.32Zm.14-3.34c.5,.18,.94,0,1.1-.46,.17-.46-.05-.88-.56-1.06l-1.16-.42s-.05,0-.07,.03l-.51,1.43s0,.05,.03,.06l1.16,.41Z"/><path class="f" d="M487.15,105.51c.01-.06,.05-.07,.1-.06l.81,.22c.06,.01,.08,.05,.06,.1l-1.42,5.34c-.01,.06-.05,.07-.1,.06l-.81-.21c-.06-.02-.08-.05-.06-.1l1.42-5.34Z"/><path class="f" d="M488.52,108.75c.13-.72,.27-1.21,.43-1.49,.46-.84,1.25-1.19,2.23-1.01,.91,.17,1.51,.74,1.71,1.56,0,.05-.01,.08-.06,.09l-.77,.21c-.05,.01-.09,0-.1-.06-.14-.53-.45-.83-.93-.92-.51-.09-.89,.09-1.16,.55-.11,.19-.22,.61-.33,1.26-.12,.65-.16,1.08-.13,1.29,.09,.53,.38,.83,.89,.93,.49,.09,.88-.08,1.2-.53,.04-.05,.07-.05,.12-.02l.65,.47s.05,.06,.02,.11c-.47,.69-1.24,1.01-2.15,.85-.98-.18-1.6-.79-1.73-1.74-.05-.31,0-.83,.13-1.54Z"/><path class="f" d="M493.8,106.85c0-.06,.03-.08,.09-.08l3.62,.28c.06,0,.08,.03,.08,.09l-.05,.72c0,.06-.03,.08-.09,.08l-2.65-.2s-.05,.01-.05,.05l-.11,1.38s.01,.05,.05,.05l2.24,.17c.06,0,.08,.03,.08,.09l-.05,.72c0,.06-.03,.08-.09,.08l-2.24-.17s-.05,.01-.05,.05l-.11,1.43s.01,.05,.05,.05l2.65,.2c.06,0,.08,.03,.08,.09l-.05,.72c0,.06-.03,.08-.09,.08l-3.62-.28c-.06,0-.08-.03-.08-.09l.42-5.5Z"/><path class="f" d="M500.3,107.15c0-.06,.02-.09,.08-.09l.78-.06c.06,0,.11,.02,.15,.07l2.66,3.73h.03l-.3-3.91c0-.06,.02-.09,.08-.09l.74-.06c.06,0,.09,.02,.09,.08l.43,5.5c0,.06-.02,.09-.08,.09l-.77,.06c-.06,0-.11-.02-.15-.07l-2.67-3.72h-.03l.3,3.91c0,.06-.02,.09-.08,.09l-.74,.06c-.06,0-.09-.02-.09-.08l-.43-5.5Z"/><path class="f" d="M506.45,110.91c-.16-.28-.31-.77-.46-1.5-.15-.73-.2-1.25-.16-1.56,.12-.94,.74-1.55,1.74-1.75,1-.2,1.82,.12,2.28,.94,.16,.27,.31,.77,.46,1.5,.15,.73,.2,1.25,.15,1.56-.12,.94-.74,1.55-1.75,1.75-.99,.2-1.81-.12-2.27-.94Zm3.02-.87c.03-.22-.03-.65-.15-1.3s-.25-1.07-.36-1.26c-.27-.45-.67-.63-1.21-.52-.53,.11-.83,.42-.91,.94-.03,.22,.03,.65,.15,1.3,.13,.65,.25,1.07,.36,1.26,.27,.45,.67,.62,1.2,.52s.84-.42,.92-.94Z"/><path class="f" d="M511.91,109.73c-.19-.25-.4-.73-.63-1.44s-.34-1.22-.34-1.54c0-.94,.56-1.62,1.52-1.94,.97-.32,1.82-.09,2.38,.67,.19,.26,.4,.73,.63,1.44,.23,.71,.34,1.22,.34,1.54,0,.94-.56,1.62-1.53,1.94-.96,.31-1.81,.09-2.37-.67Zm2.89-1.21c0-.22-.1-.64-.31-1.27-.2-.63-.37-1.03-.5-1.21-.32-.41-.74-.54-1.26-.37-.51,.17-.77,.52-.79,1.04,0,.22,.1,.64,.31,1.27s.37,1.03,.5,1.21c.32,.41,.74,.54,1.25,.38,.52-.17,.78-.52,.8-1.04Z"/><path class="f" d="M515.42,103.98c-.03-.05-.01-.09,.04-.11l1.88-.87c.92-.42,1.68-.31,2.29,.34,.21,.23,.47,.68,.79,1.37,.32,.69,.49,1.19,.53,1.5,.1,.88-.31,1.53-1.23,1.96l-1.88,.86c-.05,.03-.09,.01-.11-.04l-2.3-5.01Zm2.86,3.82s.04,.04,.07,.02l.78-.36c.58-.27,.84-.65,.79-1.15-.01-.2-.16-.58-.42-1.17s-.47-.94-.61-1.08c-.35-.37-.81-.42-1.39-.15l-.78,.36s-.04,.04-.03,.07l1.59,3.46Z"/><path class="f" d="M520.02,101.78s-.02-.08,.03-.12l.72-.43c.05-.03,.09-.02,.12,.03l2.39,4s.04,.03,.07,.02l2.28-1.37c.05-.03,.09-.02,.12,.03l.37,.62c.03,.05,.02,.09-.03,.12l-3.11,1.87c-.05,.03-.09,.02-.12-.03l-2.83-4.73Z"/><path class="f" d="M523.8,99.46s-.03-.08,.02-.12l2.91-2.18s.08-.03,.12,.02l.43,.58s.03,.08-.02,.12l-2.13,1.6s-.03,.04-.01,.07l.83,1.11s.04,.03,.07,0l1.79-1.35s.08-.03,.12,.02l.43,.58s.03,.08-.02,.12l-1.79,1.35s-.03,.04-.01,.07l.86,1.15s.04,.03,.07,0l2.13-1.6s.08-.03,.12,.02l.43,.58s.03,.08-.02,.12l-2.91,2.18s-.08,.03-.12-.02l-3.31-4.42Z"/><path class="f" d="M536.64,95.33s-.09,.06-.15,.04l-2.39-.66-.67,.74s-.02,.05,0,.07l1.61,1.45s.05,.07,0,.12l-.56,.62s-.08,.05-.12,0l-4.1-3.69s-.05-.07,0-.12l1.5-1.67c.36-.4,.77-.62,1.24-.66,.47-.05,.9,.09,1.26,.42,.55,.49,.7,1.2,.43,1.86l2.54,.64c.07,.01,.08,.07,.04,.12l-.63,.7Zm-3.03-1.39c.36-.4,.35-.88,0-1.2-.37-.33-.84-.28-1.2,.12l-.83,.92s-.02,.05,0,.07l1.13,1.01s.05,.02,.07,0l.83-.92Z"/><path class="f" d="M533.6,90.23s-.05-.07-.02-.12l2.12-2.95s.07-.05,.12-.02l.58,.42s.05,.07,.02,.12l-1.55,2.16s-.02,.05,.01,.07l1.13,.81s.05,.01,.07-.01l1.3-1.82s.07-.05,.12-.02l.58,.42s.05,.07,.02,.12l-1.3,1.82s-.02,.05,.01,.07l1.17,.84s.05,.01,.07-.01l1.55-2.16s.07-.05,.12-.02l.58,.42s.05,.07,.02,.12l-2.12,2.95s-.07,.05-.12,.02l-4.48-3.21Z"/><path class="f" d="M536.25,86.43c-.05-.03-.06-.06-.03-.12l1.79-3.16c.03-.05,.07-.06,.12-.03l.63,.36c.05,.03,.06,.06,.03,.12l-1.31,2.31s-.01,.05,.02,.07l1.26,.72s.05,0,.07-.02l1.11-1.95c.03-.05,.06-.06,.11-.03l.63,.36c.05,.03,.06,.06,.03,.12l-1.11,1.95s-.01,.05,.02,.07l1.94,1.11c.05,.03,.06,.06,.03,.12l-.41,.73c-.03,.05-.06,.06-.11,.03l-4.8-2.73Z"/><path class="f" d="M538.45,82.39c-.05-.03-.07-.06-.04-.11l.36-.76c.03-.05,.06-.07,.11-.04l4.99,2.35c.05,.02,.07,.06,.04,.11l-.36,.76c-.03,.05-.06,.07-.11,.04l-4.99-2.35Z"/><path class="f" d="M539.36,80.47c-.05-.02-.07-.05-.05-.11l.3-.78c.02-.06,.05-.07,.11-.05l4.36,1.66s.05,0,.07-.03l.95-2.48c.02-.06,.05-.07,.11-.05l.67,.26c.05,.02,.07,.05,.05,.11l-1.29,3.39c-.02,.06-.05,.07-.11,.05l-5.15-1.97Z"/><path class="f" d="M540.9,76.3c-.06-.01-.07-.05-.06-.1l.22-.81c.01-.06,.05-.08,.1-.06l4.5,1.21s.05,0,.06-.04l.69-2.57c.02-.06,.05-.08,.1-.06l.69,.19c.06,.01,.07,.05,.06,.1l-.94,3.51c-.01,.06-.05,.08-.1,.06l-5.33-1.43Z"/></g><g><path class="f" d="M456.81,40.68c-.91-.26-2.49-.33-3.76-.24l.2-1.28c1.26-.13,2.83-.11,3.78,.11l-.21,1.41Zm4.6-3.36c2.18-.07,4.73-.72,6.5-1.73,.04,.41,.24,1.06,.42,1.46-1.89,.88-4.46,1.43-6.82,1.48l4.72,3.02-.75,1.17-4.69-3c1.01,2.17,1.6,4.72,1.58,6.82-.41,0-1.06,.11-1.47,.22,.16-2.04-.35-4.66-1.29-6.65l-2.45,3.84-1.11-.71,2.97-4.65-4.48-2.87,.75-1.17,4.48,2.87,2.99-4.67,1.11,.71-2.46,3.85Zm-2.4-6.28c.63,1.24,1.32,2.72,1.67,3.79l-1.05,.67c-.41-1.07-1.21-2.57-1.89-3.56l1.27-.9Z"/><path class="f" d="M469.97,28.75c.19,.29,.49,.69,.68,.89-2.3,2.69-2.62,3.11-2.78,3.46-.19-.16-.72-.5-1.03-.67,.2-.27,.27-.71,.27-1.4,.05-.35,.05-1.13,0-2.1-1.07,1.07-1.29,1.34-1.39,1.56-.21-.16-.75-.53-1.09-.7,.16-.23,.17-.62,.12-1.18-.03-.54-.34-2.54-.93-4.17l1.34-.29c.37,1.44,.64,3.04,.69,4.44l1.13-1.04c-.05-.57-.15-1.16-.26-1.73l1.26-.14c.24,1.64,.33,3.41,.27,4.99l1.71-1.92Zm6.37-4.72c.14,1.28,.02,2.57-.3,3.87,.86,.48,1.52,.61,1.91,.3,.27-.21,.17-.56-.53-1.55,.39,.09,.88,.05,1.19-.02,.85,1.42,.82,2.02,.01,2.65-.75,.58-1.77,.47-2.96-.13-.41,1.22-1.02,2.42-1.74,3.54-.35-.14-.88-.3-1.3-.35,.84-1.2,1.52-2.51,1.99-3.82-.73-.5-1.51-1.14-2.27-1.87l-1.77,1.99-.88-.8,1.78-2.02c-.38-.39-.76-.79-1.14-1.2l-1.38,1.46-.91-.8,1.48-1.56c-.66-.75-1.31-1.53-1.94-2.33l1.04-.81c.59,.78,1.18,1.5,1.79,2.19l2.22-2.35,.9,.77-2.32,2.48c.37,.41,.75,.8,1.12,1.18l2.27-2.57,.86,.78-2.29,2.61c.63,.6,1.25,1.11,1.8,1.52,.22-.98,.3-1.96,.2-2.89l1.16-.28Zm-4.05,7.36c-.95,1.43-1.96,2.9-2.74,4.04l-.98-.82c.74-.96,1.82-2.47,2.89-3.96l.83,.74Zm-.41-10.49c-.58-.05-1.58,.03-2.31,.15l.18-1.02c.68-.16,1.69-.28,2.25-.25l-.12,1.12Z"/><path class="f" d="M490.06,23.09c.6-.2,.6-.53,.08-2.33,.36,.13,.99,.16,1.37,.12,.58,2.24,.41,2.94-.95,3.4l-2.28,.77c-1.5,.51-2.03,.24-2.49-1.15l-1.43-4.25-.12,.04c.32,2.76-.23,5.62-3.15,8.14-.28-.26-.79-.6-1.2-.76,2.65-2.18,3.26-4.59,3.08-6.95l-4.67,1.57-.41-1.22,4.89-1.65c-.17-.94-.43-1.84-.69-2.72l-4.29,1.45-.41-1.21,10.43-3.52,.41,1.21-4.87,1.64c.25,.89,.51,1.78,.69,2.72l5.82-1.96,.41,1.22-4.63,1.56,1.43,4.24c.17,.5,.31,.54,.95,.32l2.02-.68Z"/><path class="f" d="M498.23,12c-.42,1.15-.92,2.53-1.37,3.61,.91,1.18,1.11,2.17,1.1,3.03-.01,.82-.19,1.41-.61,1.72-.21,.15-.46,.23-.77,.27-.26,.02-.61,.02-.92,.01,0-.33-.1-.82-.29-1.15,.3,.02,.52,.04,.73,.03,.16,0,.3-.04,.41-.11,.2-.15,.28-.5,.28-.93,.01-.72-.2-1.66-1.09-2.74,.35-.93,.74-2.11,1.01-3.04l-1.74-.03-.18,11.19-1.15-.02,.2-12.37,3.34,.05,.18-.05,.86,.51Zm7.55,7.23c-.69,.54-1.55,1.09-2.26,1.51,.64,.94,1.46,1.69,2.5,2.15-.29,.25-.72,.77-.9,1.1-2.15-1.12-3.34-3.3-3.99-6.08l-1.15-.02-.07,4.34,2.27-.49c0,.37,0,.89,.05,1.19-2.84,.7-3.33,.87-3.63,1.06-.1-.3-.37-.83-.56-1.07,.24-.14,.59-.47,.6-1.08l.17-10.25,6.25,.1-.1,6.27-2.69-.04c.19,.65,.4,1.28,.69,1.88,.67-.46,1.46-1.04,1.95-1.51l.86,.93Zm-5.78-2.49l3.71,.06,.02-1.47-3.71-.06-.02,1.47Zm.07-3.98l-.02,1.43,3.71,.06,.02-1.43-3.71-.06Z"/><path class="f" d="M517.26,26.59c.5,.18,.69-.03,1.3-1.54,.2,.3,.65,.69,.95,.89-.84,1.85-1.36,2.23-2.57,1.79l-2.03-.75c-1.41-.52-1.64-1.01-1.19-2.22l1.03-2.82-.43-.16c-1.4,1.78-3.41,2.85-7.07,2.55-.01-.37-.15-.94-.32-1.3,3.13,.33,4.86-.43,6.05-1.75l-3.46-1.27,1.13-3.07c-.26,.09-.52,.17-.78,.24-.1-.35-.33-.94-.56-1.23,2.23-.53,4.09-1.67,5.27-2.71l1.26,.75c-.23,.2-.45,.38-.72,.57l3,1.1h.21l.66,.88c-.55,.46-1.28,.98-1.97,1.39l3.72,1.36-1.56,4.27-3.15-1.15-1.03,2.81c-.15,.41-.08,.51,.48,.72l1.77,.65Zm-3.54-6.27c.38-.6,.71-1.26,1.03-1.96l-2.83-1.04-.76,2.06,2.55,.94Zm.3-4.98c-.51,.33-1.06,.64-1.63,.91l3.18,1.16c.49-.26,1.03-.62,1.48-.96l-3.03-1.11Zm2.03,3.5c-.33,.68-.66,1.36-1.03,1.96l3.27,1.2,.76-2.06-2.99-1.1Z"/><path class="f" d="M527.36,30.15c-1.98,1.56-3.87,1.65-7.95-.95,.14-.31,.28-.87,.27-1.22,3.68,2.47,5.12,2.49,6.66,1.33l1.02,.84Zm-3.26-4.38c-.34-.14-.69-.3-1.05-.48,.09-.29,.16-.88,.12-1.19,1.53,.79,2.62,1.08,3.43,1.02l-1.93-1.6c.58-.46,1.39-1.17,2.02-1.78l.38,.32h0l1.87,1.53,.53-.64-2.61-2.15,.58-.7,2.61,2.15,.53-.64,.92,.76-.53,.64,1.51,1.24,.53-.64,.96,.79-.53,.64,2.31,1.91-1.7,2.05-2.31-1.91-.54,.65,2.98,2.46s-.17,.19-.28,.3c-.66,.67-1.04,.97-1.37,1.02-.28,.05-.53-.05-.76-.23-.21-.15-.58-.46-.97-.82,.15-.21,.31-.55,.38-.81,.27,.3,.53,.51,.64,.6,.12,.1,.19,.14,.31,.13,.1-.03,.23-.1,.47-.33l-1.96-1.62-.95,1.15-.96-.79,.95-1.15-1.87-1.54c-.72,.3-1.63,.35-2.82-.01l6.28,5.18-2.39,2.89-1.03-.85,1.69-2.05-4.96-4.09-1.78,2.15-.98-.81,2.27-2.75Zm2.34,5.7c1.07,1.42,2.44,3.52,3.06,4.76l-1.22,.32c-.56-1.19-1.88-3.35-2.95-4.84l1.1-.25Zm.49-8.35c-.22,.2-.43,.38-.65,.56l1.36,1.13c.26-.14,.48-.32,.69-.53l-1.41-1.16Zm3.85,3.18l-1.52-1.25c-.2,.22-.4,.4-.63,.58l1.6,1.32,.54-.65Zm-.92-1.95l1.51,1.24,.53-.64-1.51-1.24-.53,.64Zm3,1.39l-.53,.64,1.39,1.14,.53-.64-1.39-1.14Z"/><path class="f" d="M533.82,40.06c-1.29-.96-2.61-2-3.65-2.79l.89-.88c.87,.75,2.23,1.86,3.56,2.93l-.79,.74Zm3.33,3.38c-1.42,.26-3.15,0-5.2-1.46,.16-.28,.35-.84,.43-1.17,1.6,1.17,2.94,1.53,4.06,1.47l-1.58-2.62,.97-.58,1.79,2.97c.55-.16,1.02-.42,1.46-.68l1.35-.81,.62,1.03-1.38,.83c-.42,.26-.89,.5-1.4,.7l1.61,2.67-.97,.59-1.76-2.92Zm-.48-5.34c-.3,.16-.72,.45-.9,.61-2.44-2.31-2.83-2.64-3.18-2.8,.18-.17,.54-.61,.73-.87,.22,.22,.67,.31,1.33,.4,.34,.06,1.15,.12,2.11,.15-.89-1.15-1.12-1.39-1.33-1.51,.19-.18,.58-.63,.77-.91,.19,.18,.6,.22,1.16,.24,.54,.02,2.62-.08,4.31-.47l.14,1.24c-1.51,.25-3.18,.33-4.6,.25l.86,1.17c.57-.01,1.17-.04,1.74-.13v1.18c-1.56,.07-3.22,.05-4.71-.13l1.56,1.57Zm.5,6.12c-.07,1.28-.27,2.98-.56,3.89l-1.14-.3c.32-.9,.59-2.59,.67-3.9l1.03,.31Zm-.26-3.45c.14-.53,.24-1.49,.22-2.22l.87,.18c.04,.7-.01,1.65-.14,2.18l-.95-.15Zm1.64,.12c.14-.51,.19-1.41,.18-2.09l.85,.15c.04,.69,.01,1.58-.11,2.09l-.91-.14Zm2.11,2.18c.45-.07,1.05-.2,1.63-.37l-3.18-5.26,.96-.58,1.54,2.55,.94-.57-1.27-2.11,.94-.57,1.27,2.11,1.03-.62,.67,1.1-1.03,.62,1.33,2.21-.95,.57-1.33-2.21-.95,.57,1.19,1.96,.15,.16,.26,.82c-.98,.26-2.1,.54-2.89,.62l-.32-1Z"/></g><path class="g" d="M498.96,98.04c-19.19,0-34.79-15.61-34.79-34.79s15.61-34.79,34.79-34.79,34.79,15.61,34.79,34.79-15.61,34.79-34.79,34.79Zm0-67.4c-17.98,0-32.6,14.63-32.6,32.6s14.63,32.6,32.6,32.6,32.6-14.63,32.6-32.6-14.63-32.6-32.6-32.6Z"/></g><g><path class="g" d="M63.25,123.86C29.77,123.86,2.54,96.63,2.54,63.15S29.77,2.44,63.25,2.44s60.71,27.23,60.71,60.71-27.23,60.71-60.71,60.71Zm0-118.78C31.23,5.08,5.18,31.13,5.18,63.15s26.05,58.07,58.07,58.07,58.07-26.05,58.07-58.07S95.27,5.08,63.25,5.08Z"/><g><path class="f" d="M18.17,65.07c.06,0,.09,.02,.09,.08l.19,2.21c.1,1.22-.43,1.9-1.39,1.98-.58,.05-1.02-.15-1.3-.59h-.02c-.13,.43-.58,.85-1.24,.91-1.14,.09-1.78-.58-1.89-1.9l-.18-2.12c0-.06,.02-.09,.08-.09l5.66-.47Zm-4.71,1.43s-.05,.02-.05,.06l.11,1.24c.05,.57,.4,.87,.89,.83,.49-.04,.78-.4,.73-.97l-.11-1.24s-.02-.05-.06-.05l-1.52,.13Zm2.57,1.04c.05,.52,.38,.82,.84,.78,.47-.04,.74-.39,.7-.91l-.1-1.19s-.02-.05-.06-.05l-1.43,.12s-.05,.02-.05,.06l.1,1.19Z"/><path class="f" d="M14.29,70.99c.28-.16,.79-.32,1.54-.47,.75-.15,1.28-.21,1.61-.17,.96,.12,1.59,.76,1.8,1.78,.21,1.03-.12,1.87-.96,2.35-.28,.17-.79,.32-1.54,.47-.75,.15-1.28,.21-1.61,.17-.96-.11-1.59-.76-1.8-1.78-.21-1.02,.12-1.86,.96-2.34Zm.9,3.1c.22,.03,.67-.03,1.34-.17,.66-.14,1.1-.26,1.29-.37,.46-.28,.64-.69,.53-1.24-.11-.54-.44-.85-.97-.93-.22-.03-.67,.03-1.34,.16-.66,.14-1.1,.26-1.29,.37-.46,.28-.64,.69-.53,1.23,.11,.55,.44,.86,.97,.94Z"/><path class="f" d="M19.75,75.31c.06-.02,.09,0,.11,.06l.25,.76c.02,.06,.01,.11-.03,.17l-3.06,3.57v.03l3.83-1.27c.06-.02,.09,0,.11,.06l.24,.72c.02,.06,0,.09-.05,.11l-5.37,1.79c-.06,.02-.09,0-.11-.06l-.25-.76c-.02-.06-.01-.11,.03-.17l3.04-3.57v-.03l-3.82,1.27c-.06,.02-.09,0-.11-.06l-.24-.72c-.02-.06,0-.09,.05-.11l5.37-1.79Z"/><path class="f" d="M21.61,80.61c.06-.03,.09-.01,.11,.04l1.58,3.38c.03,.06,.02,.09-.04,.11l-.67,.31c-.05,.03-.09,.01-.11-.04l-1.16-2.48s-.04-.04-.07-.03l-1.29,.61s-.04,.04-.02,.07l.98,2.09c.03,.06,.01,.09-.04,.12l-.67,.31c-.05,.03-.09,.01-.11-.04l-.98-2.09s-.04-.04-.07-.03l-1.34,.63s-.04,.04-.03,.07l1.16,2.48c.03,.06,.01,.09-.04,.11l-.67,.31c-.06,.03-.09,.01-.11-.04l-1.58-3.38c-.03-.05-.02-.09,.04-.11l5.13-2.39Z"/><path class="f" d="M24.71,86.65c.05-.03,.09-.03,.12,.03l1.24,1.84c.69,1.02,.55,1.87-.25,2.4-.49,.33-.96,.37-1.42,.12h-.01c.1,.45-.1,1.03-.65,1.4-.95,.64-1.83,.35-2.58-.74l-1.19-1.76c-.03-.05-.03-.09,.02-.12l4.71-3.16Zm-3.42,3.54s-.03,.04-.02,.07l.7,1.03c.32,.47,.78,.56,1.18,.29,.41-.27,.49-.73,.17-1.2l-.7-1.03s-.04-.04-.07-.02l-1.26,.85Zm2.74-.34c.29,.44,.73,.53,1.11,.28,.39-.26,.46-.7,.17-1.13l-.67-.99s-.04-.03-.07-.02l-1.19,.8s-.03,.04-.01,.07l.67,.99Z"/><path class="f" d="M25.42,97.15s-.05-.1-.02-.16l.99-2.35-.67-.78s-.05-.03-.07,0l-1.7,1.45s-.08,.04-.12-.01l-.56-.65s-.04-.08,0-.12l4.32-3.69s.08-.04,.12,.01l1.5,1.75c.36,.42,.53,.87,.51,1.35-.01,.49-.21,.9-.6,1.23-.58,.49-1.32,.55-1.96,.18l-1,2.5c-.02,.07-.08,.07-.13,.03l-.63-.74Zm1.83-2.91c.36,.42,.85,.47,1.22,.16,.39-.33,.4-.82,.04-1.24l-.83-.96s-.05-.03-.07,0l-1.18,1.01s-.03,.05,0,.07l.83,.96Z"/><path class="f" d="M28.02,98.03c.14-.3,.46-.73,.98-1.28,.52-.56,.92-.92,1.21-1.07,.85-.47,1.74-.31,2.5,.39,.77,.71,.99,1.58,.58,2.47-.13,.3-.46,.73-.98,1.28-.52,.56-.92,.92-1.21,1.07-.85,.47-1.74,.31-2.51-.4-.76-.71-.98-1.58-.58-2.46Zm2.54,1.99c.2-.11,.53-.41,.99-.91,.46-.5,.74-.85,.84-1.05,.21-.5,.12-.94-.29-1.32-.4-.37-.85-.43-1.33-.19-.2,.11-.53,.41-.99,.91-.46,.5-.74,.85-.84,1.05-.21,.5-.12,.94,.29,1.31,.41,.38,.86,.44,1.34,.19Z"/><path class="f" d="M32.6,103.73s-.05-.07-.02-.12l2.87-3.85s.02-.05-.01-.07l-1.25-.93s-.05-.07-.02-.12l.44-.59s.07-.05,.12-.02l3.41,2.54s.06,.07,.02,.12l-.44,.59s-.07,.05-.12,.02l-1.25-.93s-.05-.02-.07,.01l-2.87,3.85s-.07,.05-.12,.02l-.69-.51Z"/><path class="f" d="M38.71,101.06c.03-.05,.07-.06,.12-.03l.74,.43c.05,.03,.06,.07,.03,.12l-1.16,1.99s-.01,.05,.02,.07l1.96,1.14s.05,.01,.07-.02l1.15-1.99c.03-.05,.07-.06,.12-.03l.74,.43c.05,.03,.06,.07,.03,.12l-2.84,4.9c-.03,.05-.07,.06-.12,.03l-.74-.43c-.05-.03-.06-.07-.03-.12l1.18-2.03s.01-.05-.02-.07l-1.96-1.14s-.05-.01-.07,.02l-1.18,2.03c-.03,.05-.07,.06-.12,.03l-.74-.43c-.05-.03-.06-.07-.03-.12l2.84-4.9Z"/><path class="f" d="M45.41,104.64c.02-.06,.05-.07,.11-.05l2.07,.79c1.15,.44,1.52,1.21,1.18,2.11-.2,.55-.56,.85-1.08,.91v.02c.33,.3,.51,.89,.28,1.51-.4,1.07-1.29,1.35-2.52,.88l-1.99-.76c-.06-.02-.07-.06-.05-.11l2-5.29Zm-.73,4.86s0,.05,.03,.07l1.16,.44c.53,.2,.96,.02,1.13-.44,.17-.46-.03-.87-.56-1.07l-1.16-.44s-.05,0-.07,.03l-.54,1.42Zm2.03-1.86c.49,.19,.9,.02,1.06-.41,.17-.44-.03-.84-.52-1.02l-1.11-.42s-.05,0-.07,.03l-.51,1.34s0,.05,.03,.07l1.11,.42Z"/><path class="f" d="M49.12,110.69c-.03-.33,.05-.86,.23-1.6,.19-.74,.37-1.25,.54-1.52,.52-.82,1.37-1.11,2.38-.86,1.02,.25,1.63,.91,1.71,1.88,.03,.32-.05,.86-.23,1.6-.18,.74-.37,1.25-.54,1.52-.52,.82-1.37,1.11-2.39,.86-1.01-.25-1.62-.91-1.7-1.87Zm3.18,.52c.12-.19,.26-.62,.43-1.27,.16-.66,.24-1.1,.22-1.32-.06-.54-.35-.88-.89-1.01-.54-.13-.95,.03-1.26,.47-.12,.19-.26,.62-.42,1.28-.17,.66-.24,1.1-.22,1.32,.06,.54,.35,.88,.89,1.01,.54,.14,.96-.03,1.26-.47Z"/><path class="f" d="M55.45,107.56c.01-.06,.04-.08,.1-.07l.85,.14c.06,.01,.08,.04,.07,.1l-.92,5.61c-.01,.06-.04,.08-.1,.07l-.85-.14c-.06,0-.08-.04-.07-.1l.92-5.61Z"/><path class="f" d="M57.61,107.92c0-.06,.03-.08,.09-.08l.86,.07c.06,0,.09,.03,.08,.09l-.4,4.78s.01,.05,.05,.06l2.72,.24c.06,0,.09,.03,.08,.09l-.06,.74c0,.06-.03,.08-.09,.08l-3.72-.32c-.06,0-.09-.03-.08-.09l.47-5.66Z"/><path class="f" d="M62.2,108.28c0-.06,.03-.09,.09-.09l3.74-.07c.06,0,.09,.02,.09,.08v.74c.02,.06-.01,.08-.07,.09l-2.74,.05s-.05,.02-.05,.05l.03,1.42s.02,.05,.05,.05l2.31-.04c.06,0,.09,.02,.09,.08l.02,.74c0,.06-.03,.08-.09,.09l-2.31,.04s-.05,.02-.05,.05l.03,1.48s.02,.05,.05,.05l2.74-.05c.06,0,.09,.02,.09,.08v.74c.02,.06-.01,.09-.07,.09l-3.74,.07c-.06,0-.09-.03-.09-.08l-.1-5.66Z"/><path class="f" d="M67.02,108.12c0-.06,.02-.09,.08-.1l2.11-.27c1.04-.13,1.74,.21,2.14,1.03,.14,.29,.26,.82,.35,1.6,.1,.78,.11,1.32,.06,1.63-.18,.9-.78,1.41-1.81,1.54l-2.11,.27c-.06,0-.09-.02-.1-.07l-.71-5.63Zm1.63,4.63s.03,.05,.06,.04l.88-.11c.65-.08,1.03-.38,1.13-.89,.05-.2,.03-.62-.05-1.28-.08-.66-.17-1.07-.27-1.25-.22-.46-.67-.66-1.32-.58l-.88,.11s-.05,.02-.05,.06l.49,3.89Z"/><path class="f" d="M74.21,106.93c-.02-.06,0-.09,.06-.11l3.58-1.05c.06-.02,.09,0,.11,.06l.2,.71c.02,.06,0,.09-.06,.11l-2.63,.77s-.05,.03-.04,.06l.41,1.43s.03,.05,.06,.04l2.21-.65c.06-.02,.09,0,.11,.06l.2,.71c.02,.06,0,.09-.06,.11l-2.21,.65s-.05,.03-.04,.06l.64,2.21c.02,.06,0,.09-.06,.11l-.82,.24c-.06,.02-.09,0-.11-.06l-1.58-5.45Z"/><path class="f" d="M80.44,109.66c-.22-.25-.47-.71-.76-1.42-.3-.71-.45-1.22-.47-1.55-.07-.97,.43-1.71,1.39-2.11,.97-.41,1.85-.25,2.48,.49,.22,.25,.47,.71,.76,1.42,.3,.71,.45,1.22,.47,1.54,.07,.97-.43,1.71-1.4,2.12-.96,.4-1.84,.24-2.48-.49Zm2.85-1.49c-.02-.22-.16-.65-.42-1.28-.26-.63-.47-1.03-.62-1.2-.36-.4-.8-.49-1.32-.28-.51,.21-.75,.59-.72,1.13,.02,.23,.16,.65,.42,1.28,.26,.63,.47,1.03,.62,1.2,.36,.4,.8,.49,1.31,.28,.52-.22,.75-.6,.73-1.14Z"/><path class="f" d="M89.37,106.8c-.05,.03-.1,.03-.16-.01l-2.11-1.43-.89,.5s-.04,.04-.02,.07l1.1,1.94c.03,.05,.02,.09-.03,.12l-.75,.42c-.05,.03-.09,.02-.12-.03l-2.79-4.95c-.03-.05-.02-.09,.03-.12l2-1.13c.48-.27,.95-.35,1.42-.24,.47,.11,.84,.39,1.09,.83,.37,.66,.29,1.4-.19,1.96l2.26,1.46c.06,.04,.06,.1,0,.13l-.84,.48Zm-2.5-2.35c.48-.27,.63-.74,.39-1.17-.25-.44-.72-.55-1.2-.28l-1.11,.63s-.04,.04-.02,.07l.77,1.36s.04,.04,.07,.02l1.11-.63Z"/><path class="f" d="M91.55,99.62h-.01l-.33,1.07c-.02,.07-.06,.08-.11,.02l-.54-.69s-.04-.08-.03-.13l.33-1.13c.02-.05,.05-.1,.09-.14l.59-.46s.09-.04,.12,.01l3.5,4.45s.03,.08-.02,.12l-.63,.5s-.09,.03-.12-.01l-2.84-3.61Z"/><path class="f" d="M96.83,100.39s-.05-.07-.05-.11l-.28-3.31c-.03-.4-.15-.71-.34-.91-.31-.32-.75-.35-1.11,0-.33,.32-.34,.72-.07,1.09,.04,.05,.02,.09-.02,.11l-.66,.43c-.05,.04-.09,.03-.12-.03-.24-.31-.34-.66-.32-1.07,.03-.41,.24-.8,.62-1.17,.39-.38,.81-.57,1.24-.56,.44,0,.82,.17,1.15,.51,.33,.34,.51,.79,.55,1.37l.19,2.69h.01l1.59-1.52s.08-.04,.12,0l.48,.5s.04,.08,0,.12l-2.41,2.33s-.08,.04-.12,0l-.45-.46Z"/><path class="f" d="M100.4,95.02s-.05-.02-.07,0l-.87,1.02s-.08,.05-.12,.01l-.51-.43s-.05-.07-.01-.12l.87-1.03s.02-.05,0-.07l-1.01-.85s-.05-.08-.01-.12l.46-.54s.08-.05,.12-.01l1.01,.85s.05,.02,.07,0l.87-1.02s.08-.05,.12-.01l.51,.43s.05,.07,.01,.12l-.87,1.03s-.02,.05,0,.07l1.01,.85s.05,.08,.01,.12l-.46,.54s-.08,.05-.12,.01l-1.01-.85Z"/><path class="f" d="M99.56,89.96c-.05-.03-.06-.07-.02-.12l.48-.71c.03-.05,.07-.06,.12-.03l1.91,1.28s.05,.02,.07-.02l1.26-1.89s.02-.05-.01-.07l-1.91-1.28c-.05-.03-.06-.07-.02-.12l.48-.72c.03-.05,.07-.06,.12-.02l4.71,3.16c.05,.03,.06,.07,.02,.12l-.47,.72c-.04,.05-.07,.06-.12,.02l-1.96-1.31s-.05-.02-.07,.02l-1.26,1.89s-.02,.05,.02,.07l1.96,1.31c.05,.04,.06,.07,.02,.12l-.48,.71c-.03,.05-.07,.06-.12,.03l-4.71-3.16Z"/><path class="f" d="M106.55,87.32c-.32-.05-.82-.24-1.5-.58-.68-.34-1.13-.63-1.36-.86-.68-.69-.78-1.58-.31-2.51,.47-.94,1.25-1.39,2.21-1.25,.32,.04,.82,.24,1.5,.58,.68,.34,1.13,.63,1.36,.86,.68,.69,.78,1.58,.3,2.52-.47,.93-1.25,1.38-2.2,1.24Zm1.21-2.99c-.16-.16-.54-.39-1.15-.7-.61-.3-1.02-.47-1.24-.51-.54-.06-.93,.15-1.18,.65-.25,.49-.18,.94,.18,1.33,.16,.16,.54,.39,1.15,.7,.61,.3,1.02,.47,1.24,.51,.54,.07,.93-.15,1.18-.64,.25-.5,.19-.94-.18-1.34Z"/><path class="f" d="M109.51,78.7l-3.47-1.25c-.06-.02-.07-.05-.05-.11l.29-.81c.02-.06,.05-.07,.11-.05l3.49,1.25c.62,.22,1.05,.59,1.27,1.11,.22,.52,.22,1.07,0,1.68-.22,.6-.58,1.03-1.08,1.28-.51,.26-1.07,.27-1.69,.04l-3.49-1.26c-.06-.02-.07-.05-.05-.11l.29-.81c.02-.06,.05-.07,.11-.05l3.47,1.25c.75,.27,1.34-.01,1.58-.66,.24-.66-.04-1.25-.78-1.52Z"/><path class="f" d="M113.08,73.42c-.01,.06-.05,.09-.11,.11l-2.48,.59-.23,1s0,.06,.04,.06l2.17,.51c.06,.01,.08,.05,.06,.1l-.2,.84c-.01,.06-.04,.08-.1,.07l-5.53-1.29c-.06-.01-.08-.04-.06-.1l.53-2.24c.13-.54,.39-.94,.79-1.21,.4-.28,.85-.36,1.35-.24,.74,.17,1.23,.74,1.31,1.47l2.61-.68c.07-.02,.11,.03,.09,.08l-.22,.95Zm-3.42,.25c.13-.54-.12-.96-.6-1.07-.5-.11-.89,.16-1.02,.7l-.29,1.24s0,.06,.04,.06l1.52,.35s.05,0,.06-.04l.29-1.24Z"/><path class="f" d="M113.49,70.27c-.19,.38-.41,.67-.66,.88-.05,.04-.09,.04-.13,0l-.55-.61s-.04-.08,0-.12c.47-.48,.74-.99,.8-1.54,.08-.69-.2-1.15-.71-1.21-.44-.05-.73,.2-.92,.99l-.08,.31c-.3,1.17-.91,1.7-1.86,1.59-1.06-.13-1.66-.99-1.52-2.21,.09-.76,.36-1.37,.8-1.84,.04-.04,.08-.04,.12,0l.58,.49s.04,.08,.01,.13c-.35,.43-.56,.89-.62,1.36-.07,.59,.2,.97,.67,1.02,.42,.05,.73-.29,.91-1l.08-.31c.3-1.16,.92-1.68,1.88-1.57,1.07,.13,1.71,1.01,1.55,2.44-.05,.43-.16,.83-.35,1.2Z"/></g><g><path class="f" d="M20.14,43.32l-1.67,5.55,6.36,1.91-.42,1.41-6.36-1.91-1.65,5.47-1.34-.4,1.65-5.47-5.08-1.53,.42-1.41,5.08,1.53,1.67-5.55,1.34,.4Z"/><path class="f" d="M24.6,28.48l1.18,.87-6.12,8.37-1.18-.87,6.12-8.37Zm7.54,4.02l1.24,.91-7.55,10.32-1.24-.91,7.55-10.32Z"/><path class="f" d="M32.57,23.72c.81,2.07,1.63,4.74,1.48,6.84-.4-.02-1.08,0-1.46,.06,.17-1.96-.61-4.47-1.43-6.25l1.41-.64Zm1-5.07l6.42,9.31c.51,.74,.56,1.2,.23,1.71-.35,.51-1.1,1.07-2.24,1.87-.29-.29-.86-.68-1.27-.89,.86-.54,1.71-1.13,1.96-1.31,.23-.18,.28-.32,.12-.54l-6.43-9.31,1.21-.83Zm4.49,.75c2.14,.96,4.61,2.44,5.9,3.66l-.82,1.32c-1.22-1.23-3.68-2.8-5.84-3.83l.76-1.16Z"/><path class="f" d="M50.62,22l-3.31,.9,.3,1.12-1.22,.33-2.78-10.29,4.53-1.22,2.48,9.17Zm-5.47-7.09l.75,2.77,2.09-.57-.75-2.76-2.09,.56Zm3.93,6.26l-.78-2.91-2.09,.57,.78,2.91,2.09-.56Zm7.67-7.6l-1.57,.42,1.9,7.05c.23,.87,.11,1.31-.37,1.65-.51,.36-1.42,.65-2.82,1.02-.17-.35-.52-.88-.82-1.19,1.03-.25,2.07-.53,2.38-.61,.28-.09,.37-.2,.29-.5l-1.9-7.05-4.35,1.17-.35-1.29,4.35-1.17-.7-2.6,1.33-.36,.7,2.6,1.57-.42,.35,1.29Zm-3.54,6.21c-.66-.71-1.96-1.9-2.96-2.76l.92-.85c1,.81,2.33,1.93,3.01,2.62l-.97,.99Z"/><path class="f" d="M66.51,21.91c.69-.46,1.6-1.29,2.23-2.07l1.19,.65c-.65,.79-1.57,1.74-2.34,2.32l-1.09-.89Zm14.16-6.54c-.72,1.5-1.56,2.66-2.6,3.55,.49,.83,1.17,1.6,2.16,2.22-.32,.19-.81,.64-1.06,.98-.95-.71-1.63-1.56-2.12-2.48-.89,.54-1.9,.92-3.01,1.15-.08-.3-.36-.93-.57-1.23,1.19-.16,2.21-.52,3.09-1.09-.33-.95-.48-1.94-.54-2.87-.27,.25-.56,.46-.86,.65-.04-.15-.14-.35-.25-.58l-.19,.78-3.19-.76c-.09,.23-.19,.48-.29,.7l2.86,.68s-.08,.29-.14,.45c-.49,1.48-.8,2.14-1.15,2.36-.27,.18-.52,.21-.88,.15-.29-.04-.86-.16-1.42-.34,.06-.3,.04-.74-.03-1.05,.48,.17,.95,.29,1.13,.33,.2,.05,.31,.06,.41-.02,.16-.1,.34-.43,.62-1.22l-1.87-.45c-.63,1.02-1.5,1.78-2.91,2.13-.07-.33-.3-.87-.53-1.15,1.67-.35,2.4-1.48,2.92-2.88l-2.05-.49,.24-.99,2.69,.65,.21-.87-2.02-.49,.24-1.02,2.02,.49,.18-.77-2.26-.54,.22-.92,2.26,.54,.22-.92,1.25,.3-.22,.92,2.39,.57-.22,.92-2.39-.57-.18,.77,2.11,.51-.25,1.02-2.11-.51-.21,.86,2.38,.57c-.08-.16-.17-.31-.23-.42,1.26-.76,2.39-2.15,3.2-3.75l1.18,.58c-.32,.58-.67,1.16-1.03,1.68l3.82,.92-.27,1.13-.78-.19Zm-8.36,5.66c-.06,.79-.16,1.84-.24,2.44l-1.36-.15c.12-.63,.25-1.69,.33-2.5l1.27,.2Zm2.9,.56c.09,.83,.2,1.92,.22,2.57l-1.39-.08c.02-.63-.05-1.75-.16-2.6l1.32,.11Zm2.93,.46c.38,.93,.9,2.22,1.14,2.98l-1.45,.13c-.2-.75-.67-2.06-1.06-3.02l1.37-.09Zm-1.1-7.46c0,1,.13,2.1,.48,3.12,.74-.69,1.35-1.58,1.88-2.65l-2.29-.55-.06,.07Z"/><path class="f" d="M88.4,20.9l2.81,1.83-.67,1.04-2.81-1.83-.71,1.08,2.44,1.59-2.09,3.21c-.3,.46-.57,.71-.99,.67-.43-.03-.9-.32-1.53-.75,.16-.3,.3-.8,.32-1.16,.43,.3,.8,.54,.93,.61,.12,.08,.18,.07,.26-.06l1.41-2.17-1.42-.92-2.74,4.22-1.07-.7,2.75-4.22-1.33-.86-2.12,3.26-1.01-.66,2.78-4.27,2.34,1.52,.7-1.09-2.87-1.87,.67-1.04,.84,.55c-.15-.29-.49-.74-.7-1.01,1.06-.46,2.25-1.4,3.23-2.41l.92,.91c-.36,.34-.74,.68-1.1,1l1.06,.69,1.05-1.62,1.07,.7-1.05,1.62,2.33,1.51-.67,1.03-2.33-1.52-.72,1.11Zm-1.07-.7l.72-1.11-1.43-.93c-.43,.31-.87,.58-1.26,.76l1.97,1.28Zm10.25,1.46l-6.23,9.58c-.45,.68-.8,.91-1.33,.84-.52-.06-1.22-.48-2.13-1.07,.15-.34,.33-.96,.39-1.4,.67,.47,1.33,.9,1.54,1.02,.2,.13,.3,.11,.42-.09l6.24-9.59,1.1,.71Zm-7.17,6.22l-1.05-.68,4.39-6.75,1.05,.68-4.39,6.75Z"/><path class="f" d="M92.6,32.22c1.05,1.14,2.67,2.86,4.24,4.49l-.87,.71c-1.52-1.51-3.09-3.12-4.23-4.3l.86-.9Zm5.63-3.67c.05-.31,.07-.74,.03-1.01,1.68,.13,3.42-.33,4.67-.88l.6,1.04c-.34,.13-.68,.26-1.05,.37l1.26,1.63,.19,.15v.89c-.69,.16-1.52,.28-2.27,.33l.76,.99-5.08,3.93-3.27-4.23,4.16-3.22Zm-2.68,3.4l.69,.9,1.32-1.02-.69-.9-1.32,1.02Zm6.3,9.8l-1.71-2.21-2.63,2.04-.78-1.01,2.63-2.04-1.77-2.29,.95-.74,1.77,2.29,1.46-1.13-1.47-1.89,.91-.7,1.47,1.9,1.51-1.17-1.63-2.1,.93-.72,2.21,2.86c.84-.12,1.95-.4,2.69-.65l.52,1.14c-.81,.19-1.72,.36-2.47,.46l1.01,1.31-.93,.72-1.55-2.01-1.51,1.17,1.41,1.82-.91,.7-1.41-1.82-1.46,1.13,1.71,2.21-.95,.74Zm-3-8.27l-.72-.93-1.32,1.02,.72,.93,1.32-1.02Zm-1.19-3.16l.69,.9,1.3-1.01-.69-.9-1.3,1.01Zm3.27,1.54l-.72-.93-1.3,1,.72,.93,1.3-1.01Zm.45-3.47c-.51,.12-1.06,.22-1.59,.28l1.17,1.52c.46-.05,1.05-.16,1.57-.3l-1.16-1.49Zm3.07,4.61c.35-.45,.78-1.27,1.03-1.94l.87,.54c-.24,.66-.63,1.48-.97,1.93l-.94-.52Z"/><path class="f" d="M104.17,54.08c-.61,.2-.96,.17-1.27-.23-.33-.38-.56-1.1-.91-2.15,.29-.16,.67-.47,.91-.71,.21,.73,.46,1.47,.54,1.66,.09,.22,.17,.27,.34,.21l.86-.28-1.89-5.7-2.13,.71-.4-1.22,6.75-2.24,2.71,8.14-5.49,1.83Zm1.41-1.83l.88-.29-1.89-5.7-.88,.29,1.89,5.7Zm6.47,1.16l-2.75,.91-.4-1.2,1.66-.55-3.08-9.27-1.66,.55-.38-1.14,2.75-.91,.63,1.89,3.55-1.18,2.59,7.78-3.55,1.18,.65,1.95Zm-5.7-7.75l-.87,.29,1.9,5.7,.87-.29-1.89-5.7Zm2.87-.76l.82,2.46,.97-.32-.82-2.46-.97,.32Zm2.54-.84l-.75,.25,1.19,3.59-1.79,.6,.56,1.67,2.54-.84-1.75-5.26Z"/></g><path class="g" d="M63.25,98.91c-19.72,0-35.76-16.04-35.76-35.76S43.53,27.39,63.25,27.39s35.76,16.04,35.76,35.76-16.04,35.76-35.76,35.76Zm0-69.26c-18.47,0-33.51,15.03-33.51,33.51s15.03,33.51,33.51,33.51,33.51-15.03,33.51-33.51-15.03-33.51-33.51-33.51Z"/><rect class="g" x="62.86" y="8.5" width=".78" height="12.4"/><path class="g" d="M63.25,84.08c-11.54,0-20.93-9.39-20.93-20.93,0-.62,.5-1.13,1.13-1.13s1.13,.5,1.13,1.13c0,10.3,8.38,18.68,18.68,18.68s18.68-8.38,18.68-18.68-8.38-18.68-18.68-18.68c-.62,0-1.13-.5-1.13-1.13s.5-1.13,1.13-1.13c11.54,0,20.93,9.39,20.93,20.93s-9.39,20.93-20.93,20.93Z"/><path class="g" d="M63.25,64.18c-.57,0-1.03-.46-1.03-1.03v-7.35c0-.57,.46-1.03,1.03-1.03s1.03,.46,1.03,1.03v7.35c0,.57-.46,1.03-1.03,1.03Z"/><path class="g" d="M75.12,64.42h-11.87c-.57,0-1.03-.46-1.03-1.03s.46-1.03,1.03-1.03h11.87c.57,0,1.03,.46,1.03,1.03s-.46,1.03-1.03,1.03Z"/><path class="g" d="M42.76,55.1l-4.1,7.11c-.3,.53,.08,1.18,.68,1.18h8.2c.61,0,.99-.66,.68-1.18l-4.1-7.11c-.3-.53-1.06-.53-1.37,0Z"/></g><g><path class="g" d="M208.8,122.23c-32.57,0-59.08-26.5-59.08-59.08S176.23,4.08,208.8,4.08s59.08,26.5,59.08,59.08-26.5,59.08-59.08,59.08Zm0-115.58c-31.16,0-56.51,25.35-56.51,56.51s25.35,56.51,56.51,56.51,56.51-25.35,56.51-56.51S239.96,6.65,208.8,6.65Z"/><path class="g" d="M208.8,97.95c-19.19,0-34.79-15.61-34.79-34.8s15.61-34.8,34.79-34.8,34.79,15.61,34.79,34.8-15.61,34.8-34.79,34.8Zm0-67.4c-17.98,0-32.6,14.63-32.6,32.6s14.63,32.6,32.6,32.6,32.6-14.63,32.6-32.6-14.63-32.6-32.6-32.6Z"/><rect class="f" x="208.42" y="11.37" width=".76" height="12.06"/><g><path class="g" d="M208.88,88.28c-3.43-.05-5.97-.8-7.77-2.27l-.19-.16-.25-.02c-2.64-.27-5.17-1.87-7.14-4.5-2.04-2.71-3.45-6.46-3.97-10.53-.08-.64-.52-1.17-1.14-1.39-3.74-1.3-6.26-4.84-6.26-8.81,0-1.67,.45-3.32,1.31-4.76,.62-1.04,1.42-1.94,2.38-2.67,.3-.26,.44-.59,.4-.93-.09-.54-.13-1.07-.12-1.61,.04-2.36,.99-4.58,2.67-6.26,1.69-1.68,3.91-2.61,6.27-2.63,1.86,0,3.56,.5,5.07,1.5l.43,.29,.44-.28c2.24-1.4,4.9-2.13,7.7-2.13,2.96,0,5.74,.81,8.03,2.34l.47,.32,.46-.33c1.54-1.12,3.37-1.71,5.3-1.71,2.4,.02,4.64,.95,6.32,2.62,1.69,1.68,2.64,3.9,2.68,6.27,0,.34-.01,.7-.06,1.12-.07,.65,.18,1.28,.68,1.71,2.12,1.78,3.33,4.39,3.33,7.14,0,1.95-.6,3.82-1.72,5.4-1.1,1.54-2.62,2.71-4.4,3.37-.71,.26-1.2,.88-1.3,1.6-.55,4.09-1.98,7.82-4.05,10.5-2.17,2.82-4.94,4.38-7.79,4.41h-.3l-.23,.2c-1.7,1.48-4.05,2.23-6.97,2.23h-.29Zm-6.82-4.18c1.41,1.38,3.65,2.07,6.86,2.13h.25c2.71,0,4.69-.69,6.07-2.13l.34-.35,.48,.04c.17,.02,.35,.02,.53,.02,2.87,0,4.99-1.96,6.25-3.61,1.85-2.41,3.14-5.79,3.65-9.53,.2-1.48,1.2-2.72,2.63-3.25,2.86-1.05,4.78-3.8,4.78-6.85,0-2.16-.95-4.19-2.6-5.58-1.02-.86-1.55-2.16-1.4-3.49,.03-.3,.05-.59,.04-.88-.06-3.76-3.17-6.84-6.94-6.86-1.9,0-3.68,.73-5,2.07l-.67,.68-.72-.62c-2.04-1.74-4.92-2.75-7.89-2.75s-5.51,.88-7.55,2.48l-.67,.53-.64-.58c-1.29-1.17-2.96-1.81-4.7-1.81h-.06c-3.76,.03-6.87,3.11-6.92,6.88-.01,.38,.02,.8,.09,1.23,.18,1.11-.27,2.22-1.17,2.9-.74,.56-1.37,1.26-1.86,2.08-.67,1.12-1.02,2.41-1.02,3.73,0,3.1,1.96,5.87,4.88,6.89,1.36,.47,2.31,1.64,2.5,3.06,.48,3.74,1.75,7.14,3.58,9.56,1.25,1.66,3.33,3.65,6.2,3.72h.4l.29,.29Z"/><path class="g" d="M209,88.28c-5.11-.08-8.37-1.75-9.93-5.12-1.37-2.95-1.36-6.81-1.34-11.28v-1.6c0-.65-.36-1.18-.95-1.4-1.79-.69-3.32-1.9-4.43-3.49-1.13-1.63-1.73-3.54-1.73-5.53,0-1.71,.45-3.39,1.31-4.86,.83-1.43,2.02-2.63,3.43-3.47,.38-.22,.63-.59,.69-1.02,.39-2.61,1.92-5,4.29-6.73,2.35-1.71,5.36-2.66,8.49-2.66s6.12,.94,8.46,2.64c2.37,1.72,3.9,4.1,4.32,6.7,.08,.44,.33,.8,.71,1.01,2.99,1.73,4.85,4.94,4.85,8.39,0,3.91-2.33,7.42-5.94,8.93-.57,.24-.92,.78-.9,1.37v.13c0,2.96-.07,6.07-.56,8.75-.54,2.97-1.55,5.15-3.08,6.66-1.75,1.72-4.24,2.59-7.39,2.59h-.29Zm-.16-45.13c-5.47,0-10.1,3.29-10.77,7.66-.15,1.02-.76,1.92-1.67,2.46-2.31,1.37-3.74,3.89-3.74,6.57,0,3.17,1.91,5.97,4.87,7.12,1.37,.53,2.25,1.82,2.25,3.27,0,.56,0,1.08,0,1.6-.02,4.25-.03,7.91,1.15,10.45,.83,1.79,2.5,3.86,8.12,3.94h.26c2.63,0,4.57-.65,5.94-2,2.8-2.76,3.04-8.41,3.04-13.96v-.14c0-1.42,.84-2.69,2.16-3.24,2.85-1.19,4.69-3.96,4.69-7.05,0-2.72-1.47-5.26-3.83-6.62-.92-.53-1.54-1.43-1.7-2.46-.7-4.33-5.32-7.59-10.76-7.59Z"/><g><path class="g" d="M209.03,87.77c-.56,0-1.02-.4-1.02-.9v-28.67c0-.5,.46-.9,1.02-.9s1.02,.4,1.02,.9v28.67c0,.5-.46,.9-1.02,.9Z"/><path class="g" d="M209.03,88.21c-.82,0-1.48-.6-1.48-1.34v-28.67c0-.74,.66-1.34,1.48-1.34s1.48,.6,1.48,1.34v28.67c0,.74-.67,1.34-1.48,1.34Zm0-30.47c-.31,0-.57,.21-.57,.46v28.67c0,.25,.25,.46,.57,.46s.57-.21,.57-.47v-28.67c0-.25-.26-.46-.57-.46Z"/></g><path class="g" d="M209.89,65.55c-.57,0-1.09-.34-1.33-.86-.33-.72,0-1.59,.72-1.92l5.12-2.32c.19-.09,.39-.13,.6-.13,.57,0,1.09,.33,1.33,.85,.33,.73,0,1.59-.72,1.92l-5.12,2.32c-.19,.08-.4,.13-.6,.13Z"/><path class="g" d="M209.89,65.28c-.46,0-.89-.28-1.09-.7-.27-.59,0-1.29,.59-1.56l5.12-2.32c.15-.07,.32-.11,.49-.11,.46,0,.89,.27,1.08,.69,.27,.59,0,1.29-.59,1.56l-5.12,2.32c-.15,.07-.33,.11-.48,.11Z"/><path class="g" d="M208.55,65.55c-.21,0-.41-.04-.59-.13l-5.12-2.33c-.73-.33-1.05-1.19-.72-1.92,.24-.52,.76-.85,1.33-.85,.21,0,.41,.04,.6,.13l5.12,2.32c.35,.16,.62,.45,.76,.81,.14,.36,.12,.76-.04,1.11-.24,.52-.76,.85-1.33,.85Z"/><path class="g" d="M208.55,65.28c-.17,0-.33-.03-.48-.1l-5.13-2.33c-.59-.27-.86-.97-.59-1.56,.19-.42,.62-.69,1.08-.69,.17,0,.33,.04,.48,.1l5.12,2.33c.28,.13,.5,.36,.61,.66,.11,.29,.1,.62-.03,.9-.2,.42-.62,.69-1.08,.69Z"/><path class="g" d="M209.89,77.22c-.46,0-.89-.28-1.09-.7-.27-.59,0-1.29,.59-1.56l5.12-2.32c.15-.07,.32-.11,.49-.11,.46,0,.89,.27,1.08,.69,.27,.59,0,1.29-.59,1.56l-5.12,2.32c-.15,.07-.33,.11-.48,.11Z"/><path class="g" d="M208.55,77.22c-.17,0-.33-.03-.48-.1l-5.13-2.33c-.59-.27-.86-.97-.59-1.56,.19-.42,.62-.69,1.08-.69,.17,0,.33,.04,.48,.1l5.12,2.33c.28,.13,.5,.36,.61,.66,.11,.29,.1,.62-.03,.9-.2,.42-.62,.69-1.08,.69Z"/></g></g><g><path class="f" d="M167.09,76.91c.05-.02,.09,0,.11,.05l.29,.78c.02,.06,0,.09-.05,.11l-4.37,1.63s-.04,.03-.03,.07l.93,2.49c.02,.06,0,.09-.05,.11l-.67,.25c-.05,.02-.09,0-.11-.05l-1.27-3.4c-.02-.06,0-.09,.05-.11l5.17-1.93Z"/><path class="f" d="M164.8,82.95c.22-.23,.66-.51,1.33-.84,.66-.33,1.15-.52,1.47-.57,.93-.14,1.69,.3,2.14,1.21,.46,.91,.36,1.78-.3,2.45-.22,.23-.66,.5-1.33,.84-.67,.33-1.15,.52-1.47,.57-.93,.14-1.69-.3-2.15-1.22-.46-.91-.36-1.77,.31-2.44Zm1.64,2.68c.22-.03,.62-.2,1.21-.49,.59-.3,.96-.52,1.12-.68,.36-.38,.42-.81,.18-1.3-.24-.48-.63-.69-1.15-.62-.22,.03-.62,.2-1.21,.49-.59,.3-.96,.52-1.12,.68-.36,.38-.42,.81-.18,1.29,.24,.49,.63,.69,1.15,.63Z"/><path class="f" d="M168.62,86.92c.61-.4,1.07-.63,1.37-.71,.93-.25,1.72,.09,2.27,.92,.5,.77,.51,1.6,.05,2.31-.03,.04-.07,.05-.11,.02l-.68-.42s-.06-.06-.03-.12c.29-.46,.3-.9,.03-1.31-.28-.44-.68-.58-1.2-.46-.21,.06-.59,.26-1.14,.62-.55,.36-.89,.62-1.03,.79-.32,.42-.35,.85-.06,1.28,.27,.41,.67,.58,1.21,.51,.06-.01,.09,.01,.1,.07l.11,.79s0,.08-.06,.09c-.83,.13-1.59-.2-2.09-.98-.54-.84-.53-1.7,.07-2.45,.2-.25,.6-.57,1.2-.97Z"/><path class="f" d="M174.59,90.62c.05-.02,.1-.01,.13,.03l.5,.61s.04,.09,0,.14l-3.02,5.02c-.03,.05-.06,.05-.1,0l-.53-.65s-.04-.09,0-.14l.61-1-1.38-1.69-1.1,.4c-.06,.02-.1,.01-.14-.03l-.52-.64s-.03-.08,.03-.1l5.52-1.97Zm-2.92,2.02l.99,1.21,1.22-2-.02-.02-2.2,.8Z"/><path class="f" d="M176.87,93.29s.08-.04,.12,0l.6,.58s.04,.08,0,.12l-3.27,3.33s-.02,.05,0,.07l1.9,1.86s.04,.08,0,.12l-.5,.51s-.08,.04-.12,0l-2.59-2.54s-.04-.08,0-.12l3.87-3.93Z"/><path class="f" d="M178.84,102.4c-.23-.34-.37-.67-.43-.99,0-.06,0-.1,.06-.11l.78-.18c.06,0,.09,0,.1,.06,.18,.63,.49,1.1,.92,1.41,.55,.4,1.07,.38,1.36-.02,.26-.35,.18-.72-.39-1.26l-.22-.21c-.85-.82-1-1.59-.46-2.34,.61-.84,1.63-.94,2.59-.23,.6,.44,.99,.96,1.18,1.56,.01,.05-.01,.09-.05,.1l-.69,.26c-.05,.01-.09,0-.11-.05-.2-.51-.48-.9-.86-1.18-.47-.34-.91-.29-1.18,.08-.24,.33-.1,.75,.41,1.25l.22,.21c.84,.8,.99,1.58,.43,2.35-.61,.85-1.67,.97-2.8,.14-.34-.24-.62-.53-.85-.88Z"/><path class="f" d="M183.27,104.09c.06-.31,.27-.79,.64-1.44,.37-.65,.67-1.07,.91-1.28,.7-.63,1.58-.68,2.46-.18,.89,.5,1.29,1.28,1.11,2.21-.06,.31-.27,.79-.64,1.44-.37,.65-.67,1.07-.91,1.28-.7,.63-1.57,.68-2.46,.18-.88-.5-1.28-1.28-1.1-2.2Zm2.85,1.32c.16-.15,.41-.51,.73-1.08,.33-.57,.51-.97,.56-1.19,.09-.52-.1-.91-.57-1.18-.47-.26-.9-.22-1.3,.12-.16,.15-.41,.51-.73,1.08-.33,.57-.51,.97-.56,1.18-.09,.52,.1,.91,.57,1.18,.48,.27,.91,.23,1.31-.11Z"/><path class="f" d="M191.47,107.36l1.39-3.31c.02-.05,.06-.07,.11-.04l.77,.32c.05,.02,.07,.06,.05,.11l-1.39,3.32c-.25,.59-.63,.99-1.14,1.18-.51,.19-1.06,.16-1.64-.08-.57-.24-.97-.61-1.2-1.11-.22-.5-.21-1.05,.04-1.64l1.39-3.32c.02-.05,.06-.07,.11-.04l.77,.32c.05,.02,.07,.06,.05,.11l-1.39,3.31c-.3,.71-.06,1.3,.56,1.56,.63,.26,1.22,.02,1.52-.69Z"/><path class="f" d="M196.35,111.07c-.06-.02-.09-.05-.1-.12l-.45-2.44-.96-.28s-.05,0-.06,.03l-.6,2.08c-.02,.06-.05,.07-.1,.06l-.8-.23c-.06-.02-.07-.05-.06-.1l1.52-5.31c.01-.06,.05-.07,.1-.06l2.15,.62c.52,.15,.89,.42,1.14,.82,.25,.4,.31,.84,.17,1.32-.2,.71-.77,1.15-1.49,1.2l.53,2.56c.02,.07-.03,.1-.09,.09l-.91-.26Zm-.08-3.34c.52,.15,.94-.07,1.07-.53,.14-.47-.11-.88-.63-1.02l-1.19-.34s-.05,0-.06,.03l-.42,1.45s0,.05,.04,.06l1.19,.34Z"/><path class="f" d="M198.93,108.78c.12-.72,.26-1.21,.41-1.49,.45-.85,1.23-1.21,2.22-1.04,.91,.16,1.52,.72,1.73,1.54,0,.05-.01,.08-.06,.09l-.77,.22c-.05,.02-.09,0-.1-.06-.14-.52-.46-.82-.94-.91-.51-.09-.89,.1-1.15,.57-.1,.19-.21,.61-.32,1.26-.11,.65-.15,1.08-.12,1.3,.09,.52,.39,.83,.9,.92,.49,.08,.88-.1,1.19-.54,.04-.05,.07-.06,.12-.02l.66,.46s.05,.06,.03,.11c-.47,.7-1.23,1.03-2.14,.87-.98-.17-1.61-.77-1.75-1.72-.05-.31-.01-.83,.11-1.54Z"/><path class="f" d="M204.19,106.83c0-.06,.03-.08,.09-.08l3.62,.23c.06,0,.08,.03,.08,.09l-.05,.72c0,.06-.03,.08-.09,.08l-2.65-.17s-.05,.01-.05,.05l-.09,1.38s.01,.05,.05,.05l2.24,.14c.06,0,.08,.03,.08,.09l-.05,.72c0,.06-.03,.08-.09,.08l-2.24-.14s-.05,.01-.05,.05l-.09,1.43s.01,.05,.05,.05l2.65,.17c.06,0,.08,.03,.08,.09l-.05,.72c0,.06-.03,.08-.09,.08l-3.62-.23c-.06,0-.08-.03-.08-.09l.35-5.5Z"/><path class="f" d="M208.76,107.07c0-.06,.02-.08,.08-.09l2.07-.09c1.01-.05,1.67,.34,1.99,1.17,.11,.29,.18,.81,.22,1.57,.03,.76,0,1.29-.07,1.58-.24,.86-.86,1.3-1.88,1.35l-2.07,.09c-.06,0-.09-.02-.09-.08l-.24-5.51Zm1.21,4.61s.02,.05,.05,.05l.86-.04c.64-.03,1.03-.29,1.17-.77,.06-.19,.08-.6,.05-1.24-.03-.64-.08-1.05-.16-1.23-.18-.47-.59-.69-1.23-.66l-.86,.04s-.05,.02-.05,.05l.17,3.81Z"/><path class="f" d="M215.81,106.48c-.01-.06,.01-.09,.07-.1l.82-.14c.06-.01,.09,.01,.1,.07l.93,5.44c.01,.06-.01,.09-.07,.1l-.82,.14c-.06,.01-.09-.01-.1-.07l-.93-5.44Z"/><path class="f" d="M217.87,106.14c-.01-.06,0-.09,.06-.1l.76-.2c.06-.01,.11,0,.16,.04l3.28,3.19h.03l-1-3.8c-.01-.06,0-.09,.06-.1l.72-.19c.06-.01,.09,0,.1,.06l1.4,5.34c.01,.06,0,.09-.06,.1l-.75,.2c-.06,.01-.11,0-.16-.04l-3.29-3.18h-.03l.99,3.79c.01,.06,0,.09-.06,.1l-.72,.19c-.06,.01-.09,0-.1-.06l-1.4-5.34Z"/><path class="f" d="M223.88,107.35c-.27-.69-.42-1.19-.43-1.51-.05-.94,.46-1.66,1.42-2.04,.95-.38,1.82-.16,2.32,.38,.04,.04,.04,.08,.01,.12l-.55,.55s-.08,.03-.12,0c-.42-.34-.87-.41-1.34-.22-.52,.2-.76,.57-.74,1.09,.01,.22,.14,.64,.38,1.25,.24,.61,.43,1.01,.57,1.18,.35,.39,.77,.49,1.29,.29,.48-.19,.79-.6,.76-1.07-.01-.19-.07-.43-.18-.72-.01-.03-.03-.04-.07-.03l-.89,.35c-.05,.02-.09,0-.11-.05l-.24-.62c-.02-.05,0-.09,.05-.11l1.78-.7c.05-.02,.09,0,.11,.05l.18,.46c.21,.52,.32,.92,.33,1.21,.06,.92-.46,1.68-1.39,2.05-.96,.38-1.82,.21-2.43-.51-.21-.24-.44-.71-.72-1.4Z"/><path class="f" d="M233.29,106.17c-.05,.03-.1,.03-.15-.01l-2.02-1.43-.88,.47s-.04,.04-.02,.07l1.02,1.91c.03,.05,.02,.09-.04,.11l-.74,.39c-.05,.03-.09,.02-.11-.03l-2.61-4.86c-.03-.05-.02-.09,.03-.11l1.98-1.06c.47-.25,.93-.32,1.39-.2,.46,.12,.81,.39,1.04,.83,.35,.65,.25,1.37-.23,1.9l2.17,1.46c.06,.04,.05,.1,0,.12l-.83,.45Zm-2.39-2.34c.47-.25,.63-.71,.4-1.13-.23-.43-.69-.55-1.17-.3l-1.09,.58s-.04,.04-.02,.07l.72,1.33s.04,.04,.07,.02l1.09-.58Z"/><path class="f" d="M232.15,100.34s-.03-.08,.02-.12l2.99-2.06s.08-.03,.12,.02l.41,.59s.03,.08-.02,.12l-2.19,1.51s-.03,.04-.01,.07l.79,1.14s.04,.03,.07,.01l1.85-1.27s.08-.03,.12,.02l.41,.59s.03,.08-.02,.12l-1.85,1.27s-.03,.04-.01,.07l.81,1.18s.04,.03,.07,.01l2.19-1.51s.08-.03,.12,.02l.41,.59s.03,.08-.02,.12l-2.99,2.05c-.05,.03-.08,.03-.12-.02l-3.12-4.55Z"/><path class="f" d="M235.95,97.68s-.04-.08,0-.12l1.57-1.36c.77-.66,1.52-.77,2.29-.31,.26,.16,.65,.52,1.14,1.1,.5,.58,.8,1.01,.92,1.29,.34,.82,.13,1.56-.64,2.22l-1.57,1.36s-.08,.04-.12,0l-3.61-4.17Zm3.82,2.87s.05,.03,.07,0l.65-.56c.48-.42,.63-.86,.44-1.33-.07-.18-.31-.52-.73-1-.42-.49-.72-.77-.89-.87-.43-.25-.9-.18-1.38,.24l-.65,.56s-.03,.05,0,.07l2.5,2.88Z"/><path class="f" d="M239.77,94.23s-.04-.08,0-.12l.58-.6s.08-.04,.12,0l3.94,3.87s.04,.08,0,.12l-.58,.6s-.08,.04-.12,0l-3.94-3.87Z"/><path class="f" d="M241.25,92.73s-.05-.07,0-.12l2.34-2.78s.07-.05,.12-.01l.55,.46s.05,.07,0,.12l-1.71,2.04s-.02,.05,0,.07l1.06,.89s.05,.02,.07,0l1.44-1.72s.07-.05,.12-.01l.55,.46s.05,.07,0,.12l-1.44,1.72s-.02,.05,0,.07l1.1,.93s.05,.02,.07,0l1.71-2.04s.07-.05,.12-.01l.55,.46s.05,.07,.01,.12l-2.34,2.78s-.07,.05-.12,.01l-4.23-3.55Z"/><path class="f" d="M244.2,89.17s-.05-.07-.02-.12l.43-.65s.08-.08,.15-.07l4.57,.2,.02-.03-3.27-2.17s-.05-.07-.02-.12l.41-.62s.07-.06,.12-.02l4.6,3.05s.06,.07,.02,.12l-.43,.65s-.08,.08-.15,.07l-4.57-.19-.02,.03,3.26,2.16s.05,.07,.02,.12l-.41,.62s-.07,.06-.12,.03l-4.6-3.05Z"/><path class="f" d="M252.67,86.05c-.03,.05-.06,.06-.11,.04l-4.15-2.13s-.05,0-.07,.02l-.69,1.35c-.03,.05-.06,.06-.11,.04l-.64-.33c-.05-.03-.06-.06-.04-.11l1.89-3.69c.03-.05,.06-.06,.11-.04l.64,.33c.05,.03,.06,.06,.04,.11l-.69,1.35s0,.05,.02,.07l4.15,2.13c.05,.03,.06,.06,.04,.11l-.38,.74Z"/><path class="f" d="M254.44,82.01c-.27,.31-.56,.54-.84,.67-.05,.02-.1,.02-.12-.03l-.37-.71c-.02-.05-.02-.09,.04-.11,.56-.34,.94-.75,1.13-1.26,.24-.64,.09-1.14-.37-1.31-.41-.16-.74,.02-1.11,.7l-.15,.27c-.57,1.03-1.28,1.38-2.14,1.05-.97-.37-1.32-1.33-.9-2.45,.27-.69,.67-1.2,1.2-1.55,.05-.03,.09-.01,.12,.03l.43,.6s.02,.09-.02,.12c-.44,.32-.75,.7-.91,1.14-.21,.54-.05,.96,.38,1.12,.38,.15,.75-.09,1.1-.72l.15-.27c.56-1.02,1.28-1.36,2.16-1.02,.98,.37,1.37,1.37,.86,2.67-.15,.39-.36,.74-.63,1.05Z"/></g><g><path class="f" d="M161.22,48.7l-1.8,5.96-1.04-.32,.75-2.48c-.42,.03-.91,.08-1.3,.14l.05-1.2c.5-.1,1.15-.2,1.64-.23l.66-2.19,1.04,.32Zm4.62,3.98l3.21,.97c.54,.16,.81,.35,.87,.74,.07,.42-.05,.9-.26,1.59-.31-.05-.82-.04-1.16,.02,.15-.43,.27-.84,.31-.99,.04-.15,.01-.19-.12-.23l-3.2-.97-.78,2.59-1.07-.32,.78-2.59-1.23-.37-.81,2.67-1.06-.32,.45-1.49c-.49-.08-1.24-.11-1.84-.02l.05-1.09c.61-.1,1.42-.09,1.91-.01l-.03,.82,.56-1.87c-.49-.42-1.24-.94-1.76-1.26l.6-1.09c.53,.41,1.08,.84,1.51,1.21l.48-1.58,1.06,.32-.78,2.59,1.23,.37,.72-2.4,1.07,.32-.72,2.4Zm.48-9.16l-.41,1.37,6.72,2.03-.37,1.23-6.72-2.03-.52,1.73,.28,.09c1.94,.59,4.58,1.58,5.92,3.3-.29,.12-.82,.52-1.04,.74-1.26-1.55-3.49-2.33-5.24-2.86l-4.65-1.4c.2-1.58,.29-3.39,.15-4.48l1.22-.72c.09,1.26-.02,2.82-.2,4.27l2.37,.72,1.31-4.34,1.16,.35Zm-.28,11.05c.82,.6,1.62,1.42,2.09,2.14-.23,.14-.64,.46-.86,.66-.4-.68-1.06-1.37-1.8-1.86l.58-.93Zm.54-3.03c.77-.25,1.75-.46,2.37-.51l.26,1.04c-.63,.04-1.67,.24-2.44,.44l-.19-.97Z"/><path class="f" d="M167.01,39.74c-.31,.04-.71,.13-.95,.25-.33-1.61-1.23-3.11-2.07-4.14l.81-.84c.22,.28,.42,.57,.63,.88l1.19-1.62,.09-.22,.83-.25c.34,.62,.67,1.35,.92,2.05l.72-.98,5.04,3.7-3.08,4.2-4.13-3.03Zm-.99-2.91c.25,.45,.49,.94,.68,1.41l1.1-1.51c-.17-.42-.43-.95-.7-1.39l-1.09,1.48Zm3.49-4.11c-.52-.2-1.4-.39-2.09-.45l.27-.96c.69,.05,1.56,.2,2.07,.39l-.24,1.02Zm-.68,7.08l.65-.89-1.29-.95-.65,.89,1.29,.95Zm.57-3.48l-.68,.92,1.29,.95,.68-.92-1.29-.95Zm9.01-3.52l-1.61,2.19,2.61,1.92-.74,1-2.61-1.92-1.67,2.27-.95-.69,1.67-2.27-1.45-1.06-1.38,1.88-.9-.66,1.38-1.88-1.49-1.1-1.53,2.09-.92-.68,2.09-2.84c-.34-.76-.9-1.71-1.33-2.35l.93-.79c.39,.71,.8,1.52,1.1,2.19l.95-1.3,.92,.68-1.47,2,1.49,1.1,1.32-1.8,.9,.66-1.32,1.8,1.45,1.06,1.61-2.19,.95,.7Zm-7.49,8.53l.65-.89-1.31-.96-.65,.89,1.31,.96Zm.55-3.5l-.68,.92,1.31,.96,.68-.92-1.31-.96Zm.5,6.19c.79-1.28,1.96-3.27,3.07-5.17l.9,.62c-1.01,1.83-2.09,3.73-2.89,5.11l-1.08-.56Z"/><path class="f" d="M180.42,19.78c0,.15,0,.33-.02,.48,1.89,.37,4.48,.05,6.67-.81-.08,.38-.1,1.03-.06,1.41-.62,.2-1.26,.37-1.91,.49l2.42,3.53c.05-.17,.11-.33,.14-.49l1.25,.09c-.3,.82-.68,1.72-1.06,2.53,1.06-.11,2.07-.16,2.81-.14l-.25,1.29c-1.5-.11-4.27,.11-6.32,.45l.25-1.13c.69-.13,1.48-.24,2.28-.35,.27-.56,.53-1.22,.76-1.82l-5.3,3.63,1.37,2,2.41-2.34c.18,.32,.48,.73,.67,.95-2.69,2.69-3.07,3.1-3.26,3.45-.23-.21-.73-.54-1.01-.65,.12-.22,.19-.56-.12-1l-3.63-5.29c-.3,.51-.61,1.02-.95,1.51-.32-.17-.86-.35-1.27-.43,1.63-2.1,2.87-4.81,2.86-7.14l1.28-.21Zm3.49,1.73c-1.25,.12-2.51,.07-3.65-.16-.19,1.15-.57,2.3-1.08,3.4l1.87-1.28c-.33-.18-.71-.36-1.03-.5l.76-.92c.45,.18,1.03,.43,1.4,.64l1.73-1.18Zm-4.12,4.08l.56,.82,4.5-3.08-.56-.82-4.5,3.08Zm6.2-.59l-.59-.86-4.5,3.08,.59,.86,4.5-3.08Z"/><path class="f" d="M196.24,20.85c-.41-.4-1.2-1.06-1.9-1.59l1.77,6.63-1.29,.34-1.6-6c-.15,1.58-.48,3.1-.98,4.14-.23-.33-.69-.78-1-1.05,.69-1.38,1.12-3.61,1.15-5.52l-2.02,.54-.33-1.22,2.19-.58-.76-2.86,1.29-.34,.76,2.86,1.79-.48,.33,1.22-1.79,.48,.1,.36c.67,.38,2.37,1.49,2.79,1.78l-.49,1.3Zm6.41-5.78l-1.35,.36,1.82,6.84c.21,.81,.12,1.21-.32,1.55-.43,.35-1.25,.6-2.41,.9-.16-.34-.52-.87-.8-1.18,.83-.19,1.69-.42,1.93-.5,.24-.07,.32-.17,.25-.42l-1.35-5.06c-.57,2.09-1.55,4.2-2.67,5.65-.3-.26-.81-.62-1.19-.78,1.38-1.57,2.53-4.19,2.99-6.54l-3.47,.92-.33-1.22,3.87-1.03-.76-2.84,1.34-.36,.76,2.84,1.35-.36,.32,1.22Z"/><path class="f" d="M222.39,16.99c.41,2.4,1.48,4.82,2.98,6.33-.38,.18-.97,.56-1.28,.88-.49-.56-.93-1.2-1.3-1.91l-.29,1.2-3.04-.75-.6,2.43-1.35-.33,.6-2.43-3.04-.75,.3-1.22c-.7,.47-1.39,.85-2.09,1.15-.14-.38-.44-.94-.69-1.28,2-.67,4.07-2.38,5.54-4.36l-3.79-.93,.32-1.29,5.26,1.29,.68-2.78,1.35,.33-.68,2.78,5.33,1.31-.32,1.29-3.9-.96Zm-3.96,4.13l1.18-4.81-.18-.04c-1.11,1.64-2.51,3.09-4,4.12l3,.74Zm4.29,1.05c-.83-1.6-1.37-3.54-1.61-5.5l-.15-.04-1.18,4.81,2.94,.72Z"/><path class="f" d="M229.97,24.5c.52,.09,1.06,.19,1.57,.29l-.39,1.13c-1.64-.21-3.39-.48-4.75-.71l.3-1.38c.53,.13,1.21,.27,1.96,.42l2.34-3.56-1.45-.96,.68-1.04,1.46,.96,1.73-2.63,1.03,.68-1.73,2.63,1.31,.86-.68,1.04-1.31-.86-2.06,3.13Zm4.82,6.99c.65,.43,.97,.2,1.91-1.03,.13,.34,.44,.8,.7,1.05-1.23,1.53-1.91,1.85-3.2,1l-2.71-1.78c-1.45-.96-1.63-1.6-.69-3.01l2.24-3.42-1.05-.18,.23-1.25,1.57,.29,2.06-3.13,1.04,.68-1.77,2.7,1.69,.31,2.14-3.25,1.03,.68-1.85,2.82,1.65,.3,.32-.03,.29-.03,.57,.8-.17,.16c-1.45,2.21-2.53,3.81-2.91,4.22-.39,.46-.76,.59-1.19,.44-.4-.09-.88-.39-1.22-.62,.15-.31,.33-.78,.37-1.1,.24,.17,.56,.38,.68,.46,.15,.1,.29,.12,.5-.09,.2-.19,.94-1.28,2.13-3.09l-1.76-.31-2.79,4.25-1.03-.68,2.5-3.81-1.7-.3-2.55,3.88c-.43,.66-.39,.88,.37,1.38l2.59,1.7Z"/><path class="f" d="M248.71,30.02c-1.09,.35-2.25,.6-3.39,.77l-7.47,5.71-.76-1,5.88-4.49c-.58,.01-1.1,0-1.62-.05,.19-.29,.52-1.02,.62-1.38,1.84,.22,4.2-.07,6.27-.77l.46,1.21Zm-1.16,5.25c-2.91,1.9-5.84,3.16-8.91,2.23,.15-.36,.23-.96,.22-1.36,2.73,.89,5.32-.2,7.91-1.89l-1.79-2.35,.99-.76,1.84,2.41c.83-.6,1.66-1.21,2.49-1.85l.79,1.04c-.83,.64-1.66,1.25-2.5,1.84l2.99,3.91-.99,.76-3.03-3.97Zm-3.39,6.92c.24,.32,.52,.17,2.03-.91-.03,.36,.15,.92,.28,1.25-1.83,1.24-2.52,1.37-3.19,.48l-.91-1.19c-.75-.98-.63-1.48,.43-2.29l4.26-3.26,.78,1.02-4.26,3.26c-.35,.27-.37,.37-.14,.68l.73,.96Zm6.49-5.15c.23-.66,.48-1.86,.6-2.79l1.06,.33c-.07,.91-.26,2.11-.47,2.77l-1.18-.31Z"/><path class="f" d="M247.71,47c.06,.37-.14,.8-.3,1.54-.23,1,.05,2.14,.51,3.54,.47,1.44,1.23,3.44,1.82,4.69-.38-.03-1.06-.01-1.4,.08-.4-1.02-1.17-3.12-1.59-4.41-.5-1.56-.7-2.71-.49-3.76,.15-.63,.41-1.16,.31-1.47-.16-.48-1.12-.98-2.19-1.45l.82-1.18c.71,.4,1.36,.84,1.82,1.3l3.78-1.23-.51-1.58,1.16-.37,.9,2.77-4.63,1.5Zm5.46,3.07c-2.1,.4-3.82,.24-5.45-1.72,.27-.23,.62-.74,.77-1.08,1.31,1.7,2.64,1.82,4.27,1.52l-.75-2.3,1.09-.35,1.2,3.7,1.79-.58-.59-1.82c-.6-.12-1.17-.26-1.63-.45,.11-.29,.28-.92,.34-1.26,1,.48,2.34,.67,3.61,.59l.13,1.27c-.39,.02-.82,.03-1.22,0l.43,1.33,1.71-.55,.41,1.25-1.71,.55,.95,2.94-1.06,.34-.95-2.94-1.79,.58,1.13,3.49-1.09,.35-.8-2.48-2.77,.9c-.35,.11-.38,.17-.29,.45l.27,.85c.09,.27,.29,.26,1.63-.12-.14,.31-.17,.89-.14,1.27-1.78,.43-2.31,.26-2.6-.64l-.38-1.16c-.36-1.12-.08-1.48,1.1-1.86l2.79-.9-.37-1.16Zm.74-5.85c.52-.59,1.15-1.78,1.56-2.77l1,.75c-.35,.98-.96,2.17-1.46,2.81l-1.1-.79Z"/></g></g></g></g></g></svg>