<svg xmlns="http://www.w3.org/2000/svg" viewBox="0 0 45.74 45.74"><defs><style>.d,.e{fill:#fff;}.e{fill-rule:evenodd;}</style></defs><g id="a"></g><g id="b"><g id="c"><g><path class="d" d="M33.77,3.15c4.86,0,8.81,3.95,8.81,8.81v21.81c0,4.86-3.95,8.81-8.81,8.81H11.96c-4.86,0-8.81-3.95-8.81-8.81V11.96C3.15,7.1,7.1,3.15,11.96,3.15h21.81m0-3.15H11.96C5.36,0,0,5.36,0,11.96v21.81c0,6.61,5.36,11.96,11.96,11.96h21.81c6.61,0,11.96-5.36,11.96-11.96V11.96c0-6.61-5.36-11.96-11.96-11.96h0Z"></path><path class="e" d="M27.4,13.2c.9-.03,1.81,0,2.72,0h.37v-4.71c-.48-.05-.99-.12-1.49-.14-.93-.04-1.86-.09-2.79-.07-1.42,.03-2.76,.38-3.93,1.22-1.34,.97-2.08,2.32-2.36,3.93-.12,.66-.15,1.35-.16,2.02-.03,1.06,0,2.11,0,3.17v.4h-4.5v5.26h4.48v13.21h5.47v-13.19h4.46c.23-1.75,.45-3.48,.69-5.28-.36,0-.68,0-1,0-1.27,0-4.18,0-4.18,0,0,0,.01-2.6,.04-3.74,.04-1.55,.96-2.02,2.2-2.07Z"></path></g></g></g></svg>