<svg xmlns="http://www.w3.org/2000/svg" viewBox="0 0 45.74 45.74"><defs><style>.d{fill:#fff;}</style></defs><g id="a"></g><g id="b"><g id="c"><g><path class="d" d="M32.72,45.74H13.02c-7.18,0-13.02-5.84-13.02-13.02V13.02C0,5.84,5.84,0,13.02,0h19.7c7.18,0,13.02,5.84,13.02,13.02v19.7c0,7.18-5.84,13.02-13.02,13.02ZM13.02,3.92C8,3.92,3.92,8,3.92,13.02v19.7c0,5.02,4.08,9.1,9.1,9.1h19.7c5.02,0,9.1-4.08,9.1-9.1V13.02c0-5.02-4.08-9.1-9.1-9.1H13.02Z"></path><path class="d" d="M22.87,34.58c-6.46,0-11.71-5.25-11.71-11.71s5.25-11.71,11.71-11.71,11.71,5.25,11.71,11.71-5.25,11.71-11.71,11.71Zm0-19.5c-4.3,0-7.79,3.49-7.79,7.79s3.49,7.79,7.79,7.79,7.79-3.5,7.79-7.79-3.49-7.79-7.79-7.79Z"></path><path class="d" d="M37.9,10.49c0,1.55-1.26,2.81-2.81,2.81s-2.81-1.26-2.81-2.81,1.26-2.82,2.81-2.82,2.81,1.26,2.81,2.82Z"></path></g></g></g></svg>