<svg xmlns="http://www.w3.org/2000/svg" viewBox="0 0 43.53 43.52"><defs><style>.d{fill:#fff;}</style></defs><g id="a"></g><g id="b"><g id="c"><path class="d" d="M36.62,0H6.92C3.11,0,0,3.11,0,6.92v29.7c0,3.8,3.11,6.91,6.92,6.91h29.7c3.8,0,6.92-3.1,6.92-6.91V6.92c0-3.8-3.11-6.92-6.92-6.92ZM4.79,23.57c-.13,1.34-.5,2.63-1.28,3.76-.04,.06-.09,.12-.13,.17,0,.02-.04,.02-.09,.05-.05-.1-.1-.2-.14-.29-.34-.76-.68-1.51-1.02-2.26-.05-.12-.13-.21-.19-.32v-.13c.08-.24,.22-.48,.24-.73,.15-1.68,.27-3.35,.4-5.04q.04-.46,.49-.46c.62,0,1.24,.01,1.86,0,.19,0,.27,.05,.26,.27-.14,1.65-.24,3.31-.4,4.98Zm4.78,3.13c-.01,1.33-.9,2.13-2.24,2.13-.17,0-.34-.02-.51,.01-.48,.07-.75-.11-.9-.58-.16-.48-.4-.94-.6-1.41-.03-.05-.03-.12-.05-.22h1.08c.56,0,.65-.1,.66-.67,0-3.37,.01-6.75,.02-10.12,0-.24,.01-.48,0-.72-.01-.23,.11-.26,.29-.26,.65,.01,1.3,.02,1.95,0,.26-.01,.32,.1,.32,.33-.01,1.16,0,2.33,0,3.49,0,2.67,.01,5.35-.02,8.02Zm5.03-1.97c-.42,.94-.84,1.87-1.27,2.8-.04,0-.08,.03-.12,.04-.25-.47-.53-.92-.74-1.4-.48-1.08-.65-2.24-.74-3.42-.11-1.34-.2-2.69-.3-4.04-.03-.38-.04-.38,.35-.38,.65,0,1.31,.01,1.96,0,.18,0,.26,.04,.27,.24,.1,1.29,.18,2.59,.31,3.88,.06,.68,.2,1.36,.29,2.04,.02,.08,.02,.17-.01,.24Zm5.09,2.15c-.26,.58-.53,1.14-.78,1.72-.07,.16-.16,.24-.35,.24-1.01-.01-2.02,0-3.03-.02-.28,0-.56-.11-.88-.17,.41-.88,.77-1.67,1.15-2.46,.03-.07,.17-.14,.24-.13,1.15,.26,2.32,.09,3.49,.14h.48c-.13,.27-.22,.48-.32,.68Zm.16-1.7c-.84,.02-1.68,.01-2.52,.01-.15,0-.32-.03-.46-.07-.6-.18-.82-.58-.61-1.16,.23-.63,.51-1.24,.78-1.85,.17-.41,.36-.82,.57-1.32-.25,0-.43,.01-.61,0-.29-.02-.59,0-.87-.08-.56-.16-.76-.54-.59-1.09,.13-.41,.31-.8,.48-1.19,.52-1.16,1.05-2.31,1.56-3.46,.1-.21,.21-.3,.45-.3,.65,.02,1.3,.01,1.95,.01,.1,0,.2,.01,.35,.02-.05,.13-.08,.22-.12,.31-.42,.94-.84,1.87-1.26,2.81-.16,.35-.06,.5,.34,.51,.55,.01,1.09,0,1.64,0h.41c-.2,.44-.36,.83-.54,1.22-.44,.99-.89,1.98-1.33,2.98-.17,.37-.09,.49,.32,.49,.4,.01,.8,.01,1.24,.01-.04,.12-.06,.21-.09,.29-.25,.56-.5,1.11-.76,1.66-.05,.1-.22,.2-.33,.2Zm9.18,3.37c0,.19-.03,.29-.25,.29-2.79-.01-5.58-.01-8.37-.01-.03,0-.06-.01-.16-.03,.22-.51,.43-.98,.65-1.46,.13-.29,.28-.58,.4-.88,.08-.19,.21-.27,.41-.26,.59,.01,1.18-.01,1.77,0,.23,.01,.34-.05,.34-.31-.01-2.42-.01-4.84,0-7.27,0-.27-.11-.35-.36-.34-.36,.01-.71,0-1.07,.01-.19,0-.26-.06-.26-.26,.01-.69,0-1.38,0-2.07,0-.19,.05-.27,.25-.27h5.52c.2,0,.25,.08,.25,.26v2.08c0,.19-.07,.26-.26,.26-.36-.01-.73,0-1.1-.01-.21,0-.3,.07-.3,.29v7.37c0,.21,.09,.26,.28,.26,.65,0,1.31,.01,1.96,0,.23-.01,.31,.07,.3,.31,0,.68,0,1.36,0,2.04Zm12.55-2.01c.04,1.08-.78,2.08-1.94,2.22-.7,.08-1.4,.05-2.11,.06-.08,0-.2-.07-.24-.15-.3-.66-.59-1.33-.91-2.07h1.37c.26,0,.52,0,.78-.02,.29-.01,.45-.19,.45-.47,.01-.71,.01-1.42,0-2.13,0-.38-.34-.71-.75-.72-1.28-.02-2.57-.02-3.85-.01-.07,.01-.19,.15-.2,.24-.03,.22-.01,.46-.01,.69,0,1.42,0,2.85,0,4.27,.01,.3-.08,.4-.39,.39-.64-.02-1.28-.02-1.92,0-.25,0-.32-.08-.32-.33,.01-1.63,0-3.27,.01-4.9,0-.28-.07-.38-.36-.37-.65,.02-1.31,0-1.96,.01-.24,0-.34-.07-.33-.33,.01-.66,.01-1.32,0-1.98-.01-.23,.08-.31,.31-.31,.66,.01,1.33,0,1.99,.01,.25,.01,.36-.06,.35-.33-.01-.56-.01-1.11,0-1.67,.01-.27-.11-.34-.35-.34-.38,.02-.76,0-1.14,.01-.19,0-.28-.06-.28-.27,0-.69,0-1.38,0-2.07,0-.22,.09-.27,.29-.27,.4,.01,.79-.01,1.19,0,.19,.01,.28-.04,.29-.26,.02-.75,.03-.75,.8-.75,.5,0,1.01,.01,1.51-.01,.24,0,.31,.09,.31,.32,.02,.7,.03,.71,.73,.7,.83-.02,1.64,.06,2.36,.51,.94,.59,1.25,1.49,1.28,2.52,.02,.62,.01,1.23,.01,1.85,.43,.06,.83,.1,1.23,.19,1.03,.25,1.83,1.14,1.8,2.34-.03,1.14-.04,2.29,0,3.43Zm-1.2-8.28c-.45,.03-.9,.01-1.39,.01,0-.51-.03-.98,.01-1.43,.04-.57,.5-1.05,1.05-1.15,.58-.11,1.14,.13,1.4,.66,.41,.87-.08,1.85-1.07,1.91Z"></path></g></g></svg>