<?xml version="1.0" encoding="UTF-8"?><svg xmlns="http://www.w3.org/2000/svg" viewBox="0 0 357.47 132.15"><defs><style>.d{fill:#a53b32;}.e{fill:#feeee8;}</style></defs><g id="a"/><g id="b"><g id="c"><g><path class="e" d="M354.92,64.93c-1.04,1.26-2.68,2.99-5.01,4.57-7.9,5.34-16.69,4.11-27.7,3.54-8.24-.43-16.5,.12-24.75,0-32.21-.46-32.92,4.63-51.87,2.36-12.86-1.54-25.88-3.1-37.13-12.67-8.91-7.58-8.28-13.01-20.33-22.69-5.29-4.25-12.56-9.96-23.58-12.38-12.05-2.65-22.17,.06-27.11,1.77-1.45-3.85-5.25-12.34-14.15-19.16C112.47,1.97,101.11,1.53,96.76,1.42c-5.47-.14-12.99-.32-19.74,4.72-3.28,2.45-5.3,5.32-6.48,7.37-10.66-8.01-24.89-9.16-36.25-2.95-13.33,7.3-16.41,23.87-17.09,27.41-.47,2.44-.66,4.53-.74,6.04l.74,.47c-.39,.18-.79,.36-1.18,.57-9.47,4.95-12.01,15.05-13.41,20.63-3.23,12.88,.68,23.73,1.92,26.82,10.6,26.53,43.84,32.01,46.56,32.42,18.67,2.79,33.71-3.5,40.52-6.93,5.99,4.39,15.74,10.1,28.73,12.08,15.88,2.43,28.81-1.88,33.6-3.54,8.21-2.84,8.98-4.77,21.95-9.58,9.54-3.53,14.39-5.33,20.48-5.75,11.81-.81,19.39,4.19,27.11,7.22,6.41,2.52,36.23,11.71,49.66-.29,8.88-7.94,4.6-19.94,17.09-28.73,4.12-2.9,7.9-3.93,11.35-4.86,15.45-4.19,22.07,2.66,39.49-.74,10.22-2,12.73-5.29,13.7-7.07,2.4-4.39,.97-9.49,.15-11.79Z"/><g><path class="d" d="M129.99,132.15c-3.11,0-6.42-.22-9.86-.74-10.23-1.57-19.87-5.55-28.66-11.84-9.28,4.55-23.63,9.22-40.59,6.69-1.7-.25-10.67-1.76-20.71-6.53-13.3-6.32-22.36-15.31-26.92-26.73-1.65-4.12-5.13-15.07-1.97-27.66,1.41-5.63,4.04-16.07,13.81-21.35v-.04c.11-2.09,.36-4.19,.76-6.23l.02-.12c3.32-17.11,11.49-24.79,17.75-28.22,11.4-6.24,25.57-5.36,36.51,2.18,1.67-2.55,3.7-4.73,6.06-6.49C83.34-.29,91.12-.09,96.8,.05c3.94,.1,15.93,.4,27.32,9.12,7.72,5.91,11.9,13.13,14.11,18.53,6.42-2.04,15.9-3.75,26.6-1.4,11.55,2.54,19.13,8.62,24.14,12.65,6.75,5.42,9.57,9.48,12.3,13.41,2.14,3.08,4.16,5.99,8.06,9.3,10.94,9.3,23.88,10.86,36.41,12.35,9.27,1.11,14,.44,20.54-.49,6.65-.94,14.91-2.11,31.18-1.88,3.32,.05,6.71-.01,9.98-.07,4.85-.09,9.87-.18,14.82,.08,1.2,.06,2.37,.13,3.52,.2,9.32,.56,16.69,1,23.34-3.5,1.74-1.18,3.33-2.63,4.72-4.31l1.54-1.86,.81,2.27c1.23,3.45,2.19,8.48-.24,12.91-.74,1.36-3.01,5.49-14.64,7.76-8.74,1.7-14.74,.91-20.54,.13-5.77-.77-11.22-1.49-18.85,.58-3.44,.93-6.99,1.9-10.92,4.66-6.51,4.58-8.22,10.16-9.87,15.55-1.39,4.56-2.84,9.27-7.1,13.08-13.13,11.74-41.32,4.38-51.07,.55-1.64-.64-3.23-1.35-4.91-2.11-6.2-2.77-12.59-5.64-21.61-5.02-5.89,.4-10.64,2.16-20.1,5.66-6.89,2.55-10.26,4.26-13.23,5.78-2.61,1.32-4.85,2.47-8.75,3.81-3.47,1.2-12.55,4.34-24.39,4.34Zm-38.25-15.78l.68,.5c8.61,6.31,18.08,10.3,28.13,11.83,15.87,2.43,28.72-2.02,32.94-3.48,3.72-1.29,5.89-2.39,8.4-3.67,3.04-1.54,6.49-3.3,13.52-5.9,9.71-3.59,14.58-5.4,20.86-5.83,9.69-.66,16.71,2.48,22.91,5.25,1.65,.74,3.21,1.44,4.79,2.06,8.69,3.41,36.21,10.72,48.24-.04,3.7-3.3,4.96-7.45,6.31-11.84,1.7-5.56,3.63-11.86,10.91-16.99,4.32-3.04,8.28-4.12,11.78-5.06,8.16-2.22,13.88-1.46,19.93-.65,5.58,.74,11.36,1.51,19.66-.11,10.38-2.02,12.17-5.31,12.76-6.39,1.48-2.7,1.34-5.8,.73-8.42-1.12,1.12-2.33,2.12-3.62,2.99-7.43,5.02-15.59,4.53-25.04,3.97-1.14-.07-2.31-.14-3.5-.2-4.85-.25-9.82-.16-14.63-.07-3.3,.06-6.71,.12-10.07,.07-16.06-.23-24.21,.93-30.76,1.85-6.5,.92-11.63,1.65-21.25,.49-12.93-1.55-26.29-3.15-37.86-12.99-4.17-3.55-6.29-6.6-8.53-9.83-2.62-3.77-5.33-7.67-11.77-12.84-4.81-3.87-12.09-9.71-23.01-12.11-10.8-2.37-20.3-.37-26.37,1.72l-1.26,.43-.47-1.25c-1.94-5.16-5.89-12.57-13.7-18.55-10.68-8.18-22-8.47-25.72-8.56-5.27-.13-12.51-.31-18.89,4.44-2.45,1.82-4.5,4.16-6.12,6.95l-.77,1.34-1.24-.93c-10.23-7.69-23.87-8.8-34.77-2.84-5.75,3.15-13.27,10.28-16.38,26.34l-.02,.13c-.29,1.47-.49,2.96-.62,4.46,9.26-3.49,18.17-.09,19.24,.35,3.71,1.51,7.06,3.89,9.79,6.95,2.82-3.19,8.65-8.36,17.38-9.4,9.62-1.14,16.68,3.56,20.07,5.82,8.87,5.9,14.47,14.4,15.78,23.94,.58,4.27,1.13,15.18-6.34,24.19-6.68,8.05-15.88,9.8-22.61,11.08-5.29,1.01-9.47,1.8-14.65,.26-4.74-1.41-9.37-4.52-12.7-8.54-3.7-4.46-5.5-9.68-5.07-14.69,.62-7.29,5.55-11.76,6.53-12.58,5.22-4.36,13.99-6.51,20.64-2.16,4.93,3.23,6.49,8.59,6.93,10.74,.15,.74-.33,1.47-1.07,1.62-.74,.15-1.47-.33-1.62-1.07-.37-1.82-1.67-6.34-5.74-9-5.53-3.62-12.93-1.75-17.38,1.97-.51,.43-5.02,4.36-5.55,10.7-.8,9.44,7.59,17.93,15.82,20.38,4.54,1.35,8.23,.65,13.35-.33,6.66-1.27,14.96-2.85,21.01-10.14,6.78-8.17,6.27-18.16,5.74-22.07-1.19-8.75-6.37-16.57-14.58-22.03-3.36-2.24-9.63-6.4-18.23-5.38-9.02,1.07-14.63,7.1-16.62,9.65l-1.07,1.37-1.08-1.37c-1.82-2.3-4.99-5.45-9.76-7.39-1.04-.43-10.47-4.02-19.48,.68-8.93,4.66-11.3,14.11-12.71,19.75-2.97,11.81,.31,22.1,1.86,25.98,4.3,10.76,12.9,19.27,25.55,25.27,9.9,4.7,18.94,6.15,19.94,6.29,16.71,2.5,30.81-2.32,39.7-6.79l.75-.38Z"/><path class="d" d="M140.3,111.99c-5.81,0-12.17-1.44-17.61-6.09-6.5-5.56-11.99-16.23-8.66-26.51,1.81-5.61,7.59-15.09,17.76-15.09h.06c8.09,.03,15.41,6.01,17.82,14.55,.2,.73-.22,1.48-.95,1.69-.73,.21-1.48-.22-1.69-.95-2.08-7.37-8.32-12.53-15.19-12.56h-.05c-8.59,0-13.56,8.29-15.15,13.2-2.94,9.09,2,18.6,7.84,23.59,12.48,10.66,31.34,2.22,32.14,1.86,14.88-6.81,24.66-23.9,21.34-37.33-2.08-8.43-8.6-13.99-11.05-16.08-2.79-2.38-9.31-7.95-18.34-8.44-4.12-.23-6.71,.71-9.21,1.62-2.79,1.01-5.42,1.96-9.34,.92-4.05-1.08-5.78-3.3-7.78-5.88-1.44-1.85-3.06-3.94-5.96-6.14-7.25-5.53-19.6-9.34-30.84-5.4-8.12,2.85-13.23,8.84-16.09,13.36-.4,.64-1.25,.83-1.89,.43-.64-.4-.83-1.25-.43-1.89,3.09-4.89,8.64-11.38,17.5-14.48,13.03-4.57,26.14,.27,33.41,5.8,3.18,2.42,5,4.76,6.46,6.64,1.91,2.45,3.17,4.07,6.32,4.91,3.1,.82,5.13,.09,7.7-.85,2.63-.95,5.61-2.03,10.29-1.78,9.95,.54,16.97,6.54,19.97,9.09,2.64,2.25,9.64,8.22,11.93,17.51,3.61,14.62-6.86,33.15-22.86,40.47-1.29,.59-8.76,3.82-17.45,3.82Z"/></g></g></g></g></svg>