<svg xmlns="http://www.w3.org/2000/svg" viewBox="0 0 605.7 436.87"><defs><style>.d{fill:#feeee9;}</style></defs><g id="a"></g><g id="b"><g id="c"><g><g><path class="d" d="M127.52,345.61v11.66l2.56,3.2h-18.27l2.71-3.35v-11.51l-19.14-29.67h18.6l-2.62,2.46,11.04,18.25,11.34-18.34-2.77-2.37h15.53v.12l-18.99,29.54Z"></path><path class="d" d="M147.74,315.94h18.03l-2.68,3.35v24.22c0,5.38,2.97,8.06,8.91,8.06s8.97-2.64,8.97-7.91v-24.37l-2.53-3.35h18l-2.68,3.35v24.37c0,11.67-7.24,17.51-21.73,17.51s-21.76-5.93-21.76-17.79v-24.25l-2.53-3.2Z"></path><path class="d" d="M198.03,315.94h13.6l22.3,25.7v-22.5l-2.53-3.2h15.26l-2.68,3.35v41.18h-9.75l-23.62-26.16v22.8l2.68,3.35h-15.26l2.56-3.29v-37.67l-2.56-3.57Z"></path><path class="d" d="M288.12,315.23v14.31c-7.02-3.18-13.15-4.77-18.39-4.77-3.21,0-4.86,.91-4.97,2.74,0,1.85,4.23,4.02,12.7,6.52,8.57,3.14,12.85,7.61,12.85,13.42,0,9.15-6.03,13.73-18.09,13.73-4.71,0-10.36-1.19-16.94-3.57l-3.34,3.72v-15.97c6.84,4.29,13.45,6.43,19.83,6.43,3.41,0,5.12-.99,5.12-2.98,0-1.89-3.31-3.83-9.93-5.82-5.52-1.74-9.6-3.94-12.25-6.58-2.05-2.44-3.07-5.32-3.07-8.65,0-4.33,2.34-7.7,7.01-10.12,3.33-1.5,7.36-2.25,12.1-2.25,3.59,0,8.26,.99,13.99,2.98l3.37-3.14Z"></path><path class="d" d="M308.86,342.99v14.28l2.56,3.2h-18.27l2.71-3.35v-37.82l-2.71-3.35h18.27l-2.56,3.2v13.54h20.7v-13.39l-2.71-3.35h18.27l-2.56,3.2v38.13l2.56,3.2h-18.27l2.71-3.35v-14.13h-20.7Z"></path><path class="d" d="M361.25,315.91h14.69l21.28,44.59h-18.15l2.56-3.39-1.96-4.58h-20.82l-2.26,4.58,2.56,3.39h-15.74l19.32-41.24-1.47-3.35Zm.6,28.5h14.54l-7.19-15.94-7.34,15.94Z"></path><path class="d" d="M398.75,315.94h13.6l22.3,25.7v-22.5l-2.53-3.2h15.26l-2.68,3.35v41.18h-9.75l-23.62-26.16v22.8l2.68,3.35h-15.26l2.56-3.29v-37.67l-2.56-3.57Z"></path><path class="d" d="M495.95,315.23v14.68c-5.98-3.26-11.7-4.89-17.15-4.89-8.24,0-12.37,4.5-12.37,13.51s4.02,13.23,12.07,13.23c2.75,0,5-.3,6.77-.89v-8.89l-2.56-3.45h15.2v18.16c-4.8,3.04-12.03,4.55-21.7,4.55-15.53,0-23.29-7.76-23.29-23.3s8.81-22.43,26.42-22.43c4.75,0,9.26,.86,13.51,2.58l3.1-2.86Z"></path><path class="d" d="M62.82,391.57h27.26c11.07,0,16.61,4.49,16.61,13.48,0,7.35-3.29,11.84-9.87,13.48l11.83,17.6h-19.32l2.68-3.35-8.22-12.56h-5.69v12.56l2.68,3.35h-17.97l2.56-3.05v-38.5l-2.56-3.02Zm15.29,9.2v11.02h8.82c4.47,0,6.72-1.89,6.74-5.66,0-3.57-2.3-5.35-6.89-5.35h-8.67Z"></path><path class="d" d="M110.91,391.57h18.27l-2.56,3.2v38.13l2.56,3.2h-18.27l2.71-3.35v-37.82l-2.71-3.35Z"></path><path class="d" d="M177.35,432.99c-4.89,2.59-10.52,3.88-16.88,3.88-17.41,0-26.12-7.76-26.12-23.3s8.61-22.43,25.82-22.43c4.35,0,9.06,.86,14.11,2.58l3.07-2.83v14.62c-5.56-3.24-11.26-4.86-17.12-4.86-8.24,0-12.37,4.49-12.37,13.48s4.11,13.26,12.34,13.26c7.8,0,13.52-1.03,17.15-3.08v8.68Z"></path><path class="d" d="M181.69,391.57h40.99v11.94l-3.43-2.77h-22.15v8.74h14.08l3.28-2.77v14.25l-3.28-2.77h-14.08v8.74h22.15l3.43-2.77v11.94h-40.99l2.71-3.35v-37.82l-2.71-3.35Z"></path><path class="d" d="M241.81,391.57h13.6l22.3,25.7v-22.5l-2.53-3.2h15.26l-2.68,3.35v41.18h-9.75l-23.62-26.16v22.8l2.68,3.35h-15.26l2.56-3.29v-37.67l-2.56-3.57Z"></path><path class="d" d="M318.28,390.86c16.41,0,24.62,7.71,24.62,23.14s-8.05,22.83-24.16,22.83-25.25-7.78-25.25-23.33,8.26-22.65,24.8-22.65Zm-11.4,22.56c0,9.33,3.91,14,11.74,14,7.26,0,10.89-4.47,10.89-13.42s-3.81-13.73-11.44-13.73-11.19,4.38-11.19,13.14Z"></path><path class="d" d="M370.04,390.86c16.41,0,24.62,7.71,24.62,23.14s-8.05,22.83-24.16,22.83-25.25-7.78-25.25-23.33,8.26-22.65,24.8-22.65Zm-11.4,22.56c0,9.33,3.91,14,11.74,14,7.26,0,10.89-4.47,10.89-13.42s-3.81-13.73-11.44-13.73-11.19,4.38-11.19,13.14Z"></path><path class="d" d="M398.6,436.07l2.71-3.32v-37.82l-2.71-3.35h23.29c16.13,0,24.19,7.48,24.19,22.44s-7.97,22.07-23.89,22.07h-23.59Zm15.71-9.2h6.2c8.04,0,12.07-4.31,12.07-12.92s-4.12-13.11-12.37-13.11h-5.9v26.03Z"></path><path class="d" d="M449.36,391.57h17.97l-2.53,3.35v32h20.49l3.76-2.74v11.94h-39.69l2.71-3.35v-37.85l-2.71-3.35Z"></path><path class="d" d="M493.54,391.57h40.99v11.94l-3.43-2.77h-22.15v8.74h14.08l3.28-2.77v14.25l-3.28-2.77h-14.08v8.74h22.15l3.43-2.77v11.94h-40.99l2.71-3.35v-37.82l-2.71-3.35Z"></path></g><g><g><path class="d" d="M96.39,74.31c-.66,.58-1.41,1.09-2.27,1.52-.86,.43-1.51,.66-1.97,.68-.14,0-.73-.19-1.75-.56-2.39-.91-4.95-1.7-7.68-2.37-2.72-.67-5.67-1-8.83-1-5.73,0-12.62,.37-20.66,1.11,1.45,.91,2.22,1.77,2.31,2.57,.06,.66-.11,1.18-.49,1.56s-.96,.78-1.73,1.18c-.74,.4-1.27,.73-1.58,.98-1.71,1.48-3.99,2.93-6.84,4.34-2.85,1.41-5.82,2.59-8.89,3.55-3.08,.95-5.79,1.55-8.13,1.77-.23,.03-.54,.04-.94,.04-.77,0-1.4-.08-1.9-.24-.5-.16-.75-.36-.75-.62,0-.46,.77-.98,2.31-1.58,3.88-1.54,7.06-3.15,9.54-4.83,2.48-1.68,4.22-3.06,5.22-4.15,1-1.08,1.95-2.25,2.87-3.51-3.48,.49-7.75,1.18-12.83,2.1-1.94,.37-3.09,.56-3.46,.56-.66,0-1.65-.51-2.97-1.52-1.33-1.01-2.6-2.13-3.83-3.36-1.23-1.23-1.84-1.91-1.84-2.05,.09-.71,.43-1.04,1.03-.98,1.71,.11,3.41,.17,5.09,.17,3.51,0,8.15-.14,13.94-.43,.11-4.68,.17-9.08,.17-13.21s-.06-7.84-.17-10.61c-.03-.88-.27-1.75-.73-2.61-.46-.86-.94-1.43-1.45-1.71-.14-.09-.21-.2-.21-.34,0-.23,.19-.52,.56-.88,.37-.36,.78-.67,1.24-.94,.46-.27,.76-.41,.9-.41,.4,0,1.32,.16,2.76,.47,1.44,.31,2.74,.64,3.91,.98h.13c1.85-.09,3.78-.24,5.77-.47,.11-.77,.3-2.28,.56-4.53-4.13,.46-8.55,1-13.26,1.63-1.2,.2-1.95,.3-2.27,.3-.37,0-.73-.15-1.09-.45-.36-.3-.81-.75-1.35-1.35l-.68-.73-1.03-.98c-.4-.34-.77-.69-1.11-1.05-.34-.36-.51-.61-.51-.75-.03-.28,.1-.53,.39-.73,.28-.2,.56-.28,.81-.26,1.4,.17,2.91,.26,4.53,.26,.83,0,1.44-.01,1.84-.04l1.75-.09c4.05-.14,8.22-.39,12.53-.73l.3-2.78c.06-.6-.03-1.05-.26-1.37-.23-.31-.56-.58-.98-.81-.17-.09-.32-.19-.45-.3-.13-.11-.19-.24-.19-.38,0-.26,.31-.56,.94-.92,.63-.36,1.33-.68,2.12-.96,.78-.28,1.32-.43,1.6-.43,.31,0,1.07,.21,2.27,.64,1.2,.43,2.29,.89,3.27,1.39,.98,.5,1.46,.89,1.43,1.18-.03,.26-.2,.67-.51,1.24-.14,.2-.26,.41-.36,.64-.1,.23-.16,.44-.19,.64,0,.17-.09,.63-.26,1.37,2.17-.26,3.82-.48,4.96-.68,1.08-.17,2.1-.44,3.04-.81,.94-.37,1.95-.83,3.04-1.37,.97-.46,1.54-.68,1.71-.68,.57,0,1.6,.4,3.08,1.2,1.48,.8,2.87,1.67,4.15,2.61,1.28,.94,1.94,1.6,1.97,1.97,0,.31-.35,.77-1.05,1.37-.7,.6-1.48,1.15-2.33,1.65-.86,.5-1.47,.75-1.84,.75-.2,0-.64-.09-1.33-.26-3.45-.88-6.69-1.33-9.71-1.33-1.11,0-2.17,.06-3.16,.17l-3.34,.34c-.26,1.51-.46,2.91-.6,4.19,1.77-.34,4.01-.81,6.71-1.41,1.6-.4,2.57-.6,2.91-.6,.28,0,1.05,.41,2.31,1.22,1.25,.81,2.4,1.7,3.44,2.67,1.04,.97,1.56,1.77,1.56,2.39,0,.17-.06,.36-.19,.56-.13,.2-.26,.39-.41,.56-.51,.57-.78,1.14-.81,1.71-.11,6.99-.36,13.7-.73,20.14-.06,.63-.09,1.03-.09,1.2,1.25-.2,2.39-.44,3.4-.73,1.01-.28,2.1-.64,3.27-1.07,.63-.23,1.23-.42,1.8-.58,.57-.16,1.04-.24,1.41-.24,.57,0,1.86,.61,3.87,1.82,2.01,1.21,3.89,2.52,5.65,3.91,1.75,1.4,2.63,2.35,2.63,2.87,0,.48-.33,1.02-.98,1.6Zm-48.58-5.5c5.62-.31,11.4-.7,17.36-1.15l.13-2.22c.51-9.58,.77-15.92,.77-19.03,0-2.22-.09-3.49-.26-3.81-.17-.37-1.21-.56-3.12-.56-2.45,0-5.31,.27-8.57,.81-3.26,.54-5.42,1.16-6.48,1.84v2.48c2.22-.28,5.07-.77,8.55-1.45,.43-.09,.84-.3,1.24-.64,.26-.2,.5-.35,.73-.45,.23-.1,.53-.16,.9-.19,.31,0,.88,.21,1.69,.62,.81,.41,1.54,.91,2.18,1.5,.64,.58,.96,1.12,.96,1.6,0,.34-.3,.72-.9,1.13-.6,.41-1.23,.63-1.88,.66-.26,0-.62-.02-1.09-.06-.47-.04-.92-.06-1.35-.06-.26,0-.78,.03-1.58,.09-2.08,.17-3.96,.41-5.62,.71-1.67,.3-2.94,.56-3.83,.79v2.95c1.85-.31,4.73-.84,8.64-1.58,.43-.09,.84-.27,1.24-.56,.26-.2,.49-.34,.71-.43,.21-.09,.52-.13,.92-.13,.31-.03,.88,.16,1.69,.58,.81,.41,1.54,.91,2.18,1.5,.64,.58,.96,1.12,.96,1.6,0,.34-.3,.73-.9,1.15-.6,.43-1.23,.64-1.88,.64-.2,.03-.54,.01-1.03-.04l-1.37-.04c-.23,0-.77,.03-1.62,.09-3.56,.29-6.73,.8-9.49,1.54,0,1.25,.01,2.17,.04,2.74l8.6-1.54c.4-.09,.8-.27,1.2-.56,.23-.17,.46-.31,.71-.41,.24-.1,.56-.16,.96-.19,.28,0,.83,.21,1.65,.62,.81,.41,1.54,.91,2.18,1.5,.64,.58,.96,1.12,.96,1.6,0,.34-.3,.72-.9,1.13-.6,.41-1.23,.63-1.88,.66-.26,0-.62-.02-1.09-.06-.47-.04-.92-.06-1.35-.06-.26,0-.78,.03-1.58,.09-3.25,.26-6.39,.76-9.41,1.5,.03,.88,.04,1.92,.04,3.12Zm25.72,8.6c2.04,.63,4.16,1.65,6.37,3.08,2.21,1.43,3.31,3.12,3.31,5.09,0,.8-.24,1.68-.71,2.65-.47,.97-1.18,1.8-2.12,2.48-.94,.68-2.05,1.03-3.34,1.03-1.06,0-1.96-.24-2.72-.73-.76-.48-1.4-1.11-1.92-1.88-.53-.77-1.16-1.84-1.9-3.21-1.17-2.11-2.3-3.86-3.38-5.24-1.08-1.38-2.54-2.59-4.36-3.61-.86-.43-1.25-.87-1.2-1.33,.09-.4,.68-.6,1.8-.6s2.21,.13,3.29,.38c2.54,.63,4.83,1.25,6.86,1.88Z"></path><path class="d" d="M88.01,132.15c1.6,1.28,3.02,2.77,4.28,4.45,1.25,1.68,1.88,3.04,1.88,4.06,0,1.37-.21,2.38-.62,3.04-.41,.66-.88,1.06-1.39,1.22-.51,.16-1.1,.24-1.75,.24-.31,0-.84-.14-1.58-.43-.57-.23-1.07-.4-1.5-.51-.43-.11-.91-.17-1.45-.17-.6,0-1.24,.1-1.92,.3-.68,.2-1.53,.48-2.52,.86-.57,.23-1.14,.44-1.71,.62-.57,.19-1.03,.28-1.37,.28-.29,0-.43-.11-.43-.34,0-.37,.36-1.11,1.07-2.22,.54-.91,.95-1.68,1.24-2.31,.28-.63,.43-1.18,.43-1.67,0-1.23-1.14-1.84-3.42-1.84l-.98,.04h-1.97c-5.62,0-12.1,.35-19.46,1.05-7.36,.7-14.57,2.15-21.64,4.34-.37,1.71-.98,3.16-1.84,4.36-.86,1.2-1.75,2.08-2.69,2.65-.94,.57-1.74,.86-2.39,.86-1.23,0-2.31-.34-3.25-1.03-.94-.68-1.41-1.72-1.41-3.12,0-1.23,.32-2.41,.96-3.55,.64-1.14,1.56-2.47,2.76-3.98,.83-1.05,1.45-1.91,1.86-2.57,.41-.66,.62-1.27,.62-1.84,0-.74-.08-1.33-.24-1.75-.16-.43-.36-.81-.6-1.15-.24-.34-.36-.58-.36-.73,0-.37,.14-.68,.41-.94,.27-.26,.71-.39,1.3-.39,.34,.03,.88,.36,1.63,.98,.74,.63,1.45,1.55,2.14,2.78,.68,1.23,1.13,2.72,1.33,4.49,2.65-.57,4.56-.97,5.73-1.2-.17-.8-.31-3.31-.43-7.53-.03-.54-.08-1.95-.15-4.23-.07-2.28-.19-3.91-.36-4.88-.26-1.6-.55-2.74-.88-3.44-.33-.7-.76-1.38-1.3-2.03-.06-.06-.09-.17-.09-.34,0-.46,.24-.98,.73-1.58,.48-.6,1.01-.93,1.58-.98,.46-.06,.99,0,1.6,.19,.61,.19,1.53,.49,2.76,.92l.98,.38c2.54-.06,5.11-.26,7.72-.62,2.61-.36,5.55-.81,8.83-1.35l1.41-.26c.94-.14,1.83-.39,2.67-.75,.84-.36,1.75-.81,2.72-1.35,.63-.37,1.15-.64,1.56-.81,.41-.17,.76-.26,1.05-.26,.77-.06,1.9,.39,3.38,1.35,1.48,.96,2.84,2.07,4.06,3.34,1.23,1.27,1.88,2.29,1.97,3.06-.68,1.37-1.39,3.28-2.12,5.73-.73,2.45-1.53,5.36-2.42,8.72l-.68,2.48,2.22-.09c1.8-.06,3.13-.24,4-.53,.87-.3,1.67-.69,2.42-1.18,.4-.26,.73-.44,1-.56,.27-.11,.62-.19,1.05-.21,.8,0,2,.64,3.59,1.92Zm-12.62,15.14c0,.57-.1,1.28-.3,2.14-.23,1.03-.34,1.88-.34,2.57,0,1.17,.13,4.09,.38,8.77,.28,5.59,.43,8.85,.43,9.79,0,.88-.46,2.12-1.37,3.72-.91,1.6-2.03,3-3.36,4.21-1.33,1.21-2.6,1.82-3.83,1.82-.48,0-.94-.22-1.37-.66-.43-.44-.96-1.15-1.58-2.12-.86-1.23-1.64-2.24-2.35-3.04-.71-.8-1.58-1.41-2.61-1.84-1.06-.43-1.58-.88-1.58-1.37,0-.23,.13-.41,.38-.53,.26-.13,.58-.18,.98-.15,.4,.03,.94,.04,1.63,.04,1.74,0,3.01-.19,3.81-.56,.8-.37,1.2-1.03,1.2-1.97-.03-1.97-.11-4.89-.23-8.77-.13-3.88-.25-7.23-.36-10.05-.03-.4-.16-.68-.41-.83-.24-.16-.61-.23-1.09-.23-.29,0-1.25,.09-2.91,.26-2.68,.31-5.08,.62-7.21,.92-2.12,.3-4.11,.68-5.97,1.13-.03,.03-.04,.07-.04,.13-.06,.46-.09,1.61-.09,3.46l2.01-.38c.34-.06,.95-.17,1.84-.34,.88-.17,1.7-.3,2.44-.38,.31-.03,.95-.24,1.92-.64,1.25-.51,2.15-.77,2.69-.77,.46,0,.83,.14,1.11,.43,.54,.6,1.1,1.35,1.69,2.24,.58,.9,.88,1.69,.88,2.37,0,.88-.64,1.33-1.92,1.33-.37,0-.67-.01-.9-.04-.74-.06-1.38-.09-1.92-.09-2.48,0-5.76,.34-9.84,1.03v2.99c1.11-.03,2.23-.13,3.36-.3,1.13-.17,1.79-.27,1.99-.3,1.25-.17,2.12-.28,2.61-.34,.43-.06,1.05-.3,1.88-.73,.09-.03,.43-.18,1.05-.45,.61-.27,1.16-.41,1.65-.41,.43,0,.76,.13,.98,.39,.54,.54,1.09,1.24,1.65,2.1,.56,.86,.83,1.6,.83,2.22,0,1.14-.97,1.67-2.91,1.58-.46-.03-1.27-.04-2.44-.04-3.59,0-7.14,.29-10.65,.86,.03,.86,.04,2.02,.04,3.51,0,1.34-.23,2.73-.68,4.17-.46,1.44-1.06,2.63-1.8,3.57-.74,.94-1.48,1.41-2.22,1.41-.86,0-1.75-.55-2.67-1.65-.93-1.1-1.7-2.34-2.31-3.72-.61-1.38-.88-2.36-.79-2.93l.21-.94c.66-2.54,1.25-5.87,1.8-10.01,.28-2.28,.43-4.19,.43-5.73,0-1.14-.05-2.06-.15-2.76-.1-.7-.26-1.53-.49-2.5-.2-.63-.31-1.15-.34-1.58-.03-.34,.17-.81,.6-1.41,.43-.6,.91-1.14,1.45-1.62,.54-.48,.93-.73,1.15-.73,.86,0,1.9,.21,3.12,.62,1.23,.41,2.22,.95,2.99,1.6,3.42-.34,6.31-.8,8.66-1.37,2.35-.57,4.15-1.13,5.41-1.67,1.25-.54,2.49-1.15,3.72-1.84,.63-.37,1.09-.62,1.39-.75s.61-.19,.92-.19c.86,0,1.85,.43,2.99,1.28,1.14,.86,2.17,1.8,3.1,2.84,.93,1.04,1.43,1.73,1.52,2.07,.09,.37,.13,.76,.13,1.15Zm-10.14-30.11c-.51-.51-1.41-.77-2.69-.77-.8,0-2.22,.1-4.28,.3-3.42,.34-7.38,.97-11.89,1.88v4.88l1.45-.21c1.34-.17,2.8-.38,4.38-.62,1.58-.24,2.54-.42,2.89-.53,.43-.14,1.03-.48,1.8-1.03,.06-.03,.27-.16,.64-.41,.37-.24,.66-.36,.86-.36,.37,0,1.19,.41,2.46,1.24,1.27,.83,1.9,1.38,1.9,1.67,0,.34-.17,.86-.51,1.54-.34,.74-.53,1.34-.56,1.8l-.09,4.23-.09,2.91c1.48-.17,2.72-.28,3.72-.34,.37-5.36,.61-9.78,.73-13.26,.03-1.43-.21-2.39-.73-2.91Zm-18.52,18.09c0,.23-.01,.36-.04,.38,2.4-.43,5-.81,7.83-1.15,.06-1.94,.09-4.05,.09-6.33,0-1.4-.03-2.11-.09-2.14-.17-.11-2.88,.27-8.13,1.15,0,2.82,.06,4.76,.17,5.82,.11,1.11,.17,1.87,.17,2.27Z"></path><path class="d" d="M30.2,226.62c-.57-.48-1.23-1.27-1.97-2.35-.86-1.31-1.74-2.4-2.65-3.25-.63-.6-1.71-1.33-3.25-2.18-1.14-.68-1.71-1.1-1.71-1.24,0-.11,.61-.41,1.82-.88,1.21-.47,2.57-.9,4.06-1.28s2.77-.58,3.83-.58c.43,0,.81,.04,1.15,.13,1.37,.37,2.52,.94,3.44,1.71,.93,.77,1.6,1.62,2.03,2.54s.6,1.8,.51,2.63c0,.43-.21,1.09-.64,1.99s-1.02,1.7-1.77,2.42c-.76,.71-1.63,1.07-2.63,1.07-.91,0-1.65-.24-2.22-.73Zm16.93-9.71c0,.43-.19,1.14-.56,2.14l-.3,.9c-1.43,4.16-2.87,9.26-4.34,15.29-1.47,6.03-2.49,12.91-3.06,20.63-.09,1.43-.41,2.95-.98,4.58-.57,1.62-1.3,2.96-2.18,4-.88,1.04-1.78,1.49-2.69,1.35-1.08-.17-1.96-.63-2.63-1.37-.67-.74-1.18-1.61-1.54-2.61-.36-1-.73-2.31-1.13-3.93-.4-1.54-.76-2.78-1.07-3.72-.31-.94-.76-1.81-1.35-2.61-.58-.8-1.35-1.38-2.29-1.75-.14-.06-.21-.19-.21-.38s.11-.38,.34-.56c.23-.17,.57-.26,1.03-.26,.14,0,.41,.03,.81,.09l1.15,.04c1.45,0,2.42-.21,2.91-.64,1.88-1.6,4.49-5.71,7.83-12.34,3.34-6.63,6.07-12.39,8.21-17.3,.6-1.4,1.15-2.1,1.67-2.1,.26,0,.38,.19,.38,.56Zm-15.97-13.11c-.56-.56-1.23-1.18-2.03-1.86l-.64-.64c.03-.06,.08-.09,.15-.11,.07-.01,.14-.02,.19-.02,1.28-.34,2.84-.51,4.66-.51,2.31,0,4.39,.35,6.24,1.05,1.85,.7,3.09,1.85,3.72,3.44,.34,.8,.51,1.61,.51,2.44,0,1.11-.33,2.04-.98,2.78-.66,.74-1.43,1.29-2.33,1.65-.9,.36-1.7,.53-2.42,.53-.29,0-.47-.01-.56-.04-.71-.17-1.3-.45-1.75-.83-.46-.38-.82-.82-1.09-1.3-.27-.48-.65-1.24-1.13-2.27-.34-.83-.77-1.72-1.28-2.69-.29-.51-.71-1.05-1.26-1.6Zm58.76,18.24c1.9,1.43,3.63,2.98,5.22,4.66,1.58,1.68,2.37,2.91,2.37,3.68,0,.2-.08,.44-.24,.73-.16,.29-.34,.59-.53,.9-.37,.57-.68,1.07-.92,1.5-.24,.43-.45,.93-.62,1.5l-.9,2.78c-2.28,7.41-4.7,14.54-7.27,21.38-.4,1.03-1.35,2.09-2.84,3.19-1.5,1.1-3.16,2.01-4.98,2.74-1.82,.73-3.38,1.09-4.66,1.09-.6,0-1.09-.33-1.48-.98-.39-.66-.85-1.74-1.39-3.25-.74-2.11-1.53-3.85-2.37-5.22-.84-1.37-2-2.32-3.49-2.87-.66-.26-1.06-.6-1.2-1.03-3.36,2.91-6.93,5.22-10.69,6.95-3.76,1.72-7.58,2.59-11.46,2.59-.8,0-1.43-.1-1.88-.3-.46-.2-.68-.44-.68-.73,0-.2,.14-.41,.43-.62,.28-.21,.71-.39,1.28-.53,4.36-1.14,8.77-3.69,13.21-7.66,4.45-3.96,8.15-8.19,11.1-12.68,2.95-4.49,4.43-7.86,4.43-10.11,0-.23-.01-.4-.04-.51l-.04-.3c0-.06,.03-.2,.09-.43-1.83,.17-3.19,.31-4.11,.43,.2,.51,.34,1.21,.43,2.1,.11,1.23-.96,3.28-3.21,6.16-2.25,2.88-5.03,5.61-8.34,8.19-3.31,2.58-6.47,4.24-9.49,4.98-.57,.14-1.14,.21-1.71,.21-.71,0-1.07-.17-1.07-.51s.4-.81,1.2-1.41c5.13-3.65,8.79-7.1,10.97-10.35,2.18-3.25,3.47-6.07,3.87-8.47-2.65,1.82-4.29,2.68-4.92,2.57-.37-.09-.73-.37-1.07-.86-.34-.48-.84-1.25-1.5-2.31-.54-.91-.97-1.79-1.28-2.63-.31-.84-.37-1.29-.17-1.35,.86-.28,2.78-1.13,5.77-2.52,1.54-.77,3.43-2.06,5.67-3.87,2.24-1.81,4.29-3.57,6.16-5.28,1.87-1.71,3.13-2.88,3.78-3.51,.37-.31,.56-.6,.56-.86,0-.28-.27-.43-.81-.43-.2,0-.37,.01-.51,.04-2.59,.23-4.9,.63-6.91,1.22-2.01,.58-4.06,1.29-6.14,2.12-.23,.09-.61,.23-1.13,.43-.53,.2-.95,.34-1.26,.43-.31,.09-.57,.13-.77,.13-.57,0-1.43-.53-2.59-1.58-1.15-1.05-2.23-2.2-3.23-3.44-1-1.24-1.5-2.02-1.5-2.33,0-.46,.19-.91,.58-1.37,.38-.46,.83-.67,1.35-.64,1.82,.14,3.86,.21,6.12,.21,4.93,0,9.12-.37,12.55-1.11,3.44-.74,6.62-1.64,9.56-2.69,1.45-.51,2.35-.77,2.69-.77,.68,0,1.72,.59,3.1,1.77,1.38,1.18,2.64,2.5,3.76,3.96,1.13,1.45,1.69,2.54,1.69,3.25,0,.4-.24,.76-.71,1.07-.47,.31-1.28,.74-2.42,1.28-2.05,.91-3.66,1.81-4.83,2.69,.43-.31-1.9,1.48-6.97,5.39l-5.69,4.4,4.4-.34c1.97-.14,3.71-.39,5.24-.75,1.53-.36,3.14-.81,4.85-1.35,.91-.31,1.65-.54,2.22-.68,.57-.14,1.07-.21,1.5-.21,.68,0,1.97,.71,3.87,2.14Zm-6.52,7.48c0-.63-.16-1.08-.49-1.35-.33-.27-.89-.41-1.69-.41-.94,0-2.81,.1-5.6,.3,.88,.6,1.63,1.29,2.25,2.07,.61,.78,.92,1.58,.92,2.37,0,1.17-.56,2.85-1.69,5.05-1.13,2.2-2.71,4.6-4.75,7.21-2.04,2.61-4.34,5.05-6.91,7.33l.34,.04c1.74,.23,3.32,.34,4.75,.34,2.85,0,4.72-.44,5.6-1.33,.83-.8,1.74-2.44,2.74-4.94,1-2.49,1.91-5.22,2.74-8.19,.83-2.96,1.4-5.49,1.71-7.57,.06-.46,.09-.77,.09-.94Z"></path></g><path class="d" d="M55.92,282.93c-1.33,0-2.66-.05-4.01-.14C24.04,280.87,1.76,258.38,.1,230.47c-1.05-17.69,6.06-34.43,19.53-45.91,.02-.03,.04-.19-.12-.32C7.11,173.59,0,158.14,0,141.83s7.31-32.04,19.76-42.61C7.31,88.65,0,73.05,0,56.61,0,41.18,6.47,26.29,17.76,15.76,29.2,5.08,44.14-.21,59.83,.87c27.88,1.92,50.15,24.42,51.81,52.33,1.06,17.8-6.22,34.67-19.65,46.02,12.45,10.57,19.75,26.17,19.75,42.61s-7.11,31.76-19.5,42.4c-.05,.04-.11,.11-.11,.21s.06,.17,.11,.21c12.4,10.64,19.5,26.09,19.5,42.4,0,15.43-6.47,30.32-17.76,40.85-10.46,9.77-23.85,15.02-38.07,15.02Zm-.09-274.96c-12.38,0-24.03,4.57-33.14,13.07C12.87,30.22,7.24,43.18,7.24,56.61c0,15.71,7.67,30.54,20.51,39.66l4.15,2.95-4.15,2.95c-12.84,9.12-20.51,23.95-20.51,39.66,0,14.19,6.19,27.64,16.98,36.9,1.7,1.46,2.67,3.56,2.66,5.78,0,2.14-.93,4.16-2.56,5.55-11.72,10-17.92,24.57-17,39.98,1.45,24.29,20.83,43.86,45.09,45.54,13.67,.94,26.68-3.66,36.64-12.95,9.82-9.17,15.46-22.13,15.46-35.56,0-14.19-6.19-27.64-16.98-36.91-1.68-1.44-2.64-3.52-2.64-5.71s.96-4.27,2.64-5.71c10.79-9.26,16.98-22.71,16.98-36.91,0-15.71-7.67-30.54-20.51-39.66l-4.15-2.95,4.15-2.95c13.79-9.8,21.42-25.74,20.42-42.64-1.45-24.29-20.83-43.86-45.09-45.54-1.17-.08-2.33-.12-3.49-.12Z"></path></g><g><g><path class="d" d="M581.56,36.29c2.04,1.18,3.93,2.49,5.67,3.91,1.74,1.43,2.61,2.32,2.61,2.69,0,.6-.33,1.25-.98,1.95-.66,.7-1.42,1.3-2.29,1.82-.87,.51-1.53,.77-1.99,.77-.31,0-.73-.07-1.24-.21-.51-.14-1.08-.31-1.71-.51-2.14-.68-4.26-1.25-6.35-1.69-2.1-.44-4.71-.73-7.85-.88l.56,18.22c.31,9.15,.47,14.41,.47,15.78,0,1.03-.68,2.66-2.03,4.9-1.35,2.24-2.93,4.24-4.73,6.01-1.8,1.77-3.41,2.65-4.83,2.65-.57,0-1.01-.24-1.3-.71s-.66-1.26-1.09-2.37c-.51-1.31-1.04-2.47-1.58-3.49-.54-1.01-1.33-2.07-2.37-3.19-1.04-1.11-2.39-2.1-4.04-2.95-1.11-.6-1.67-1.11-1.67-1.54,0-.26,.17-.46,.51-.6,.34-.14,.76-.19,1.24-.13,1.88,.11,3.14,.17,3.76,.17,1.62,0,2.9-.24,3.83-.73,.93-.48,1.57-1.38,1.95-2.69,.37-1.31,.66-4,.88-8.06,.21-4.06,.32-8.56,.32-13.49,0-1.74-.03-4.23-.09-7.48-1.6,.11-4.28,.37-8.04,.77,.71,.97,1.43,2.53,2.16,4.68,.73,2.15,1.12,3.81,1.18,4.98,.03,1.08-1.53,3.36-4.68,6.84-3.15,3.48-7.24,7.03-12.27,10.65-5.03,3.62-10.36,6.43-15.97,8.42-1.71,.6-2.84,.9-3.38,.9-.34,0-.51-.09-.51-.26,0-.37,.6-.98,1.8-1.84,4.82-3.59,9.07-7.44,12.74-11.55,3.68-4.11,6.57-7.94,8.68-11.5,2.11-3.56,3.34-6.4,3.68-8.51,.03-.11,.04-.26,.04-.43,0-.31-.06-.61-.17-.88-.11-.27-.19-.48-.21-.62-2.28,.37-4.12,.71-5.52,1.03-1.2,.29-2.42,.61-3.68,.98-1.34,.37-2.32,.62-2.93,.75-.61,.13-1.25,.19-1.9,.19s-1.68-.51-2.99-1.54c-1.31-1.03-2.53-2.15-3.66-3.38-1.13-1.23-1.7-2.02-1.73-2.39-.03-.4,.06-.77,.26-1.11,.2-.34,.64-.5,1.33-.47,1.48,.09,3.25,.13,5.3,.13,4.59,0,9.94-.16,16.04-.49,6.1-.33,10.85-.66,14.24-1-.2-2.82-.38-4.9-.56-6.24-.09-.74-.36-1.41-.81-2.01-.46-.6-.91-1.1-1.35-1.52-.44-.41-.73-.69-.88-.83-.43-.48-.64-.91-.64-1.28s.19-.71,.56-1.03c.14-.11,.53-.5,1.18-1.15,.64-.66,1.42-1.24,2.33-1.75,.91-.51,1.8-.77,2.65-.77,.71,0,1.8,.34,3.25,1.03,1.45,.68,2.79,1.45,4.02,2.29,1.23,.84,1.87,1.46,1.92,1.86,.03,.4-.11,2.32-.43,5.77l-.38,3.85c2-.46,3.99-1.04,5.99-1.75,.6-.2,1.15-.37,1.67-.51,.51-.14,.94-.21,1.28-.21,1.14,0,2.73,.59,4.77,1.77Z"></path><path class="d" d="M592.08,149.99c-.36,.4-.98,.91-1.86,1.54-1.23,.86-2.21,1.64-2.95,2.35-.34,.34-.94,1.08-1.8,2.22-2.45,3.22-5.13,6.25-8.04,9.09-2.91,2.84-7.03,5.66-12.36,8.47-5.33,2.81-11.7,4.75-19.12,5.84-.66,.09-1.21,.13-1.67,.13-.71,0-1.26-.09-1.65-.26s-.58-.4-.58-.68,.22-.58,.66-.9c.44-.31,1.09-.6,1.95-.86,7.47-2.25,14.44-6.2,20.91-11.85-.48-.8-.98-1.85-1.5-3.16-.51-1.17-.87-1.94-1.07-2.31-.34-.6-.97-1.54-1.88-2.82-3.11,2-6.03,3.54-8.77,4.62-.6,.23-1.25,.34-1.97,.34-.54,0-.9-.07-1.07-.21-.46,3.65-.77,5.83-.94,6.54-.6,2.85-1.66,4.88-3.19,6.07-1.53,1.2-3.14,1.85-4.85,1.97-.51,.03-.9-.07-1.15-.3-.26-.23-.56-.64-.9-1.24-.51-.94-1.11-1.8-1.77-2.57-.67-.77-1.7-1.55-3.1-2.35l-.9-.51c-1.14-.68-1.99-1.22-2.54-1.6-.56-.38-.81-.68-.75-.88,.06-.23,.24-.38,.56-.45,.31-.07,.75-.11,1.33-.11l2.69,.04c1.03,0,1.85-.07,2.48-.21,1.82-.46,3.22-2.64,4.19-6.54,.97-3.91,1.61-8.45,1.92-13.64-.23,.34-.64,.87-1.24,1.58-1.28,1.6-2.37,3.14-3.25,4.62,.86,.51,1.57,1.12,2.16,1.82,.58,.7,.88,1.29,.88,1.77,0,.54-.24,1.08-.71,1.6s-1.06,.79-1.77,.79c-.17,0-.31-.01-.43-.04-1.14-.17-2.24-.26-3.29-.26-1.97,0-4.03,.3-6.2,.9-.34,1.43-.88,2.76-1.6,4-.73,1.24-1.46,1.86-2.2,1.86-.88,0-1.56-.61-2.03-1.84-.47-1.23-.79-2.76-.96-4.6-.17-1.84-.34-4.5-.51-7.98-.17-2.65-.51-5.32-1.03-8l-.21-.51,.09,.04c-.09-.43-.16-.78-.24-1.07-.07-.28-.11-.5-.11-.64,0-.06,.03-.14,.09-.26-1.4,.68-2.79,1.27-4.19,1.75-.46,.17-.88,.26-1.28,.26-.66,0-.98-.23-.98-.68,0-.51,.4-1.11,1.2-1.8,1.6-1.34,3.5-3.41,5.71-6.22,2.21-2.81,4.11-5.65,5.71-8.53,1.6-2.88,2.39-5.12,2.39-6.71,0-.28-.01-.48-.04-.6-.11-.63-.26-1.07-.45-1.33-.19-.26-.44-.5-.75-.73-.17-.11-.31-.21-.41-.3-.1-.09-.16-.23-.19-.43-.06-.34,.13-.76,.56-1.24,.43-.48,.96-.92,1.6-1.3,.64-.38,1.23-.62,1.77-.71,.34-.06,1.28,.24,2.8,.88,1.52,.64,2.92,1.38,4.19,2.2,1.27,.83,1.9,1.53,1.9,2.1-.03,1.03-.51,2.59-1.43,4.68-.93,2.1-2.2,4.26-3.83,6.48,1.14-.09,2.48-.26,4.02-.51,1.05-.17,1.96-.38,2.72-.64,.75-.26,1.62-.58,2.59-.98,.74-.31,1.34-.54,1.8-.68,.46-.14,.93-.21,1.41-.21,.43,0,1.24,.44,2.44,1.33,1.2,.88,2.22,1.81,3.08,2.78,2.14-2.79,3.76-5.3,4.88-7.53,1.11-2.22,1.81-3.99,2.1-5.3,.03-.11,.04-.28,.04-.51,0-.4-.08-.77-.24-1.11-.16-.34-.36-.71-.62-1.09-.26-.38-.38-.63-.38-.75,.03-.43,.68-.77,1.97-1.03,1.28-.26,2.29-.38,3.04-.38,.57,0,1.25,.24,2.05,.71,.8,.47,1.52,1.04,2.18,1.71,.66,.67,1.07,1.3,1.24,1.9,.09,.26,.13,.48,.13,.68,0,.34-.09,.65-.28,.92-.19,.27-.52,.66-1.01,1.18-.14,.17-.4,.46-.77,.86-.37,.4-.71,.83-1.03,1.28,.26-.03,.74-.1,1.45-.21,1.94-.23,3.24-.41,3.89-.56,.48-.09,1.02-.31,1.6-.68,.58-.37,1.3-.9,2.16-1.58,.66-.54,1.18-.94,1.58-1.2,.4-.26,.71-.39,.94-.39,.37,0,1.17,.46,2.39,1.37,1.23,.91,2.34,1.9,3.36,2.97,1.01,1.07,1.52,1.86,1.52,2.37,0,.6-.12,1.06-.36,1.37-.24,.31-.73,.74-1.48,1.28-.09,.09-.49,.41-1.22,.98-.73,.57-1.58,1.38-2.54,2.44l-1.71,2.01c-2.25,2.85-4.45,5.35-6.59,7.48,1.08-.23,1.82-.34,2.22-.34,.8,0,1.54,.41,2.22,1.24,.68,.83,1.2,1.75,1.54,2.78,.09,.26,.13,.48,.13,.68,0,.26-.07,.48-.21,.68-.14,.2-.4,.47-.77,.81,1.45-.14,2.39-.33,2.82-.56l1.58-.77c1.94-1.03,3.19-1.55,3.76-1.58,.37-.03,1.28,.48,2.72,1.54,1.44,1.06,2.78,2.22,4.02,3.51,1.24,1.28,1.9,2.25,1.99,2.91,.09,.6-.05,1.1-.41,1.5Zm-52.92-11.05c1.54,1.27,2.68,2.43,3.42,3.49,.06-1.6,.09-2.69,.09-3.29l-.04-1.88c-.03-.51-.04-1.2-.04-2.05,0-1.03-.03-1.74-.09-2.14-.06-.4-.21-.68-.47-.86s-.71-.26-1.37-.26c-.4,0-.73,.01-.98,.04-2.22,.14-4.15,.5-5.77,1.07-.34,.11-.67,.21-.98,.28-.31,.07-.63,.11-.94,.11-.43,0-1.25-.26-2.48-.77-2.68,2.62-5.67,4.8-8.98,6.54,.06,.03,.75,.19,2.07,.49,1.33,.3,2.44,.83,3.36,1.6,1.37-.37,2.98-.87,4.83-1.5,.71-.26,1.65-.78,2.82-1.58,.6-.43,1.08-.73,1.43-.92,.36-.19,.69-.28,1-.28,.54,0,1.58,.63,3.12,1.9Zm-9.11,14.18c.54-.23,1.06-.48,1.56-.77,.5-.28,.82-.47,.96-.56,.6-2.88,.9-5.03,.9-6.46,0-.94-.16-1.4-.47-1.37-.57,.03-1.43,.15-2.57,.36-1.14,.21-2.32,.51-3.55,.88,0,1.65,.04,3.04,.13,4.15,.06,.68,.17,1.34,.34,1.97,.17,.63,.43,1.43,.77,2.39,.91-.23,1.55-.43,1.92-.6Zm29.55-.96c2.54-2.32,4.47-4.33,5.79-6.03,1.33-1.7,2.06-3,2.2-3.91,.06-.34,.09-.6,.09-.77,0-.11-.04-.47-.13-1.07-4.82,4.39-10.53,8.45-17.15,12.19l-.94,7.91c.17-.2,.48-.48,.94-.86,3.59-2.65,6.66-5.14,9.19-7.46Zm-8.72-3.61c3.16-2.88,6.06-5.72,8.68-8.51-.2-.34-.38-.82-.53-1.43-.16-.61-.29-1.22-.41-1.82-.23-1.08-.41-1.82-.56-2.22-.2-.6-.6-1.44-1.2-2.52-.46-.94-.73-1.5-.81-1.67-1.2,1.03-2.11,1.78-2.74,2.27l-.26,1.03c-.46,2.02-.74,3.44-.86,4.23-.34,2.31-.78,5.86-1.33,10.65Zm7.27-20.1c1.54,.4,3.09,1.05,4.64,1.95,1.55,.9,2.46,1.76,2.72,2.59,1.4-1.88,2.46-3.54,3.19-4.98,.73-1.44,1.09-2.57,1.09-3.4,0-.34-.46-.51-1.37-.51-1.45,0-3.88,.41-7.27,1.24-.88,.97-1.88,2.01-2.99,3.12Zm17.36,25.66c1.05-1.51,1.85-2.79,2.37-3.85,.53-1.05,.76-1.75,.71-2.1-.03-.43-.83-.64-2.39-.64-1.2,0-2.57,.1-4.11,.3-1.54,1.77-3.68,3.69-6.41,5.77,1.71,.6,3.16,1.3,4.36,2.12,1.2,.81,1.8,1.62,1.8,2.42,0,.34-.01,.58-.04,.73,1.43-1.65,2.67-3.24,3.72-4.75Z"></path><path class="d" d="M593.77,247.02c1.03,.23,1.74,.43,2.14,.6,.4,.17,.6,.44,.6,.81,0,.49-.42,.79-1.26,.92-.84,.13-1.89,.19-3.14,.19-2.71,0-4.96,.29-6.76,.88-1.8,.58-3.59,1.36-5.39,2.33-.83,.43-1.44,.73-1.84,.9-.4,.17-.78,.26-1.15,.26-1.62,0-3.65-1.56-6.07-4.68-2.42-3.12-4.73-6.96-6.93-11.53l.34,19.59c0,1.51-.53,3.09-1.6,4.73-1.07,1.64-2.32,3.02-3.76,4.13-1.44,1.11-2.62,1.67-3.53,1.67-.37,0-.69-.21-.96-.62-.27-.41-.62-1.13-1.05-2.16-.6-1.34-1.18-2.53-1.75-3.57-.57-1.04-1.38-2.19-2.42-3.44-1.04-1.25-2.33-2.44-3.87-3.55-.37-.26-.56-.53-.56-.81,0-.23,.13-.41,.39-.56s.48-.19,.68-.13c1.82,.4,3.19,.68,4.08,.83,.9,.16,1.76,.21,2.59,.15,.8-.03,1.3-.27,1.52-.73,.21-.46,.32-1.23,.32-2.31l-.13-4.36-.21-8.17c-2.65,3.93-6.29,7.66-10.93,11.18-4.63,3.52-9.4,6.51-14.3,8.96-.23,.11-.47,.17-.73,.17-.37,0-.68-.13-.92-.38-.24-.26-.36-.53-.36-.81,0-.26,.09-.48,.26-.68s.39-.4,.66-.6c.27-.2,.49-.37,.66-.51l.73-.64c2.82-2.4,5.21-4.52,7.16-6.37,1.95-1.85,3.98-4.15,6.09-6.89,2.11-2.74,4.13-5.93,6.07-9.58-1.14,.17-2.18,.34-3.12,.51-2.39,.4-3.82,.6-4.28,.6-.6,0-1.12-.16-1.56-.49-.44-.33-.98-.85-1.6-1.56l-.6,1.41c.88,.6,1.72,1.33,2.52,2.18,.8,.85,1.2,1.53,1.2,2.01,0,.2-.14,.49-.43,.88-.29,.39-.63,.73-1.03,1.05-.4,.31-.77,.47-1.11,.47-.2,0-.68-.07-1.45-.21-2.57-.48-4.85-.73-6.84-.73-1.6,0-3.06,.16-4.4,.47l.21,2.05,.04,.51c0,.97-.26,2.06-.77,3.27-.51,1.21-1.09,2.27-1.73,3.16s-1.09,1.35-1.35,1.35c-.37,0-.84-.42-1.41-1.26-.57-.84-1.12-1.79-1.65-2.84-.53-1.05-.83-1.78-.92-2.18-.23-.91-.34-2.12-.34-3.64,0-.94,.01-1.65,.04-2.14l.04-2.39c0-1.2-.06-2.3-.17-3.29-.37-3.31-.8-5.74-1.28-7.29-.49-1.55-.91-2.54-1.28-2.97-.17-.17-.26-.38-.26-.64,0-.43,.19-.9,.58-1.43,.38-.53,.9-.99,1.56-1.39,.2-.11,.47-.17,.81-.17,.54,0,1.19,.14,1.95,.41,.75,.27,1.5,.61,2.24,1,3.31-.26,5.4-.53,6.29-.81,.86-.28,2.21-.84,4.06-1.67,1.14-.51,2.04-.89,2.69-1.13,.66-.24,1.17-.33,1.54-.28,.66,.11,1.23,.49,1.73,1.11,.5,.63,1.06,1.53,1.69,2.69,.14,.23,.33,.55,.56,.96,.23,.41,.44,.76,.64,1.05,0,.63-.09,1.31-.26,2.05-.17,.74-.5,1.75-.98,3.04,1.11-.03,2.1-.07,2.97-.13,.87-.06,1.6-.1,2.2-.13,2.05-.17,3.51-.26,4.36-.26,.91,0,2.27-.07,4.06-.21-.11-3.48-.19-6.04-.21-7.7-1.85,.37-3.14,.64-3.85,.81-2,.43-3.25,.64-3.76,.64-.54,0-1.03-.19-1.48-.58-.44-.38-.93-.93-1.48-1.65l-.86-1.03c-.6-.71-1.04-1.3-1.33-1.75-.29-.46-.44-.93-.47-1.41,0-.28,.34-.43,1.03-.43,.28,0,.68,.03,1.2,.09l.9,.04c2.48-.09,5.77-.37,9.88-.86l-.17-7.78c0-.74-.09-1.27-.26-1.58-.17-.31-.41-.61-.73-.9-.17-.14-.29-.26-.36-.36-.07-.1-.11-.25-.11-.45,0-.4,.25-.86,.75-1.39,.5-.53,1.08-.98,1.73-1.37,.66-.38,1.23-.58,1.71-.58,.2,0,.49,.11,.88,.32,.38,.21,.81,.46,1.26,.75,1.28,.71,2.02,1.13,2.22,1.24,.68,.34,1.17,.57,1.45,.68,1,.46,1.69,.84,2.07,1.15,.39,.31,.58,.74,.58,1.28,0,.34-.11,1.06-.34,2.14-.31,1.45-.47,2.61-.47,3.46l.04,1.92c.37-.06,.66-.11,.88-.15,.21-.04,.38-.08,.49-.11,1.28-.31,2.62-.8,4.02-1.45,.34-.17,.67-.31,.98-.43,.31-.11,.6-.17,.86-.17,.37-.03,.85,.11,1.43,.41,.58,.3,1.19,.63,1.82,1,.63,.37,1.05,.63,1.28,.77,1.2,.68,2.12,1.28,2.76,1.77,.64,.5,.96,.95,.96,1.35,0,.49-.31,1.04-.92,1.67-.61,.63-1.33,1.17-2.16,1.62-.83,.46-1.48,.7-1.97,.73-.8,.03-1.9-.17-3.29-.6-.8-.26-1.51-.45-2.14-.58-.63-.13-1.3-.19-2.01-.19-.26,0-.64,.03-1.15,.09l-1.75,.21v1.16c.06,3.34,.11,5.73,.17,7.18,3.28-.37,5.99-.78,8.13-1.24,1.45-.31,2.87-.83,4.23-1.54,.48-.26,.88-.44,1.2-.56,.31-.11,.63-.17,.94-.17,.91,0,2.1,.52,3.57,1.56,1.47,1.04,2.78,2.22,3.93,3.53,1.15,1.31,1.73,2.3,1.73,2.95,0,.34-.23,.73-.68,1.15-.46,.43-1,.79-1.63,1.09-.63,.3-1.15,.45-1.58,.45-.34,0-1.18-.2-2.52-.6-3.22-1.05-5.92-1.58-8.08-1.58-.49,0-.86,.01-1.11,.04l-6.89,.73c2.14,2.74,4.92,5.25,8.36,7.53,3.44,2.28,6.79,4.16,10.07,5.65,3.28,1.48,6.02,2.57,8.21,3.25l2.18,.56Zm-63.29-13.98c.66-4.11,.98-6.98,.98-8.64,0-.88-.1-1.34-.3-1.37l-.43-.04c-.6,0-1.49,.14-2.67,.41-1.18,.27-2.43,.62-3.74,1.05-.06,1.05-.01,2.14,.13,3.25l.73,6.24c1.4-.17,3.16-.47,5.3-.9Z"></path></g><path class="d" d="M549.88,282.93c-1.33,0-2.66-.05-4.01-.14-27.88-1.92-50.15-24.42-51.81-52.33-1.05-17.69,6.06-34.43,19.53-45.91,.02-.03,.04-.19-.12-.32-12.39-10.64-19.5-26.09-19.5-42.4s7.31-32.04,19.76-42.61c-12.45-10.57-19.76-26.17-19.76-42.61,0-15.43,6.47-30.32,17.76-40.85,11.44-10.68,26.38-15.96,42.07-14.88,27.88,1.92,50.15,24.42,51.81,52.33,1.06,17.8-6.22,34.67-19.65,46.02,12.45,10.57,19.75,26.17,19.75,42.61s-7.11,31.76-19.5,42.4c-.05,.04-.11,.11-.11,.21s.06,.17,.11,.21c12.4,10.64,19.51,26.09,19.51,42.4,0,15.43-6.47,30.32-17.76,40.85-10.46,9.77-23.85,15.02-38.07,15.02Zm-.09-274.96c-12.38,0-24.04,4.57-33.14,13.07-9.82,9.17-15.46,22.13-15.46,35.56,0,15.71,7.67,30.54,20.51,39.66l4.15,2.95-4.15,2.95c-12.84,9.12-20.51,23.95-20.51,39.66,0,14.19,6.19,27.64,16.98,36.9,1.7,1.46,2.67,3.56,2.66,5.78,0,2.14-.93,4.16-2.55,5.55-11.72,10-17.92,24.57-17,39.98,1.45,24.29,20.83,43.86,45.09,45.54,13.67,.94,26.68-3.66,36.64-12.95,9.82-9.17,15.46-22.13,15.46-35.56,0-14.19-6.19-27.64-16.98-36.91-1.68-1.44-2.64-3.52-2.64-5.71s.96-4.27,2.64-5.71c10.79-9.26,16.98-22.71,16.98-36.91,0-15.71-7.67-30.54-20.51-39.66l-4.15-2.95,4.15-2.95c13.79-9.8,21.43-25.74,20.42-42.64-1.45-24.29-20.83-43.86-45.09-45.54-1.17-.08-2.33-.12-3.49-.12Z"></path></g><g><g><path class="d" d="M168.12,40.68c6.99-3.91,14.04-6.22,21.15-6.93h.71c.59,0,1.01-.06,1.24-.18,2.01,0,3.32-.06,3.91-.18l11.2-.53c3.32-.12,7.58-.18,12.8-.18,4.86,0,8,.12,9.42,.36,9.95,.95,19.19,3.2,27.73,6.75,1.42,.47,3.38-1.13,5.87-4.8,2.49-3.67,3.73-6.58,3.73-8.71,0-3.91-2.19-8.23-6.58-12.97-4.27-4.38-8.3-7.23-12.09-8.53l.18,1.25v1.25c0,1.07-.24,2.01-.71,2.84-1.31,2.01-3.91,2.84-7.82,2.49-7.11-.47-15.05-.71-23.81-.71h-7.11c-13.04,.12-25.36,.53-36.97,1.25-3.91,.12-6.28-1.01-7.11-3.38-2.96,1.54-5.81,4.03-8.53,7.46-2.37,3.32-3.32,5.51-2.84,6.58,4.5,12.33,9.71,17.95,15.64,16.89Z"></path><path class="d" d="M265.88,46.19l.36,2.49c-.24,1.31-.53,2.26-.89,2.84-1.07,1.66-3.14,2.49-6.22,2.49-.95,0-1.72-.06-2.31-.18-11.02-1.07-23.76-1.6-38.21-1.6-6.75,0-11.91,.06-15.46,.18-20.74,.36-37.8,1.31-51.19,2.84l-1.78,.18c-2.96,0-4.98-1.18-6.04-3.55-3.32,1.54-6.46,4.09-9.42,7.64-2.61,3.32-3.68,5.63-3.2,6.93,2.13,5.22,5.09,9.54,8.89,12.98,3.79,3.67,7.23,5.22,10.31,4.62,5.57-2.41,12.76-5.85,24.78-8.32-5.62,10.35-14.38,23.49-26.91,34.63,0,0-3.37,13.73,3.1,19.55,4.41,3.97,4.15-.44,14.01-.87,9.86-.44,31.32-.79,44.48-.79,15.02,0,33.08,.81,42.81,1.31,12.87,.66,11.31,3.78,15.71,1.13,8.56-5.15,3.45-20.34,3.45-20.34-13.14-11.67-22.35-25.51-28.16-36.07,7.4,.83,13.34,2.01,17.81,3.53l5.87,2.14,3.02,1.24,3.38,1.25c1.42,.47,3.32-1.25,5.69-5.16,.47-.71,1.3-2.31,2.49-4.8l1.07-3.38c.47-3.91-1.36-8.59-5.51-14.04-4.15-4.86-8.12-7.82-11.91-8.89Zm-55.24,61.81c-12.99,0-24.31,.28-33.65,.64,15.15-15.17,22.3-28.37,25.45-35.83,2.52-.08,5.12-.14,7.9-.14,2.54,0,4.84,.02,6.99,.05,3.12,7.44,10.25,20.67,25.43,35.87-8.98-.34-19.77-.59-32.12-.59Z"></path></g><g><path class="d" d="M425.58,99.2v-6.75c-.12-.94-.18-2.31-.18-4.09v-2.49c-.12-2.25,.59-4.09,2.13-5.51l1.42-1.42c.47-.47,.71-1.01,.71-1.6,0-3.43-2.73-6.63-8.18-9.6-5.1-2.84-9.72-4.15-13.86-3.91,.24,.95,.35,1.6,.35,1.95,0,2.14-1.48,3.2-4.44,3.2l-34.84,.36c-3.32-1.66-6.4-2.49-9.24-2.49-.71,0-1.9,.88-3.55,2.66-1.9,1.9-3.62,4.09-5.16,6.58,1.54,.12,2.49,.77,2.84,1.95,.24,1.19,.35,3.2,.35,6.04v28.61c0,1.9,1.13,3.2,3.38,3.91,1.42,.35,2.96,.53,4.62,.53,1.3,0,2.31-.06,3.02-.18,6.16-1.07,9.66-2.6,10.49-4.62h19.91c1.3-.12,3.14-.18,5.51-.18h3.2c.47,1.19,1.66,2.14,3.55,2.84,1.54,.6,3.08,.89,4.62,.89,.47,0,1.42-.12,2.84-.36,6.99-1.3,10.49-6.75,10.49-16.35Zm-20.27-1.78l-31.1,.52v-13.38l31.1-.26v13.13Z"></path><path class="d" d="M451.53,38.06c-5.45-2.96-11.02-4.74-16.71-5.33,.24,.95,.36,1.66,.36,2.14,0,2.49-2.13,3.91-6.4,4.27l-30.05-.24V22.87h-.03V13.09c0-6.12-3.83-8.43-7.26-10.1-5.33-2.6-5.16-3-8.12-3-1.07,0-3.02,.71-5.87,2.14-3.67,1.77-6.22,3.44-7.64,4.97,1.8,1.01,4.62,1.94,4.62,5.35s0,27.71,0,27.71l-36.49,.21c-3.67-2.25-6.87-3.38-9.6-3.38-.83,0-2.78,1.07-5.86,3.2-.93,.62-1.91,1.34-2.92,2.17-1.9,1.54-2.41,4.55-.65,6.25,1.79,1.73,2.69,5.09,2.69,10.06v72.34c0,2.25,1.42,3.79,4.27,4.62,2.13,.47,3.91,.71,5.33,.71,.71,0-.09-.12,1.81-.36,3.55-.47,6.57-1.54,9.06-3.2,2.84-1.54,4.26-3.38,4.26-5.51V60.75l87.44-1.07v47.7c-.12,5.45-3.27,9.05-7.82,9.25-4.55,.2-9.18-.5-9.49,.68-.31,1.18,.76,1.54,5.19,4.41,5.48,3.55,5.6,7.35,5.36,9.49-.12,1.89,1.54,3.38,4.98,4.44,1.54,.59,3.43,.89,5.69,.89,2.01,0,3.91-.24,5.69-.71,4.74-1.31,5.73-3.97,8.7-8,3.55-4.62,5.45-11.14,5.69-19.55V63.48c0-4.38,.83-7.4,2.49-9.06,1.54-1.42,2.31-2.49,2.31-3.2-.95-5.1-4.62-9.48-11.02-13.15Z"></path><path class="d" d="M332.61,27.05c4.13,4.47,6.98,7.41,8.54,8.8,1.8,1.05,3.83,1.57,6.11,1.57,2.88,0,5.57-.64,8.09-1.92,2.52-1.28,3.77-2.67,3.77-4.18-.96-1.28-2.22-3.2-3.77-5.75-1.56-2.55-2.58-4.53-3.05-5.93-.72-1.86-1.08-3.49-1.08-4.88,0-3.02,1.62-4.82,4.85-5.4-1.44-1.63-3.36-2.85-5.75-3.66-2.4-.81-5.03-1.22-7.91-1.22-2.4,0-4.49,.23-6.29,.7-3.24,.58-5.81,1.8-7.73,3.66-1.92,1.86-2.88,4.13-2.88,6.8,0,1.39,.12,2.44,.36,3.14,.36,1.05,2.61,3.81,6.74,8.28Z"></path><path class="d" d="M414.45,24.26c-1.56,2.56-2.81,4.48-3.77,5.75,0,1.51,1.26,2.91,3.77,4.18,2.52,1.28,5.21,1.92,8.09,1.92,2.28,0,4.31-.52,6.11-1.57,1.56-1.39,4.4-4.33,8.54-8.8,4.13-4.47,6.38-7.24,6.74-8.28,.24-.7,.36-1.74,.36-3.14,0-2.67-.96-4.94-2.88-6.8-1.92-1.86-4.49-3.08-7.73-3.66-1.8-.46-3.89-.7-6.29-.7-2.88,0-5.51,.41-7.91,1.22-2.4,.81-4.31,2.03-5.75,3.66,3.24,.58,4.85,2.38,4.85,5.4,0,1.39-.36,3.02-1.08,4.88-.48,1.39-1.5,3.37-3.05,5.93Z"></path></g><g><path class="d" d="M276.09,223.15c2.43-3.67,3.65-6.58,3.65-8.71,0-3.91-2.15-8.23-6.43-12.97-4.17-4.38-8.12-7.23-11.83-8.53l.17,1.25v1.25c0,1.07-.23,2.01-.7,2.84-1.28,2.01-3.83,2.84-7.65,2.49-5.35-.36-22.64-.59-33.18-.67v-29.74c0-1.51,.14-2.59,.43-3.22,.29-.64,.76-1.28,1.4-1.92,.64-.64,1.07-1.24,1.31-1.83,.35-1.28,.52-2.09,.52-2.44,0-2.9-1.74-5.58-5.23-8.02-3.49-2.44-5.99-3.66-9.94-3.66-4.88,0-8.86,1.02-11.94,3.05-3.08,2.04-5.96,5.08-8.63,9.15,.35-.11,.99-.17,1.92-.17,2.32,0,3.81,.73,4.45,2.18,.64,1.45,.96,3.98,.96,7.58v29.13c-14.2,.2-35.46,.57-44.19,1.11-3.83,.12-6.15-1.01-6.96-3.38-2.9,1.54-5.68,4.03-8.35,7.46-2.32,3.32-3.25,5.51-2.78,6.58,4.41,12.33,9.51,17.95,15.3,16.89,6.11-3.49,17.6-7.22,46.98-7.98v32.77c-3.28-5.83-9.58-9.63-12.92-10.51,.81-2.83,1.29-5.52,1.33-8.04,.05-2.71-1.16-4.98-3.62-6.8-2.46-1.82-5.16-1.87-9.29-1.11,0,0-2.87,7.59-6.79,12.08-3.92,4.49-7.99,8.04-12.22,10.63-2.54,1.52-5.56,2.84-9.05,3.95-2.47,.79-7.95,1.69-11.17,2.13-.76,.11-1.01,1.04-.42,1.53,2.24,1.86,5.03,5.62,5.24,11.16,.05,1.46,.2,2.35,.12,2.7v1.52c.27,2.56,1.25,4.58,2.93,6.03,1.68,1.45,3.92,2.03,6.71,1.73,6.13-.66,12.07-3.68,17.81-9.04,4.88-4.22,9.1-9.5,12.74-15.74,13.36,3.22,20.36,24.71,21.39,25.55,1.86,1.51,4.36,2.27,7.5,2.27,3.95,0,6.34-1.08,9.59-3.23,3.25-2.15,4.88-4.74,4.88-7.76v-51.78c28.14,.81,43.01,3.97,50.22,7.04,1.39,.47,3.3-1.13,5.74-4.8Z"></path><path class="d" d="M242.02,175.92c-1.63,3.38-4.13,6.92-7.5,10.64,0,2.21,1.13,4.18,3.4,5.93,2.27,1.74,4.97,2.61,8.11,2.61l3.49-.35c1.28-.7,4.42-3.16,9.41-7.41,5-4.24,7.5-6.48,7.5-6.72,1.05-2.32,1.57-4.76,1.57-7.32,0-5.12-2.61-8.95-7.85-11.51-2.56-1.05-5.35-1.57-8.37-1.57-4.77,0-8.49,1.16-11.16,3.48,2.67,1.05,4.01,2.68,4.01,4.88,0,1.28-.41,2.67-1.22,4.18l-1.4,3.13Z"></path><path class="d" d="M159.27,188.82c3.95,3.25,6.45,5.23,7.5,5.93l3.49,.35c3.02,0,5.69-.9,8.02-2.7,2.32-1.8,3.49-3.75,3.49-5.84-3.37-3.72-5.87-7.26-7.5-10.64-.47-.58-1.02-1.65-1.66-3.23-.64-1.57-.96-2.93-.96-4.09,0-2.21,1.28-3.83,3.83-4.88-2.67-2.32-6.34-3.48-10.98-3.48-3.02,0-5.81,.52-8.37,1.57-5.23,2.68-7.85,6.57-7.85,11.68,0,2.44,.52,4.83,1.57,7.15,2.32,2.21,5.46,4.94,9.41,8.2Z"></path><path class="d" d="M283.14,255.96c-3.22-.44-8.7-1.35-11.17-2.13-3.49-1.11-6.51-2.43-9.05-3.95-4.23-2.6-8.31-6.15-12.22-10.63-3.91-4.49-6.79-12.08-6.79-12.08-4.13-.76-6.84-.71-9.29,1.11-2.45,1.82-3.66,4.09-3.62,6.8,.08,5.54,2.05,11.85,5.91,18.93,3.86,7.08,8.47,12.94,13.84,17.58,5.74,5.36,11.68,8.38,17.81,9.04,2.79,.3,5.02-.28,6.71-1.73,1.68-1.45,2.66-3.47,2.94-6.03v-1.52c-.08-.35,.06-1.24,.12-2.7,.21-5.54,3-9.3,5.24-11.16,.59-.49,.34-1.42-.42-1.53Z"></path></g><g><path class="d" d="M371.34,243.22c-6.05,4.08-11.38,7.87-24.16,10.63-19.37,4.18-24.48-2.23-25.76-3.98,.35,6.88-1.34,11.83-5.06,14.86-1.63,1.4-2.44,3.04-2.44,4.9,0,1.4,.58,3.26,1.74,5.6,2.44,4.31,6.29,6.47,11.52,6.47,8.03,0,17.68-3.21,28.97-9.62,10.36-5.95,17.63-12.42,21.82-19.41,.46-1.17-.06-2.98-1.57-5.42-1.63-2.56-3.32-3.91-5.06-4.02Z"></path><path class="d" d="M325.61,215.32c.58,0,2.16-.76,4.71-2.27l2.1-1.05,1.75-.88c1.51-.7,2.85-1.16,4.01-1.4l6.81-1.4c-4.89,6.19-10.01,11.08-15.36,14.7-2.09,1.4-4.13,2.1-6.11,2.1-1.63,0-3.2-.41-4.71-1.23-.58,1.99-.87,3.73-.87,5.25,0,3.26,.99,6.59,2.97,9.97,2.56,4.2,6.29,6.71,11.17,7.52,.58,0,1.81-.58,3.67-1.75l3.14-1.57c1.28-.58,2.5-.99,3.67-1.23,2.09-.46,3.37-.7,3.84-.7l1.92-.35,2.27-.35,1.74-.35,2.1-.17,4.19-.7,4.36-.53,3.14-.52,2.79-.35c3.6-.93,5.81-4.32,6.63-10.15,.11-.82,.17-1.86,.17-3.15,0-3.61-1.05-5.3-3.14-5.07-8.84,1.17-14.6,1.75-17.27,1.75,10.7-8.98,18.21-18.42,22.51-28.33,.46-.93,.76-1.86,.87-2.8,.12-.46,.06-1.57-.17-3.32-.81-2.45-3.2-4.43-7.15-5.95-1.98-.58-4.13-.87-6.46-.87-4.42,0-8.55,.52-12.39,1.57,1.86,1.17,2.79,3.03,2.79,5.6,0,.58-.12,1.57-.35,2.97l-15.36,1.75c5.35-4.31,10.36-9.5,15.01-15.57,1.98-2.45,3.55-4.6,4.71-6.47l.7-1.23,.7-1.05c.11-.23,.4-.76,.87-1.57,.93-1.86,1.4-3.5,1.4-4.9,0-2.33-1.16-4.37-3.49-6.12-3.03-2.1-7.1-3.32-12.22-3.67-5.82-.23-11.29,.52-16.41,2.27,2.56,2.22,3.84,5.54,3.84,9.97,0,1.51-.18,3.26-.52,5.25-1.16,6.88-4.13,12.89-8.9,18.01-1.63,1.98-3.61,2.97-5.94,2.97-1.16,0-2.44-.35-3.84-1.05-.93,2.8-1.4,5.42-1.4,7.87,0,3.03,.64,6.3,1.92,9.8,1.98,5.25,5.18,8.16,9.6,8.74Z"></path><path class="d" d="M465.59,269.54c-2.09-3.73-4.35-6.81-4.35-11,0-2.91,.53-5.94,1.57-9.09-3.96,2.33-7.72,3.83-10.62,3.75-4.87-.14-6.62-1.09-8.02-2.14,6.52-5.48,15.77-12.29,18.57-17.54,.58-1.75-.17-3.73-2.27-5.95-2.44-2.56-5.35-3.96-8.72-4.2-3.61,3.97-11.22,8.29-16.57,11.79-2.31-5.07-3.34-7.49-4.15-12.84,3.26-.46,7.56-.7,8.15-.7,1.28-.12,3.2-.18,5.76-.18,4.89,0,9.6,.41,14.14,1.23,1.16,.35,2.56-1.17,4.19-4.55,1.4-3.38,2.03-5.71,1.92-7-.23-3.38-2.49-5.24-7.26-8.63-4.42-3.03-8.32-4.72-11.69-5.07l.35,1.05,.35,.88c.11,.35,.05,1.11-.18,2.27-.7,1.86-2.79,2.97-6.28,3.32-3.49,.35-9.89,.88-14.43,1.57-.93-3.73-2.05-9.15-2.86-13.24,1.63-.23,2.79-.35,3.49-.35,1.16,0,2.03-.06,2.62-.18,.35-.11,3.37-.17,4.31-.17,7.1-.23,13.5,.41,19.2,1.92,1.28,.35,2.67-1.11,4.19-4.37,1.51-2.91,2.27-5.07,2.27-6.47-.08-2.24-.93-5.13-3.53-7.52,.71-2.24,1.32-4.74,1.81-7.36,.99-5.22,.68-13.67-7.7-15.49-8.38-1.83-13.38,5.15-13.38,5.15,0,0,4.08,3.96,3.13,10.34-.35,2.37-.74,4.55-1.1,6.43-1.29,.19-2.33,.33-2.86,.38l-14.43,1.05c-.11-1.28-.17-3.2-.17-5.77s.3-5.28,1.12-6.8l.52-.87,.35-.7,.35-.88c0-2.33-3.02-4.95-9.07-7.87-5.7-2.91-7.74-4.37-11.35-4.37-.46,0-1.16,.18-2.09,.52-.93,.24-2.1,.76-3.49,1.58-3.37,1.98-6.46,4.6-9.25,7.87,2.79,.35,5.29,1.64,7.5,3.85,2.21,2.45,3.71,6.04,4.29,9.76l.87,7.52c-.81,.12-1.77,.32-2.88,.62-1.11,.29-1.95,.43-2.53,.43-2.1,0-3.84-1.22-5.24-3.67-2.45,1.51-4.78,4.02-6.98,7.52-2.22,3.15-3.13,4.81-2.54,5.97,2.09,3.85,4.77,6.88,8.03,9.1,2.32,1.63,4.48,2.45,6.45,2.45,.93,0,1.57-.06,1.92-.17,.93-.58,3.14-1.93,6.64-4.02,.35,2.8,1.23,7.81,2.17,12.01l-11.87,2.98c-.35,.11-.87,.17-1.57,.17-1.86,0-3.55-1.16-5.06-3.5-2.44,1.63-4.77,4.37-6.98,8.22-2.09,3.61-3.1,4.37-2.51,5.3,2.44,3.85,5.41,6.88,8.9,9.1,2.32,1.4,4.48,2.1,6.45,2.1,1.05,0,1.86-.11,2.44-.35,5.12-4.08,9.89-6.76,14.31-8.05,2.32,7.59,4.36,13.47,6.11,17.67-6.28,1.86-11.87,2.8-16.76,2.8s-8.49-.93-11.17-2.8c.23,.7,.35,1.34,.35,1.92,0,1.75-.76,3.97-2.27,6.65l-1.22,1.92-1.22,1.75c-.7,1.52-1.11,2.8-1.22,3.85-.35,4.08,1.63,7.23,5.93,9.44,3.26,1.63,7.04,2.39,11.34,2.27,8.38-.7,17.22-3.38,26.53-8.05,8.72,12.94,18.68,19.41,29.84,19.41,3.61,0,4.31-1.57,7.34-4.72,1.97-2.22,2.97-4.26,2.97-6.12,0-.93-.29-1.98-.87-3.15Z"></path></g></g></g></g></g></svg>